<svg viewBox="0 0 14 14" xmlns="http://www.w3.org/2000/svg"><path d="M3.303 12.017a.992.992 0 1 1 0 1.983.992.992 0 0 1 0-1.983Zm7.933 0a.992.992 0 1 1 0 1.983.992.992 0 0 1 0-1.983ZM.044.259C.158.032.384-.053.611.032l.85.369c.397.198.652.566.68 1.02l.538 8.3c.029.398.397.738.85.738h9.378c.227 0 .425.226.425.453a.436.436 0 0 1-.425.425H3.501c-.878 0-1.643-.68-1.7-1.53l-.51-8.301a.348.348 0 0 0-.198-.312L.27.826C.044.712-.069.486.044.259ZM12.54 2.101c.397 0 .765.17 1.02.453.255.283.368.68.283 1.048v.028l-.68 3.769c-.056.651-.595 1.133-1.246 1.19l-7.423.566h-.029c-.226 0-.396-.17-.425-.396 0-.227.17-.425.397-.454l7.451-.566c.255-.029.454-.199.482-.454v-.028l.68-3.74a.677.677 0 0 0-.142-.396.457.457 0 0 0-.368-.17h-8.67a.436.436 0 0 1-.425-.425c0-.227.199-.425.425-.425Z" fill="currentColor" fill-rule="nonzero"/></svg>