<svg viewBox="0 0 14 14" xmlns="http://www.w3.org/2000/svg"><path d="M7 0c3.85 0 7 3.15 7 7s-3.15 7-7 7-7-3.15-7-7 3.15-7 7-7Zm0 1.167C3.733 1.167 1.167 3.733 1.167 7c0 3.267 2.566 5.833 5.833 5.833 3.267 0 5.833-2.566 5.833-5.833 0-3.267-2.566-5.833-5.833-5.833ZM4.083 4.083a.564.564 0 0 1 .817 0l2.1 2.1 2.1-2.1a.564.564 0 0 1 .817 0 .564.564 0 0 1 0 .817L7.817 7l2.1 2.1a.564.564 0 0 1 0 .817.564.564 0 0 1-.817 0L7 7.817l-2.1 2.1a.564.564 0 0 1-.817 0 .564.564 0 0 1 0-.817l2.1-2.1-2.1-2.1a.564.564 0 0 1 0-.817Z" fill="currentColor" fill-rule="nonzero"/></svg>