<svg viewBox="0 0 15 14" xmlns="http://www.w3.org/2000/svg"><path d="M.499.998h13.967a.511.511 0 0 0 .498-.5.511.511 0 0 0-.498-.498H.499A.511.511 0 0 0 0 .499c0 .266.233.499.499.499Zm13.967 3.325H.499A.511.511 0 0 0 0 4.822c0 .266.233.499.499.499h13.967a.511.511 0 0 0 .498-.5.511.511 0 0 0-.498-.498Zm-8.98 4.323H.5A.511.511 0 0 0 0 9.145c0 .266.233.499.499.499h4.988a.511.511 0 0 0 .499-.5.511.511 0 0 0-.5-.498Zm0 4.323H.5a.511.511 0 0 0-.499.499c0 .266.233.499.499.499h4.988a.511.511 0 0 0 .499-.5.511.511 0 0 0-.5-.498Zm7.516-1.164a2.86 2.86 0 1 0-2.228 1.064c.532 0 1.031-.133 1.43-.399l1.397 1.397a.5.5 0 0 0 .366.133.482.482 0 0 0 .366-.831l-1.33-1.364ZM8.945 10.01a1.86 1.86 0 0 1 1.863-1.863 1.86 1.86 0 0 1 1.862 1.863 1.86 1.86 0 0 1-1.862 1.862c-1.031-.034-1.863-.865-1.863-1.862Z" fill="currentColor" fill-rule="nonzero"/></svg>