<svg width="26.000000" height="26.000000" viewBox="0 0 26 26" fill="none" xmlns="http://www.w3.org/2000/svg" xmlns:xlink="http://www.w3.org/1999/xlink">
	<desc>
			Created with Pixso.
	</desc>
	<path id="path" d="M13 26C5.83337 26 0 20.1719 0 13C0 5.83337 5.83337 0 13 0C20.1719 0 26 5.83337 26 13C26 20.1719 20.1719 26 13 26ZM13 1.79169C6.81775 1.79169 1.7865 6.81775 1.7865 13C1.7865 19.1875 6.81775 24.2136 13 24.2136C19.1823 24.2136 24.2135 19.1875 24.2135 13C24.2135 6.81775 19.1823 1.79169 13 1.79169ZM9.70312 8.05731C8.70312 8.05731 7.89587 9.04688 7.89587 10.2709C7.89587 11.4896 8.70312 12.4792 9.70312 12.4792C10.7031 12.4792 11.5104 11.4896 11.5104 10.2709C11.5104 9.04688 10.7031 8.05731 9.70312 8.05731ZM16.7812 8.05731C15.7812 8.05731 14.974 9.04688 14.974 10.2709C14.974 11.4896 15.7812 12.4792 16.7812 12.4792C17.7812 12.4792 18.5938 11.4896 18.5938 10.2656C18.5938 9.04688 17.7812 8.05731 16.7812 8.05731ZM13.349 19.625C18.151 19.4636 19.9479 14.5834 19.9479 14.5834C12.1459 20.0261 6.75525 14.5834 6.75525 14.5834C6.75525 14.5834 8.55212 19.7865 13.349 19.625Z" fill-rule="nonzero" fill="#000000"/>
	<defs/>
</svg>
