<?xml version="1.0" standalone="no"?><!DOCTYPE svg PUBLIC "-//W3C//DTD SVG 1.1//EN" "http://www.w3.org/Graphics/SVG/1.1/DTD/svg11.dtd"><svg t="1703573392416" class="icon" viewBox="0 0 1024 1024" version="1.1" xmlns="http://www.w3.org/2000/svg" p-id="4208" width="32" height="32" xmlns:xlink="http://www.w3.org/1999/xlink"><path d="M727.779556 256H625.777778a28.444444 28.444444 0 1 1 0-56.888889h170.666666a28.330667 28.330667 0 0 1 28.444445 28.444445v170.666666a28.444444 28.444444 0 1 1-56.888889 0V296.220444L530.090667 534.186667a28.444444 28.444444 0 0 1-40.220445-40.220445L727.779556 256z m40.220444 313.002667a28.444444 28.444444 0 0 1 56.888889 0V739.555556a85.333333 85.333333 0 0 1-85.333333 85.333333H284.444444A85.333333 85.333333 0 0 1 199.111111 739.555556V284.444444A85.333333 85.333333 0 0 1 284.444444 199.111111h171.576889a28.444444 28.444444 0 1 1 0 56.888889H284.444444a28.444444 28.444444 0 0 0-28.444444 28.444444v455.111112a28.444444 28.444444 0 0 0 28.444444 28.444444h455.111112a28.444444 28.444444 0 0 0 28.444444-28.444444v-170.552889z" p-id="4209" fill="currentColor"></path></svg>