<svg viewBox="0 0 15 14" xmlns="http://www.w3.org/2000/svg"><path d="M13.665 9.624a.71.71 0 0 1 .944.172c.233.324.35.668.35 1.022 0 2.068-3.852 3.182-7.48 3.182C3.854 14 0 12.886 0 10.816c0-.346.111-.68.331-.994a.713.713 0 0 1 .943-.182c.314.194.4.588.194.882a.521.521 0 0 0-.109.296c0 .778 2.385 1.91 6.12 1.91 3.737 0 6.122-1.132 6.122-1.91a.534.534 0 0 0-.12-.31.612.612 0 0 1 .184-.884Zm.096-3.84a.705.705 0 0 1 .93.226c.175.278.264.57.269.87.038 2.064-3.794 3.242-7.42 3.302l-.312.002c-1.785 0-3.467-.248-4.764-.71C.895 8.916.02 8.082.002 7.124c-.008-.392.128-.772.406-1.128a.708.708 0 0 1 .95-.14c.303.206.369.604.149.89-.097.126-.146.246-.144.354.007.38.629.844 1.586 1.184 1.214.432 2.828.646 4.567.626 3.736-.064 6.1-1.232 6.085-2.01a.478.478 0 0 0-.082-.244c-.192-.304-.083-.694.242-.872ZM7.48 0c3.627 0 7.48 1.114 7.48 3.182 0 2.068-3.853 3.182-7.48 3.182C3.853 6.364 0 5.25 0 3.182 0 1.114 3.853 0 7.48 0Zm0 1.272c-3.736 0-6.12 1.132-6.12 1.91S3.743 5.09 7.48 5.09s6.12-1.128 6.12-1.908-2.384-1.91-6.12-1.91Z" fill="currentColor" fill-rule="nonzero"/></svg>