<svg viewBox="0 0 60 60" xmlns="http://www.w3.org/2000/svg" xmlns:xlink="http://www.w3.org/1999/xlink"><defs><path id="a" d="M0 0h38v37.542H0z"/></defs><g fill="none" fill-rule="evenodd" opacity=".7"><rect fill="#D3F0FE" width="60" height="60" rx="6"/><g transform="translate(11 11)"><mask id="b" fill="#fff"><use xlink:href="#a"/></mask><path d="M36.43 32.409a3.567 3.567 0 0 1-3.563 3.563H5.133a3.567 3.567 0 0 1-3.563-3.563V5.133A3.567 3.567 0 0 1 5.133 1.57h27.734a3.567 3.567 0 0 1 3.563 3.563V32.41ZM32.867 0H5.133A5.14 5.14 0 0 0 0 5.133V32.41a5.14 5.14 0 0 0 5.133 5.133h27.734A5.139 5.139 0 0 0 38 32.409V5.133A5.139 5.139 0 0 0 32.867 0Z" fill="currentColor" mask="url(#b)"/></g><path d="M41.096 23.089h-10.4a.785.785 0 0 0 0 1.57h10.4a.785.785 0 0 0 0-1.57M41.096 35.354h-10.4a.785.785 0 0 0 0 1.57h10.4a.785.785 0 0 0 0-1.57M22.716 39.5a3.364 3.364 0 0 1-3.36-3.36 3.364 3.364 0 0 1 3.36-3.361 3.364 3.364 0 0 1 3.36 3.36 3.364 3.364 0 0 1-3.36 3.36m0-8.29a4.936 4.936 0 0 0-4.93 4.93 4.936 4.936 0 0 0 4.93 4.93 4.936 4.936 0 0 0 4.93-4.93 4.935 4.935 0 0 0-4.93-4.93M26.926 20.277l-4.678 4.733-3.127-3.076a.785.785 0 0 0-1.1 1.119l3.684 3.626a.783.783 0 0 0 1.11-.008l5.228-5.29a.785.785 0 1 0-1.117-1.104" fill="currentColor"/></g></svg>