<svg viewBox="0 0 60 60" xmlns="http://www.w3.org/2000/svg" xmlns:xlink="http://www.w3.org/1999/xlink"><defs><path id="a" d="M0 0h40v40H0z"/></defs><g fill="none" fill-rule="evenodd" opacity=".7"><rect fill="#D3F0FE" width="60" height="60" rx="6"/><g transform="translate(10 10)"><mask id="b" fill="#fff"><use xlink:href="#a"/></mask><path d="M20 38.334C9.89 38.334 1.666 30.11 1.666 20S9.891 1.666 20 1.666c10.11 0 18.334 8.225 18.334 18.334 0 10.11-8.225 18.334-18.334 18.334M20 0C8.972 0 0 8.972 0 20s8.972 20 20 20 20-8.972 20-20S31.028 0 20 0" fill="currentColor" mask="url(#b)"/></g><path d="M30 44.921c-8.227 0-14.921-6.693-14.921-14.92 0-8.228 6.694-14.922 14.921-14.922S44.921 21.773 44.921 30c0 8.228-6.694 14.921-14.921 14.921m0-31.508c-9.146 0-16.587 7.441-16.587 16.587S20.853 46.587 30 46.587c9.146 0 16.587-7.44 16.587-16.587 0-9.146-7.44-16.587-16.587-16.587" fill="currentColor"/><path fill="currentColor" d="M25.377 32.075h-.052l-4.636-6.763h-1.537v9.377h1.537v-6.856h.052l4.689 6.856h1.497v-9.377h-1.55zM35.175 32.588c-.526.621-1.274.932-2.246.932-.981 0-1.734-.324-2.26-.972-.507-.622-.76-1.466-.76-2.535 0-1.076.253-1.926.76-2.547.544-.657 1.296-.985 2.26-.985.98 0 1.729.31 2.246.932.516.64.774 1.506.774 2.6 0 1.095-.258 1.953-.774 2.575m-2.246-7.46c-1.454 0-2.583.468-3.389 1.405-.779.885-1.168 2.045-1.168 3.48 0 1.428.39 2.583 1.168 3.468.823.928 1.952 1.392 3.389 1.392 1.435 0 2.565-.46 3.388-1.38.788-.884 1.182-2.044 1.182-3.48 0-1.453-.394-2.617-1.182-3.493-.823-.928-1.953-1.392-3.388-1.392M40.559 32.982a1.022 1.022 0 0 0-.736-.276c-.28 0-.52.092-.722.276a.937.937 0 0 0-.29.709c0 .289.097.525.29.709.21.193.45.289.722.289.289 0 .53-.092.722-.276a.933.933 0 0 0 .303-.722.965.965 0 0 0-.29-.71"/></g></svg>