<svg viewBox="0 0 496 460" xmlns="http://www.w3.org/2000/svg" xmlns:xlink="http://www.w3.org/1999/xlink"><defs><path id="a" d="M0 0h368v212.568H0z"/><path d="m93.788 4.039-6.93 4.006c-2.245 1.3-2.241 3.418.008 4.71 2.248 1.289 2.252 3.408.008 4.705l-52.15 30.168c-2.246 1.298-5.922 1.304-8.171.013h-.002c-2.245-1.29-5.921-1.284-8.167.015l-14.606 8.45c-5.045 2.916-5.036 7.678.02 10.577l216.686 124.338c9.286 5.328 24.462 5.301 33.73-.057l90.01-52.069c5.042-2.918 5.034-7.678-.02-10.576L127.516 3.981C122.893 1.326 116.805 0 110.716 0c-6.137 0-12.277 1.347-16.928 4.039" id="c"/><path id="f" d="M.21 7.987 1.69 8l.1-7.99L.308 0z"/><path d="M.042.374C.06.414 1.402 4.434 0 8.636L1.299 9c1.522-4.568.1-8.821.04-9L.042.374Z" id="i"/><path d="M.042.376C.055.415 1.4 4.433 0 8.636L1.298 9c1.525-4.568.1-8.82.04-9L.042.376Z" id="l"/><path d="M.68 9 2 8.715C1.16 5.324 1.388.105 1.39.053L.034 0C.023.22-.203 5.442.68 9" id="o"/><path d="M.679 9 2 8.715C1.16 5.324 1.387.105 1.389.053L.033 0C.024.222-.205 5.442.68 9" id="r"/><path d="M.847.215C.3.524 0 1.1 0 1.84v.314C0 3.54 1.089 5.24 2.478 6.023l13.408 7.57c.479.27.96.407 1.396.407.32 0 .615-.07.873-.216.546-.308.845-.883.845-1.627v-.312c0-1.385-1.087-3.084-2.476-3.868L3.117.407C2.635.137 2.153 0 1.716 0c-.318 0-.612.071-.87.215m15.68 12.292L3.116 4.936c-.995-.56-1.835-1.832-1.835-2.78V1.84c0-.157.026-.441.204-.541a.487.487 0 0 1 .235-.05c.185 0 .44.065.757.24l13.406 7.572c.994.562 1.836 1.834 1.836 2.783v.312c0 .161-.026.442-.204.543a.518.518 0 0 1-.237.05c-.185 0-.44-.063-.754-.243" id="u"/><path d="M.847.218C.302.526 0 1.104 0 1.842v.314c0 1.385 1.089 3.085 2.476 3.867l13.41 7.566c.479.272.96.411 1.4.411.316 0 .61-.071.869-.216.544-.31.845-.886.845-1.628v-.31c0-1.387-1.089-3.085-2.476-3.87L3.119.408C2.637.137 2.157 0 1.718 0 1.4 0 1.104.073.847.218m15.678 12.286L3.12 4.938c-.997-.56-1.837-1.835-1.837-2.782v-.314c0-.159.024-.44.204-.54a.507.507 0 0 1 .233-.05c.189 0 .443.063.757.242l13.408 7.568c.994.563 1.837 1.835 1.837 2.783v.311c0 .162-.03.443-.209.543a.494.494 0 0 1-.231.049c-.184 0-.44-.063-.756-.244" id="x"/><path d="M15.884.406 2.477 7.976C1.089 8.76 0 10.457 0 11.845v.313c0 .74.3 1.318.847 1.624.257.145.553.218.867.218.44 0 .922-.137 1.4-.41l13.41-7.566C17.912 5.24 19 3.54 19 2.155v-.314c0-.739-.299-1.319-.843-1.625A1.765 1.765 0 0 0 17.284 0c-.437 0-.918.135-1.4.406M1.486 12.7c-.178-.101-.205-.383-.205-.542v-.313c0-.948.84-2.223 1.837-2.785l13.405-7.568c.317-.179.573-.24.757-.24.104 0 .182.019.235.046.178.103.206.384.206.543v.314c0 .947-.843 2.223-1.837 2.782l-13.41 7.569c-.317.179-.573.242-.756.242a.496.496 0 0 1-.232-.048" id="A"/><path d="M.772.202C.273.49 0 1.032 0 1.724v.294c0 1.295.993 2.886 2.263 3.617l6.891 3.984c.438.253.877.381 1.276.381.29 0 .56-.066.796-.202.5-.29.774-.83.774-1.52v-.296c0-1.295-.995-2.885-2.263-3.617L2.846.381C2.406.128 1.968 0 1.566 0c-.29 0-.56.066-.794.202M9.74 8.604 2.847 4.62c-.91-.525-1.678-1.719-1.678-2.603v-.296c0-.147.025-.41.187-.506a.424.424 0 0 1 .215-.047c.168 0 .401.06.69.227L9.153 5.38c.908.524 1.677 1.716 1.677 2.602v.296c0 .147-.024.41-.188.504a.445.445 0 0 1-.216.046c-.168 0-.4-.058-.687-.224" id="D"/><path d="M0 1.193v.308c0 1.138.969 2.596 2.16 3.255l1.68.923C5.03 6.34 6 5.947 6 4.807V4.5c0-1.138-.969-2.596-2.162-3.253L2.16.32C1.767.103 1.4 0 1.083 0 .435 0 0 .429 0 1.193" id="G"/><path d="M.813.204C.288.496 0 1.044 0 1.747v.299c0 1.317 1.05 2.928 2.387 3.672l1.612.895C4.46 6.87 4.923 7 5.345 7c.306 0 .59-.067.839-.205C6.71 6.5 7 5.954 7 5.253v-.3c0-1.314-1.05-2.927-2.387-3.67L3.001.386C2.537.128 2.074 0 1.652 0c-.306 0-.591.067-.84.204m3.803 5.38-1.612-.898c-.96-.53-1.77-1.742-1.77-2.64v-.299c0-.15.026-.419.198-.515.143-.075.48-.078.952.183l1.614.899c.958.53 1.769 1.74 1.769 2.639v.3c0 .149-.025.417-.198.512a.485.485 0 0 1-.228.046c-.177 0-.422-.06-.725-.228" id="J"/><path id="M" d="M.196.016.322 8l1.482-.014L1.676 0z"/><path id="P" d="M.196.016.322 8l1.482-.016L1.676 0z"/><path id="S" d="M.209 7.987 1.689 8 1.791.013.309 0z"/><path id="V" d="M.209 7.987 1.689 8 1.791.012.309 0z"/><path d="M3.242.744c-.488.286-.828.592-1.027.916-.198.324-.24.689-.125 1.088l-.053.031-1.145-.494L0 2.81 10.503 9l1.098-.646-2.984-1.758c-.38-.225-.806-.446-1.283-.664l.08-.047a5.673 5.673 0 0 0 1.787-.105 5.335 5.335 0 0 0 1.553-.608c.943-.556 1.351-1.184 1.223-1.887-.126-.7-.786-1.403-1.977-2.104C8.815.481 7.63.093 6.452.014A6.185 6.185 0 0 0 6.016 0a5.36 5.36 0 0 0-2.774.744m4.17 4.539c-.78-.059-1.677-.388-2.698-.989l-.243-.144c-.885-.53-1.37-1.018-1.448-1.454-.08-.437.25-.873.993-1.308.64-.38 1.381-.532 2.221-.458.837.076 1.709.38 2.613.912.89.526 1.412 1.042 1.563 1.552.152.508-.084.943-.71 1.313-.66.391-1.334.586-2.017.586-.09 0-.184-.004-.275-.01" id="Y"/><path d="M4.055.002c-.749.017-1.53.264-2.338.737a5.16 5.16 0 0 0-1.046.791c-.293.293-.518.59-.671.895l1.103.275c.366-.623.834-1.098 1.399-1.43.504-.294.997-.435 1.48-.42.485.016.992.18 1.524.49l.42.246-1.112.696C2.685 3.604 2.31 4.665 3.68 5.467A3.79 3.79 0 0 0 5.732 6a4.374 4.374 0 0 0 2.103-.623c.505-.296.848-.586 1.034-.87.187-.286.236-.65.15-1.099l.048-.027 1.172.445L11 3.38 6.366.67C5.604.224 4.862 0 4.142 0c-.029 0-.059 0-.087.002m.714 4.841c-.474-.277-.643-.587-.509-.931.14-.343.599-.762 1.39-1.257l.984-.627.613.358c.632.372.94.764.926 1.183-.015.42-.343.816-.983 1.19a2.636 2.636 0 0 1-1.235.383c-.032.002-.065.002-.098.002-.382 0-.746-.1-1.088-.301" id="ab"/><path d="M5.35.689c1.706 2.233 2.73 3.56 3.074 3.988.345.426.596.721.755.885l-.05.031c-.478-.195-1.333-.467-2.563-.817L1.12 3.286 0 3.975l9.722 2.553.599.84c.5.684.39 1.248-.33 1.687-.284.176-.566.32-.849.43l.837.515c.383-.147.732-.32 1.051-.514.572-.352.892-.747.958-1.188.067-.443-.139-.991-.622-1.647L6.473 0 5.351.689Z" id="ae"/><path d="M32.346 0 .652.048A.66.66 0 0 0 0 .716L.012 49.24H.02c.069.988.79 2.017 2.164 2.827l9.538 5.64c2.644 1.562 6.636 1.731 8.924.379l10.82-6.396c1.1-.652 1.59-1.537 1.524-2.45H33V.668c0-.37-.29-.668-.652-.668h-.002" id="ah"/><path id="ak" d="M0 460h496V0H0z"/><path id="am" d="M.017 0h1.966v43H.017z"/><path d="M.649.048c-.36 0-.65.3-.649.665l.012 14.572h.006c.072.985.793 2.007 2.164 2.816l9.54 5.615c2.641 1.551 6.637 1.722 8.925.375l10.82-6.368c1.1-.646 1.588-1.526 1.525-2.438H33V.665A.659.659 0 0 0 32.346 0L.65.048Z" id="ap"/><path id="as" d="M0 460h496V0H0z"/><path id="au" d="M.015 0h1.97v9H.015z"/><path d="M32.345 0 .652.05C.291.054 0 .359 0 .738l.012 10.262h.01c.07 1.015.79 2.067 2.163 2.897l9.538 5.78c2.642 1.602 6.636 1.774 8.923.388l10.82-6.556c1.1-.665 1.588-1.572 1.524-2.509H33V.684C33 .307 32.707 0 32.346 0h-.001" id="ax"/><path id="aA" d="M0 0h35.68v21.524H0z"/><path id="aC" d="M0 460h496V0H0z"/><path id="aE" d="M.015 0h1.97v5H.015z"/><path d="M4.139 2.23C1.974 3.303.6 4.619 0 6c.601 1.382 1.974 2.698 4.139 3.77 5.997 2.973 15.723 2.973 21.72 0C28.026 8.696 29.397 7.382 30 6c-.603-1.382-1.974-2.698-4.14-3.77C22.86.745 18.93 0 14.997 0c-3.93 0-7.86.744-10.86 2.23" id="aH"/><path id="aK" d="M.016 0h1.968v5H.016z"/><path id="aN" d="M.015 0h1.97v5H.015z"/><path id="aQ" d="M.016 0h1.968v3H.016z"/><path id="aT" d="M.015 0h1.97v5H.015z"/><path d="M1.958 8.475c-7.554 13.943 9.187 26.01 9.187 26.01l.007-.01c2.46 2.086 6.19 2.113 10.32-.426 7.14-4.389 12.746-14.75 12.521-23.143-.129-4.853-2.186-7.97-5.273-8.899l.005-.009S23.585 0 17.577 0C11.97 0 5.607 1.741 1.957 8.475" id="aW"/><path d="M.116 19.527h.01C-.492 22.545 1.16 25.685 5.115 28c6.84 4 17.929 4 24.77 0 3.954-2.315 5.607-5.455 4.989-8.473h.008S32.428.01 17.5 0C2.572-.009.116 19.527.116 19.527" id="aZ"/><path d="M12.302 7.177c-16.403 9.566-16.403 25.079 0 34.647 16.4 9.568 42.993 9.568 59.395 0 16.404-9.568 16.404-25.081 0-34.65C63.496 2.393 52.75 0 42.001 0c-10.75 0-21.498 2.392-29.7 7.177" id="bc"/><path d="M2.344 1.318c-3.125 1.756-3.125 4.606 0 6.365 3.124 1.756 8.188 1.756 11.312 0 3.125-1.759 3.125-4.609 0-6.365C12.094.438 10.046 0 8.001 0 5.953 0 3.906.439 2.344 1.318" id="bf"/><path d="M2.262 6.58c-3.805 8.205-2.696 20.863 2.476 28.273 2.992 4.285 6.684 5.859 10.008 4.854l.001.014s21.664-4.74 20.18-21.778C33.445.904 11.27.037 11.27.037l.001.012A6.892 6.892 0 0 0 10.463 0c-3.158 0-6.171 2.21-8.2 6.58" id="bi"/><path d="M9.796.1C5.05 6.55 2.095 13.844.33 19.618c-1.54 6.653 2.338 13.755 11.333 18.866 7.502 4.264 17.28 6.427 27.111 6.517 3.854.033 7.42-2.017 9.29-5.335l.092-.16a14.146 14.146 0 0 0-.486-14.765c-1.683-2.557-4.551-4.177-7.647-4.155-7.756.059-15.543-1.587-21.46-4.95-7.207-4.094-10-9.904-8.327-15.307.06-.183-.089-.328-.242-.328a.24.24 0 0 0-.197.1" id="bl"/><path d="M15.35 1.285 10.28 7.178c-3.254 3.782-5.658 8.244-6.916 13.077-7.067 27.167-.824 38.58-.723 38.763 2.775 2.65 6.133 5.151 10.084 7.438 15.66 9.068 37.045 12.79 57.415 11.18 4.902-13.66 4.1-30.194 3.127-39.155a56.105 56.105 0 0 0-2.414-11.195L66.7 14.428c-.502-1.557-1.968-2.567-3.599-2.54-21.716.343-37.112-7.67-42.983-11.323A3.71 3.71 0 0 0 18.149 0c-1.043 0-2.073.44-2.8 1.285" id="bo"/><linearGradient x1="0%" y1="50%" x2="100%" y2="50%" id="d"><stop stop-color="#BFEDFF" offset="0%"/><stop stop-color="#E8FFF6" offset="100%"/></linearGradient><linearGradient x1="10.49%" y1="49.984%" x2="89.46%" y2="49.984%" id="g"><stop stop-color="#BFEDFF" offset="0%"/><stop stop-color="#E8FFF6" offset="100%"/></linearGradient><linearGradient x1=".055%" y1="50.006%" x2="100.033%" y2="50.006%" id="j"><stop stop-color="#BFEDFF" offset="0%"/><stop stop-color="#E8FFF6" offset="100%"/></linearGradient><linearGradient x1="-.036%" y1="50.007%" x2="99.995%" y2="50.007%" id="m"><stop stop-color="#BFEDFF" offset="0%"/><stop stop-color="#E8FFF6" offset="100%"/></linearGradient><linearGradient x1="-.008%" y1="49.992%" x2="100.046%" y2="49.992%" id="p"><stop stop-color="#BFEDFF" offset="0%"/><stop stop-color="#E8FFF6" offset="100%"/></linearGradient><linearGradient x1=".026%" y1="49.993%" x2="99.936%" y2="49.993%" id="s"><stop stop-color="#BFEDFF" offset="0%"/><stop stop-color="#E8FFF6" offset="100%"/></linearGradient><linearGradient x1=".007%" y1="50.002%" x2="99.998%" y2="50.002%" id="v"><stop stop-color="#BFEDFF" offset="0%"/><stop stop-color="#E8FFF6" offset="100%"/></linearGradient><linearGradient x1=".007%" y1="50.004%" x2="99.998%" y2="50.004%" id="y"><stop stop-color="#BFEDFF" offset="0%"/><stop stop-color="#E8FFF6" offset="100%"/></linearGradient><linearGradient x1=".005%" y1="49.998%" x2="100.004%" y2="49.998%" id="B"><stop stop-color="#BFEDFF" offset="0%"/><stop stop-color="#E8FFF6" offset="100%"/></linearGradient><linearGradient x1="-.004%" y1="50%" x2="99.996%" y2="50%" id="E"><stop stop-color="#BFEDFF" offset="0%"/><stop stop-color="#E8FFF6" offset="100%"/></linearGradient><linearGradient x1="-.012%" y1="50.012%" x2="99.985%" y2="50.012%" id="H"><stop stop-color="#BFEDFF" offset="0%"/><stop stop-color="#E8FFF6" offset="100%"/></linearGradient><linearGradient x1="-.019%" y1="49.997%" x2="99.993%" y2="49.997%" id="K"><stop stop-color="#BFEDFF" offset="0%"/><stop stop-color="#E8FFF6" offset="100%"/></linearGradient><linearGradient x1="9.77%" y1="49.986%" x2="90.18%" y2="49.986%" id="N"><stop stop-color="#BFEDFF" offset="0%"/><stop stop-color="#E8FFF6" offset="100%"/></linearGradient><linearGradient x1="9.801%" y1="49.992%" x2="90.221%" y2="49.992%" id="Q"><stop stop-color="#BFEDFF" offset="0%"/><stop stop-color="#E8FFF6" offset="100%"/></linearGradient><linearGradient x1="10.429%" y1="50.003%" x2="89.499%" y2="50.003%" id="T"><stop stop-color="#BFEDFF" offset="0%"/><stop stop-color="#E8FFF6" offset="100%"/></linearGradient><linearGradient x1="10.47%" y1="49.981%" x2="89.44%" y2="49.981%" id="W"><stop stop-color="#BFEDFF" offset="0%"/><stop stop-color="#E8FFF6" offset="100%"/></linearGradient><linearGradient x1="-.003%" y1="49.994%" x2="100.005%" y2="49.994%" id="Z"><stop stop-color="#BFEDFF" offset="0%"/><stop stop-color="#E8FFF6" offset="100%"/></linearGradient><linearGradient x1="0%" y1="49.989%" x2="100.006%" y2="49.989%" id="ac"><stop stop-color="#BFEDFF" offset="0%"/><stop stop-color="#E8FFF6" offset="100%"/></linearGradient><linearGradient x1="-.009%" y1="49.994%" x2="100.008%" y2="49.994%" id="af"><stop stop-color="#BFEDFF" offset="0%"/><stop stop-color="#E8FFF6" offset="100%"/></linearGradient><linearGradient x1="-.002%" y1="49.999%" x2="99.999%" y2="49.999%" id="ai"><stop stop-color="#BFEDFF" offset="0%"/><stop stop-color="#E8FFF6" offset="100%"/></linearGradient><linearGradient x1=".83%" y1="49.997%" x2="99.22%" y2="49.997%" id="an"><stop stop-color="#BFEDFF" offset="0%"/><stop stop-color="#E8FFF6" offset="100%"/></linearGradient><linearGradient x1="-.005%" y1="50%" x2="100.001%" y2="50%" id="aq"><stop stop-color="#BFEDFF" offset="0%"/><stop stop-color="#E8FFF6" offset="100%"/></linearGradient><linearGradient x1=".751%" y1="50.006%" x2="99.141%" y2="50.006%" id="av"><stop stop-color="#BFEDFF" offset="0%"/><stop stop-color="#E8FFF6" offset="100%"/></linearGradient><linearGradient x1="0%" y1="50.001%" x2="99.996%" y2="50.001%" id="ay"><stop stop-color="#BFEDFF" offset="0%"/><stop stop-color="#E8FFF6" offset="100%"/></linearGradient><linearGradient x1=".844%" y1="49.983%" x2="99.234%" y2="49.983%" id="aF"><stop stop-color="#BFEDFF" offset="0%"/><stop stop-color="#E8FFF6" offset="100%"/></linearGradient><linearGradient x1="-.003%" y1="49.999%" x2="99.997%" y2="49.999%" id="aI"><stop stop-color="#BFEDFF" offset="0%"/><stop stop-color="#E8FFF6" offset="100%"/></linearGradient><linearGradient x1=".846%" y1="50.021%" x2="99.236%" y2="50.021%" id="aL"><stop stop-color="#BFEDFF" offset="0%"/><stop stop-color="#E8FFF6" offset="100%"/></linearGradient><linearGradient x1=".836%" y1="50.026%" x2="99.226%" y2="50.026%" id="aO"><stop stop-color="#BFEDFF" offset="0%"/><stop stop-color="#E8FFF6" offset="100%"/></linearGradient><linearGradient x1=".795%" y1="50.032%" x2="99.185%" y2="50.032%" id="aR"><stop stop-color="#BFEDFF" offset="0%"/><stop stop-color="#E8FFF6" offset="100%"/></linearGradient><linearGradient x1=".765%" y1="49.996%" x2="99.155%" y2="49.996%" id="aU"><stop stop-color="#BFEDFF" offset="0%"/><stop stop-color="#E8FFF6" offset="100%"/></linearGradient><linearGradient x1=".001%" y1="50%" x2="100.002%" y2="50%" id="aX"><stop stop-color="#BFEDFF" offset="0%"/><stop stop-color="#E8FFF6" offset="100%"/></linearGradient><linearGradient x1=".002%" y1="50%" x2="99.998%" y2="50%" id="ba"><stop stop-color="#BFEDFF" offset="0%"/><stop stop-color="#E8FFF6" offset="100%"/></linearGradient><linearGradient x1="-.001%" y1="49.998%" x2="99.999%" y2="49.998%" id="bd"><stop stop-color="#BFEDFF" offset="0%"/><stop stop-color="#E8FFF6" offset="100%"/></linearGradient><linearGradient x1=".001%" y1="49.99%" x2="99.998%" y2="49.99%" id="bg"><stop stop-color="#BFEDFF" offset="0%"/><stop stop-color="#E8FFF6" offset="100%"/></linearGradient><linearGradient x1="-.001%" y1="50.001%" x2="100%" y2="50.001%" id="bj"><stop stop-color="#BFEDFF" offset="0%"/><stop stop-color="#E8FFF6" offset="100%"/></linearGradient><linearGradient x1="0%" y1="49.999%" x2="100%" y2="49.999%" id="bm"><stop stop-color="#BFEDFF" offset="0%"/><stop stop-color="#E8FFF6" offset="100%"/></linearGradient><linearGradient x1=".001%" y1="50%" x2="100%" y2="50%" id="bp"><stop stop-color="#BFEDFF" offset="0%"/><stop stop-color="#E8FFF6" offset="100%"/></linearGradient></defs><g fill="none" fill-rule="evenodd"><path d="M4.291 322.736c1.598 2.392 4.109 4.687 7.554 6.676l214.699 123.976c11.616 6.706 29.187 7.433 39.245 1.62l94.012-54.32c4.251-2.459 6.455-5.691 6.733-9.11l.017-.009c1.056-5.633-.565-12.108-.565-12.108l-6.255.352-.007.02a29.585 29.585 0 0 0-2.745-1.814L142.278 254.045c-11.615-6.71-29.186-7.433-39.243-1.624L9.023 306.745l-7.148-.375s-2.73 7.742 1.973 15.694c.027.047.053.076.078.122.104.167.217.333.33.501l.035.05" fill="#2565C1"/><g transform="translate(0 247.432)"><mask id="b" fill="#fff"><use xlink:href="#a"/></mask><path d="m5.176 74.67.02.03c1.576 2.36 3.997 4.493 7.193 6.334l214.7 123.977c11.298 6.523 28.412 7.25 38.154 1.624l94.012-54.324c3.79-2.191 5.932-5.045 6.195-8.252l.115-.62c.634-4.026-.08-8.434-.444-10.27l-4.57.258-.228.739-1.245-.887a27.485 27.485 0 0 0-2.643-1.746L141.734 7.556C130.44 1.03 113.32.306 103.58 5.933L9.288 60.418l-6.599-.345c-.5 2.075-1.445 8.014 2.099 14.003.137.221.212.333.285.442l-.79.776.893-.623ZM248.744 212.57c-7.916 0-16.252-1.92-22.746-5.667l-214.7-123.98c-3.482-2.009-6.144-4.365-7.908-7.003l-.129-.19a12.721 12.721 0 0 1-.265-.407C-1.995 66.895.73 58.912.846 58.576l.273-.77 7.638.403L102.49 4.046c10.344-5.976 28.435-5.247 40.335 1.62l214.699 123.977c.815.47 1.616.992 2.5 1.629l6.802-.381.22.871c.067.276 1.663 6.775.578 12.579l-.018.093c-.393 3.872-2.897 7.243-7.26 9.764l-94.012 54.323c-4.698 2.714-10.998 4.048-17.59 4.048Z" fill="#2565C1" mask="url(#b)"/></g><path d="m8.627 297.313 94.011-54.323c10.058-5.81 27.629-5.087 39.244 1.623l214.7 123.974c11.616 6.708 12.879 16.857 2.82 22.668l-94.01 54.323c-10.057 5.81-27.628 5.084-39.244-1.622L11.448 319.98c-11.616-6.706-12.879-16.856-2.821-22.667" fill="#FFF"/><path d="M119.685 240.146c-6.194 0-12.1 1.245-16.501 3.787L9.172 298.257c-4.027 2.327-6.245 5.487-6.245 8.901 0 4.223 3.306 8.55 9.065 11.879l214.701 123.975c11.297 6.523 28.413 7.247 38.153 1.623l94.012-54.325c4.027-2.327 6.246-5.488 6.246-8.9 0-4.222-3.305-8.552-9.066-11.88L141.337 245.558c-6.194-3.578-14.136-5.41-21.652-5.41m128.662 210.42c-7.915 0-16.251-1.919-22.744-5.666l-214.7-123.976C4.45 317.197.748 312.18.748 307.158c0-4.226 2.605-8.057 7.335-10.788l94.012-54.325c10.34-5.974 28.436-5.247 40.335 1.623l214.699 123.977c6.452 3.725 10.155 8.741 10.155 13.764 0 4.225-2.605 8.055-7.333 10.788l-94.012 54.323c-4.7 2.716-11 4.048-17.591 4.048" fill="#2565C1"/><g transform="translate(10 247)"><mask id="e" fill="#fff"><use xlink:href="#c"/></mask><path d="m93.788 4.039-6.93 4.006c-2.245 1.3-2.241 3.418.008 4.71 2.248 1.289 2.252 3.408.008 4.705l-52.15 30.168c-2.246 1.298-5.922 1.304-8.171.013h-.002c-2.245-1.29-5.921-1.284-8.167.015l-14.606 8.45c-5.045 2.916-5.036 7.678.02 10.577l216.686 124.338c9.286 5.328 24.462 5.301 33.73-.057l90.01-52.069c5.042-2.918 5.034-7.678-.02-10.576L127.516 3.981C122.893 1.326 116.805 0 110.716 0c-6.137 0-12.277 1.347-16.928 4.039" fill="url(#d)" mask="url(#e)"/></g><g fill="#2565C1"><path d="M31.627 294.047c-1.299 0-2.599.28-3.565.84l-14.64 8.485c-2.094 1.213-3.244 2.766-3.244 4.371 0 1.61 1.16 3.16 3.259 4.366l217.2 124.87c9.027 5.19 23.706 5.166 32.719-.06l90.223-52.289c2.093-1.213 3.243-2.766 3.243-4.373 0-1.607-1.16-3.158-3.259-4.364l-217.2-124.87c-9.03-5.19-23.708-5.164-32.719.06l-6.945 4.025c-.727.42-1.142.938-1.142 1.422.001.482.419.997 1.147 1.418 1.42.815 2.235 2.02 2.239 3.301.001 1.283-.81 2.49-2.227 3.312L44.44 294.858c-2.595 1.503-6.674 1.514-9.28.015-.957-.551-2.245-.826-3.533-.826M246.93 443c-6.294 0-12.583-1.376-17.38-4.134L12.351 313.996C9.548 312.389 8 310.167 8 307.749c-.005-2.418 1.533-4.641 4.33-6.26l14.641-8.487c2.599-1.505 6.672-1.515 9.278-.017 1.924 1.109 5.176 1.102 7.098-.012l52.274-30.296c.728-.42 1.144-.94 1.144-1.422-.002-.484-.42-1.001-1.15-1.419-1.42-.818-2.234-2.02-2.236-3.302-.002-1.281.81-2.488 2.227-3.31l6.945-4.026c9.612-5.571 25.268-5.6 34.899-.061l217.198 124.868c2.804 1.612 4.352 3.832 4.352 6.25.005 2.416-1.533 4.641-4.33 6.262l-90.221 52.29c-4.826 2.796-11.175 4.194-17.518 4.194"/><path d="M78.184 265.508c-1.28-.738-1.282-1.937-.002-2.675 1.28-.738 3.356-.74 4.634 0 1.28.738 1.28 1.935 0 2.675-1.278.74-3.352.74-4.632 0M43.942 282.605l27.242-15.73c1.107-.639 3.044-.56 4.323.179 1.28.738 1.42 1.857.311 2.496l-27.242 15.73c-1.108.64-3.043.558-4.323-.178-1.28-.74-1.42-1.857-.31-2.497"/></g><g transform="translate(245 450)"><mask id="h" fill="#fff"><use xlink:href="#f"/></mask><path fill="url(#g)" mask="url(#h)" d="M.21 7.987 1.69 8l.1-7.99L.308 0z"/></g><g transform="translate(360 391)"><mask id="k" fill="#fff"><use xlink:href="#i"/></mask><path d="M.042.374C.06.414 1.402 4.434 0 8.636L1.299 9c1.522-4.568.1-8.821.04-9L.042.374Z" fill="url(#j)" mask="url(#k)"/></g><g transform="translate(356 393)"><mask id="n" fill="#fff"><use xlink:href="#l"/></mask><path d="M.042.376C.055.415 1.4 4.433 0 8.636L1.298 9c1.525-4.568.1-8.82.04-9L.042.376Z" fill="url(#m)" mask="url(#n)"/></g><g transform="translate(11 321)"><mask id="q" fill="#fff"><use xlink:href="#o"/></mask><path d="M.68 9 2 8.715C1.16 5.324 1.388.105 1.39.053L.034 0C.023.22-.203 5.442.68 9" fill="url(#p)" mask="url(#q)"/></g><g transform="translate(7 319)"><mask id="t" fill="#fff"><use xlink:href="#r"/></mask><path d="M.679 9 2 8.715C1.16 5.324 1.387.105 1.389.053L.033 0C.024.222-.205 5.442.68 9" fill="url(#s)" mask="url(#t)"/></g><g transform="translate(56 350)"><mask id="w" fill="#fff"><use xlink:href="#u"/></mask><path d="M.847.215C.3.524 0 1.1 0 1.84v.314C0 3.54 1.089 5.24 2.478 6.023l13.408 7.57c.479.27.96.407 1.396.407.32 0 .615-.07.873-.216.546-.308.845-.883.845-1.627v-.312c0-1.385-1.087-3.084-2.476-3.868L3.117.407C2.635.137 2.153 0 1.716 0c-.318 0-.612.071-.87.215m15.68 12.292L3.116 4.936c-.995-.56-1.835-1.832-1.835-2.78V1.84c0-.157.026-.441.204-.541a.487.487 0 0 1 .235-.05c.185 0 .44.065.757.24l13.406 7.572c.994.562 1.836 1.834 1.836 2.783v.312c0 .161-.026.442-.204.543a.518.518 0 0 1-.237.05c-.185 0-.44-.063-.754-.243" fill="url(#v)" mask="url(#w)"/></g><g transform="translate(78 362)"><mask id="z" fill="#fff"><use xlink:href="#x"/></mask><path d="M.847.218C.302.526 0 1.104 0 1.842v.314c0 1.385 1.089 3.085 2.476 3.867l13.41 7.566c.479.272.96.411 1.4.411.316 0 .61-.071.869-.216.544-.31.845-.886.845-1.628v-.31c0-1.387-1.089-3.085-2.476-3.87L3.119.408C2.637.137 2.157 0 1.718 0 1.4 0 1.104.073.847.218m15.678 12.286L3.12 4.938c-.997-.56-1.837-1.835-1.837-2.782v-.314c0-.159.024-.44.204-.54a.507.507 0 0 1 .233-.05c.189 0 .443.063.757.242l13.408 7.568c.994.563 1.837 1.835 1.837 2.783v.311c0 .162-.03.443-.209.543a.494.494 0 0 1-.231.049c-.184 0-.44-.063-.756-.244" fill="url(#y)" mask="url(#z)"/></g><g transform="translate(303 417)"><mask id="C" fill="#fff"><use xlink:href="#A"/></mask><path d="M15.884.406 2.477 7.976C1.089 8.76 0 10.457 0 11.845v.313c0 .74.3 1.318.847 1.624.257.145.553.218.867.218.44 0 .922-.137 1.4-.41l13.41-7.566C17.912 5.24 19 3.54 19 2.155v-.314c0-.739-.299-1.319-.843-1.625A1.765 1.765 0 0 0 17.284 0c-.437 0-.918.135-1.4.406M1.486 12.7c-.178-.101-.205-.383-.205-.542v-.313c0-.948.84-2.223 1.837-2.785l13.405-7.568c.317-.179.573-.24.757-.24.104 0 .182.019.235.046.178.103.206.384.206.543v.314c0 .947-.843 2.223-1.837 2.782l-13.41 7.569c-.317.179-.573.242-.756.242a.496.496 0 0 1-.232-.048" fill="url(#B)" mask="url(#C)"/></g><g transform="translate(38 338)"><mask id="F" fill="#fff"><use xlink:href="#D"/></mask><path d="M.772.202C.273.49 0 1.032 0 1.724v.294c0 1.295.993 2.886 2.263 3.617l6.891 3.984c.438.253.877.381 1.276.381.29 0 .56-.066.796-.202.5-.29.774-.83.774-1.52v-.296c0-1.295-.995-2.885-2.263-3.617L2.846.381C2.406.128 1.968 0 1.566 0c-.29 0-.56.066-.794.202M9.74 8.604 2.847 4.62c-.91-.525-1.678-1.719-1.678-2.603v-.296c0-.147.025-.41.187-.506a.424.424 0 0 1 .215-.047c.168 0 .401.06.69.227L9.153 5.38c.908.524 1.677 1.716 1.677 2.602v.296c0 .147-.024.41-.188.504a.445.445 0 0 1-.216.046c-.168 0-.4-.058-.687-.224" fill="url(#E)" mask="url(#F)"/></g><g transform="translate(44 342)"><mask id="I" fill="#fff"><use xlink:href="#G"/></mask><path d="M0 1.193v.308c0 1.138.969 2.596 2.16 3.255l1.68.923C5.03 6.34 6 5.947 6 4.807V4.5c0-1.138-.969-2.596-2.162-3.253L2.16.32C1.767.103 1.4 0 1.083 0 .435 0 0 .429 0 1.193" fill="url(#H)" mask="url(#I)"/></g><g transform="translate(43 342)"><mask id="L" fill="#fff"><use xlink:href="#J"/></mask><path d="M.813.204C.288.496 0 1.044 0 1.747v.299c0 1.317 1.05 2.928 2.387 3.672l1.612.895C4.46 6.87 4.923 7 5.345 7c.306 0 .59-.067.839-.205C6.71 6.5 7 5.954 7 5.253v-.3c0-1.314-1.05-2.927-2.387-3.67L3.001.386C2.537.128 2.074 0 1.652 0c-.306 0-.591.067-.84.204m3.803 5.38-1.612-.898c-.96-.53-1.77-1.742-1.77-2.64v-.299c0-.15.026-.419.198-.515.143-.075.48-.078.952.183l1.614.899c.958.53 1.769 1.74 1.769 2.639v.3c0 .149-.025.417-.198.512a.485.485 0 0 1-.228.046c-.177 0-.422-.06-.725-.228" fill="url(#K)" mask="url(#L)"/></g><g transform="translate(249 451)"><mask id="O" fill="#fff"><use xlink:href="#M"/></mask><path fill="url(#N)" mask="url(#O)" d="M.196.016.322 8l1.482-.014L1.676 0z"/></g><g transform="translate(264 447)"><mask id="R" fill="#fff"><use xlink:href="#P"/></mask><path fill="url(#Q)" mask="url(#R)" d="M.196.016.322 8l1.482-.016L1.676 0z"/></g><g transform="translate(232 448)"><mask id="U" fill="#fff"><use xlink:href="#S"/></mask><path fill="url(#T)" mask="url(#U)" d="M.209 7.987 1.689 8 1.791.013.309 0z"/></g><g transform="translate(214 437)"><mask id="X" fill="#fff"><use xlink:href="#V"/></mask><path fill="url(#W)" mask="url(#X)" d="M.209 7.987 1.689 8 1.791.012.309 0z"/></g><path fill="#FFF" d="m273.91 397.85-2.179-1.271.84-1.464 2.179 1.271zM281.645 402.358l-3.867-2.254.84-1.465 3.865 2.254-.838 1.465Zm7.734 4.51-3.868-2.256.84-1.465 3.868 2.254-.84 1.466Zm7.733 4.507-3.867-2.254.84-1.465 3.867 2.254-.84 1.465ZM303.162 414.899l-2.18-1.271.839-1.467 2.179 1.273z"/><path d="m239.366 414.396 61.461-35.51-20.613-12.105-61.46 35.51 20.612 12.105Zm64.213-35.5L239.361 416 216 402.282l64.22-37.105 23.36 13.719Z" fill="#FFF"/><path fill="#2565C1" d="m302.204 373.911-62.842 36.306-21.985-12.911L280.217 361z"/><g transform="translate(245 386)"><mask id="aa" fill="#fff"><use xlink:href="#Y"/></mask><path d="M3.242.744c-.488.286-.828.592-1.027.916-.198.324-.24.689-.125 1.088l-.053.031-1.145-.494L0 2.81 10.503 9l1.098-.646-2.984-1.758c-.38-.225-.806-.446-1.283-.664l.08-.047a5.673 5.673 0 0 0 1.787-.105 5.335 5.335 0 0 0 1.553-.608c.943-.556 1.351-1.184 1.223-1.887-.126-.7-.786-1.403-1.977-2.104C8.815.481 7.63.093 6.452.014A6.185 6.185 0 0 0 6.016 0a5.36 5.36 0 0 0-2.774.744m4.17 4.539c-.78-.059-1.677-.388-2.698-.989l-.243-.144c-.885-.53-1.37-1.018-1.448-1.454-.08-.437.25-.873.993-1.308.64-.38 1.381-.532 2.221-.458.837.076 1.709.38 2.613.912.89.526 1.412 1.042 1.563 1.552.152.508-.084.943-.71 1.313-.66.391-1.334.586-2.017.586-.09 0-.184-.004-.275-.01" fill="url(#Z)" mask="url(#aa)"/></g><g transform="translate(254 382)"><mask id="ad" fill="#fff"><use xlink:href="#ab"/></mask><path d="M4.055.002c-.749.017-1.53.264-2.338.737a5.16 5.16 0 0 0-1.046.791c-.293.293-.518.59-.671.895l1.103.275c.366-.623.834-1.098 1.399-1.43.504-.294.997-.435 1.48-.42.485.016.992.18 1.524.49l.42.246-1.112.696C2.685 3.604 2.31 4.665 3.68 5.467A3.79 3.79 0 0 0 5.732 6a4.374 4.374 0 0 0 2.103-.623c.505-.296.848-.586 1.034-.87.187-.286.236-.65.15-1.099l.048-.027 1.172.445L11 3.38 6.366.67C5.604.224 4.862 0 4.142 0c-.029 0-.059 0-.087.002m.714 4.841c-.474-.277-.643-.587-.509-.931.14-.343.599-.762 1.39-1.257l.984-.627.613.358c.632.372.94.764.926 1.183-.015.42-.343.816-.983 1.19a2.636 2.636 0 0 1-1.235.383c-.032.002-.065.002-.098.002-.382 0-.746-.1-1.088-.301" fill="url(#ac)" mask="url(#ad)"/></g><g transform="translate(261 376)"><mask id="ag" fill="#fff"><use xlink:href="#ae"/></mask><path d="M5.35.689c1.706 2.233 2.73 3.56 3.074 3.988.345.426.596.721.755.885l-.05.031c-.478-.195-1.333-.467-2.563-.817L1.12 3.286 0 3.975l9.722 2.553.599.84c.5.684.39 1.248-.33 1.687-.284.176-.566.32-.849.43l.837.515c.383-.147.732-.32 1.051-.514.572-.352.892-.747.958-1.188.067-.443-.139-.991-.622-1.647L6.473 0 5.351.689Z" fill="url(#af)" mask="url(#ag)"/></g><g fill="#2565C1"><path d="M140.322 267.665c-.8 0-1.552.154-2.1.47l-87.96 50.595c-.22.126-.586.388-.586.731 0 .286.265.746 1.004 1.172l28.537 16.413c1.46.842 3.745.95 4.977.24l87.959-50.596c.22-.125.588-.389.588-.73 0-.286-.264-.744-1.004-1.17L143.2 268.375c-.812-.467-1.877-.71-2.878-.71m-58.24 71.757c-1.288 0-2.633-.316-3.705-.932l-28.533-16.414c-1.17-.673-1.844-1.626-1.844-2.613 0-.875.505-1.648 1.425-2.178l87.959-50.594c1.75-1.005 4.671-.904 6.654.239l28.535 16.415c1.17.674 1.844 1.626 1.844 2.615-.002.875-.507 1.647-1.426 2.175L85.03 338.73c-.802.463-1.855.691-2.95.691M180.923 291.02c-.797 0-1.552.154-2.1.47l-87.959 50.595c-.22.127-.588.389-.588.73 0 .287.264.747 1.004 1.173l6.185 3.556c1.46.84 3.742.951 4.978.24l87.957-50.597c.221-.127.59-.39.59-.732 0-.285-.266-.743-1.007-1.17l-6.183-3.555c-.81-.468-1.878-.71-2.877-.71m-80.593 58.898c-1.288 0-2.631-.312-3.703-.93l-6.183-3.557c-1.17-.672-1.844-1.626-1.844-2.616 0-.872.507-1.646 1.426-2.175l87.96-50.593c1.747-1.01 4.67-.903 6.652.238l6.183 3.556c1.17.673 1.844 1.627 1.844 2.614 0 .874-.507 1.647-1.427 2.177l-87.955 50.595c-.806.463-1.858.691-2.953.691M239.424 324.673c-.8 0-1.554.153-2.1.468l-87.961 50.596c-.219.127-.585.389-.585.729 0 .287.264.745 1.004 1.173l6.181 3.555c1.462.842 3.744.952 4.98.24l87.96-50.596c.218-.127.586-.389.586-.73 0-.288-.264-.746-1.006-1.173l-6.18-3.554c-.813-.467-1.88-.708-2.88-.708m-80.595 58.896c-1.286 0-2.63-.313-3.701-.931l-6.181-3.556c-1.17-.673-1.844-1.626-1.844-2.616 0-.872.505-1.645 1.425-2.174l87.959-50.595c1.747-1.005 4.671-.897 6.654.237l6.181 3.558c1.17.672 1.842 1.627 1.842 2.614 0 .874-.505 1.646-1.424 2.177l-87.958 50.595c-.804.463-1.855.69-2.953.69"/><path d="M244.146 327.589c-.797 0-1.55.152-2.098.468l-87.96 50.595c-.218.127-.588.389-.588.732 0 .284.267.743 1.008 1.17l19.485 11.01c1.467.845 3.749.956 4.982.241l87.96-50.593c.218-.128.586-.39.586-.731 0-.286-.263-.746-1.004-1.17l-19.485-11.01c-.815-.469-1.885-.712-2.886-.712m-67.283 66.354c-1.287 0-2.632-.316-3.705-.933L153.675 382c-1.176-.673-1.849-1.628-1.849-2.616 0-.876.507-1.648 1.425-2.175l87.959-50.597c1.752-1.007 4.671-.9 6.654.24l19.486 11.01c1.175.677 1.847 1.63 1.847 2.619 0 .875-.506 1.647-1.425 2.175l-87.959 50.596c-.804.462-1.857.691-2.95.691M150.008 330.657c-.798 0-1.553.154-2.099.466l-38.05 21.888c-.22.127-.59.389-.59.732 0 .286.267.745 1.008 1.171l27.263 15.682c1.466.842 3.745.95 4.979.238l38.049-21.884c.22-.127.588-.389.588-.732 0-.285-.264-.745-1.005-1.17l-27.265-15.683c-.812-.466-1.88-.708-2.878-.708m-9.601 42.314c-1.288 0-2.633-.313-3.705-.932l-27.263-15.682c-1.17-.67-1.844-1.625-1.844-2.612 0-.876.506-1.648 1.425-2.179l38.051-21.886c1.75-1.007 4.67-.9 6.653.24l27.264 15.684c1.17.67 1.844 1.626 1.844 2.614 0 .874-.507 1.648-1.426 2.177l-38.05 21.886c-.805.461-1.857.69-2.95.69M199.919 301.946c-.8 0-1.552.154-2.102.47l-38.05 21.888c-.218.126-.586.388-.586.728 0 .287.264.747 1.004 1.173l27.263 15.684c1.465.838 3.747.95 4.982.236l38.047-21.884c.22-.127.587-.389.587-.73 0-.288-.263-.746-1.002-1.173l-27.266-15.682c-.811-.467-1.878-.71-2.877-.71m-9.605 42.315c-1.285 0-2.632-.312-3.703-.93l-27.264-15.683c-1.17-.672-1.84-1.626-1.84-2.616 0-.872.505-1.644 1.423-2.173l38.049-21.886c1.75-1.006 4.672-.905 6.655.238l27.264 15.683c1.17.673 1.842 1.628 1.842 2.617 0 .872-.505 1.644-1.425 2.173l-38.05 21.886c-.803.463-1.857.69-2.95.691M97.754 316.78l-2.626 1.511-7.19-4.137-1.157-.693-1.249-.767c0 .502-.017.84-.049 1.017l-.281 1.48-2.847-.18.815-4.136 2.159-1.242 12.425 7.147ZM96.073 310.6c1.523.876 2.748 1.429 3.672 1.655.923.23 1.697.164 2.32-.194.613-.351.72-.798.323-1.34-.397-.54-1.348-1.244-2.856-2.11-1.524-.878-2.757-1.427-3.697-1.654-.94-.225-1.713-.162-2.32.186-.618.355-.728.801-.326 1.337.399.536 1.36 1.242 2.884 2.12m6.078-3.496c2.17 1.25 3.421 2.376 3.752 3.385.33 1.01-.245 1.939-1.722 2.789-1.433.825-3.053 1.137-4.856.938-1.805-.201-3.76-.906-5.861-2.114-2.193-1.263-3.454-2.395-3.786-3.402-.333-1.006.239-1.932 1.711-2.779 1.435-.825 3.062-1.134 4.884-.931 1.82.204 3.781.91 5.878 2.114M106.009 304.884c1.523.879 2.748 1.43 3.67 1.658.925.228 1.697.162 2.32-.196.613-.352.72-.798.325-1.339-.399-.54-1.349-1.245-2.857-2.112-1.523-.876-2.756-1.427-3.698-1.652-.94-.226-1.713-.163-2.318.185-.618.356-.728.802-.328 1.338.399.534 1.362 1.24 2.886 2.118m6.076-3.493c2.17 1.247 3.421 2.376 3.752 3.385.33 1.007-.243 1.936-1.722 2.788-1.432.823-3.051 1.136-4.856.937-1.803-.202-3.758-.906-5.86-2.115-2.193-1.26-3.455-2.394-3.787-3.4-.33-1.006.24-1.933 1.713-2.78 1.434-.825 3.062-1.134 4.882-.93 1.822.203 3.783.908 5.878 2.115M115.943 299.17c1.523.877 2.748 1.43 3.672 1.656.923.228 1.696.164 2.319-.196.614-.351.72-.796.324-1.338-.397-.541-1.349-1.244-2.857-2.113-1.523-.875-2.756-1.426-3.696-1.651-.94-.225-1.713-.164-2.32.186-.618.355-.728.8-.328 1.337.4.535 1.362 1.242 2.886 2.119m6.077-3.495c2.168 1.247 3.422 2.376 3.753 3.385.33 1.007-.245 1.939-1.722 2.789-1.433.824-3.053 1.137-4.857.936-1.804-.2-3.758-.904-5.86-2.114-2.192-1.261-3.454-2.395-3.786-3.4-.333-1.006.239-1.932 1.711-2.78 1.435-.824 3.062-1.135 4.884-.93 1.82.203 3.78.907 5.877 2.114M134.888 291.098c-.237-.137-.534-.198-.892-.181-.356.015-.816.084-1.377.206l2.117 1.215c.64-.517.69-.93.152-1.24m-8.574-1.002c.25.143.54.21.875.204.334-.007.779-.07 1.333-.194l-1.996-1.151c-.623.485-.694.863-.212 1.14m11.007-.542c.899.519 1.298 1.122 1.192 1.81-.105.69-.69 1.403-1.754 2.14l1.743 1.002-1.166.67-1.708-.983a16.429 16.429 0 0 1-4.37 1.672l-2.242-1.29a19.821 19.821 0 0 0 2.427-.654c.88-.29 1.61-.585 2.189-.877l-2.636-1.516-.791.201c-1.564.39-2.838.571-3.823.543-.986-.029-1.861-.264-2.626-.705-.823-.472-1.176-1.046-1.062-1.719.112-.676.689-1.377 1.723-2.102l-1.297-.749 1.162-.67 1.267.728a17.266 17.266 0 0 1 4.3-1.574l1.189 1.604c-1.245.3-2.373.695-3.382 1.183l2.508 1.443c1.529-.392 2.684-.632 3.462-.721.78-.092 1.464-.092 2.058 0 .59.09 1.137.277 1.637.564"/><path d="m114.939 359.436-.838-1.444L157.548 333l.838 1.445zM164.968 330.376l-.838-1.443 43.448-24.994.838 1.445zM309.38 397.528c1.593 1.294.273 3.116.024 3.432-.014.017.015.034.044.027.55-.145 3.713-.907 5.96.009.033.013.069-.007.045-.026-1.59-1.294-.246-3.125.008-3.442.012-.017-.017-.034-.044-.026-.556.146-3.743.916-5.993 0-.03-.012-.066.007-.044.026M318.014 392.561c1.593 1.293.273 3.117.024 3.433-.014.017.015.034.044.025.55-.143 3.713-.906 5.96.01.033.014.068-.006.045-.025-1.59-1.295-.246-3.125.008-3.443.012-.016-.017-.033-.044-.027-.555.147-3.744.918-5.993.002-.03-.012-.066.007-.044.025M326.648 387.595c1.593 1.293.273 3.117.024 3.433-.014.017.015.034.044.025.55-.143 3.713-.906 5.962.01.03.014.066-.006.043-.025-1.59-1.295-.246-3.127.008-3.443.012-.016-.017-.033-.044-.027-.555.146-3.744.916-5.993 0-.03-.01-.066.009-.044.027M335.282 382.63c1.592 1.292.273 3.116.023 3.432-.012.017.016.034.044.025.55-.144 3.714-.906 5.961.01.032.014.068-.008.046-.027-1.591-1.293-.248-3.125.007-3.442.013-.016-.017-.033-.044-.026-.555.146-3.742.916-5.993 0-.03-.012-.066.009-.044.027M343.916 377.663c1.592 1.293.273 3.116.023 3.433-.013.015.016.032.044.025.55-.144 3.714-.906 5.963.01.03.014.066-.008.044-.027-1.591-1.293-.248-3.125.007-3.443.013-.017-.017-.033-.044-.025-.555.145-3.742.916-5.993 0-.03-.012-.067.008-.044.027M309.345 387.575c1.592 1.293.272 3.117.022 3.431-.011.017.016.034.045.027.55-.145 3.714-.907 5.962.01.03.012.066-.008.044-.027-1.591-1.292-.246-3.124.007-3.442.013-.017-.017-.034-.044-.026-.555.146-3.742.916-5.991 0-.031-.011-.068.009-.045.027M317.98 382.608c1.59 1.294.27 3.116.023 3.432-.014.017.014.034.042.027.55-.145 3.715-.907 5.963.009.03.013.066-.007.044-.026-1.591-1.294-.246-3.125.007-3.442.013-.017-.017-.034-.044-.026-.555.146-3.742.916-5.992 0-.03-.011-.068.007-.044.026M326.613 377.642c1.591 1.292.271 3.116.024 3.432-.014.017.013.034.042.025.55-.143 3.715-.905 5.963.01.03.014.066-.006.044-.025-1.591-1.294-.246-3.125.007-3.442.013-.017-.017-.034-.045-.027-.554.147-3.742.916-5.99.001-.031-.012-.069.007-.045.026M335.247 372.675c1.59 1.293.271 3.117.024 3.433-.014.017.013.034.042.025.55-.143 3.715-.906 5.962.01.03.014.067-.006.045-.027-1.592-1.293-.246-3.125.006-3.44.014-.018-.017-.034-.044-.028-.554.146-3.742.916-5.991 0-.03-.01-.068.009-.044.027"/></g><g transform="translate(163 138)"><mask id="aj" fill="#fff"><use xlink:href="#ah"/></mask><path d="M32.346 0 .652.048A.66.66 0 0 0 0 .716L.012 49.24H.02c.069.988.79 2.017 2.164 2.827l9.538 5.64c2.644 1.562 6.636 1.731 8.924.379l10.82-6.396c1.1-.652 1.59-1.537 1.524-2.45H33V.668c0-.37-.29-.668-.652-.668h-.002" fill="url(#ai)" mask="url(#aj)"/></g><g><path d="m163.765 186.884.007.087c.046.643.665 1.368 1.655 1.94l9.685 5.591c2.336 1.348 5.985 1.523 7.972.375l10.982-6.34c.487-.28 1.054-.755 1.007-1.41l-.084-1.166h.09v-46.639l-31.326.046.012 47.516Zm15.918 10.926c-1.964 0-4.019-.483-5.658-1.427l-9.683-5.591c-1.256-.725-2.118-1.647-2.508-2.658h-.23l-.01-1.085-.011-48.102c0-.966.784-1.748 1.746-1.748l32.171-.051a1.75 1.75 0 0 1 1.748 1.75v49.236h-.14c-.274.903-.948 1.7-1.956 2.28l-10.984 6.344c-1.22.704-2.82 1.052-4.485 1.052Z" fill="#2565C1"/><path d="m195.5 138.265-14.807.023v58.406c1.1-.108 2.123-.38 2.933-.845l10.984-6.345c1.115-.641 1.612-1.519 1.546-2.425h.01v-48.152a.662.662 0 0 0-.665-.662" fill="#2565C1"/><path d="m194.609 140.712-10.984 6.341c-2.322 1.341-6.376 1.175-9.058-.373l-9.682-5.591c-2.681-1.548-2.972-3.89-.65-5.231l10.982-6.344c2.322-1.34 6.378-1.17 9.058.377l9.684 5.591c2.68 1.548 2.972 3.89.65 5.23" fill="#FFF"/><path d="M179.14 129.697c-1.28 0-2.496.248-3.378.757l-10.984 6.343c-.382.221-1.025.688-1.025 1.333 0 .657.626 1.412 1.675 2.018l9.684 5.591c2.335 1.348 5.987 1.521 7.97.377l10.983-6.343c.386-.22 1.025-.69 1.025-1.333 0-.658-.626-1.412-1.675-2.018l-9.682-5.59c-1.297-.748-2.997-1.135-4.592-1.135m.541 19.35c-1.964 0-4.019-.482-5.658-1.429l-9.683-5.591c-1.753-1.013-2.76-2.434-2.76-3.897 0-1.287.751-2.427 2.11-3.213l10.984-6.34c2.662-1.538 7.117-1.373 10.144.375l9.684 5.59c1.753 1.013 2.76 2.434 2.76 3.898 0 1.285-.75 2.428-2.11 3.212l-10.984 6.341c-1.222.706-2.82 1.054-4.487 1.054" fill="#2565C1"/><mask id="al" fill="#fff"><use xlink:href="#ak"/></mask><path fill="#2565C1" mask="url(#al)" d="M174.521 195.908h2.171v-48.715h-2.171z"/></g><g transform="translate(192 145)"><mask id="ao" fill="#fff"><use xlink:href="#am"/></mask><path fill="url(#an)" mask="url(#ao)" d="M.017 43h1.966V0H.017z"/></g><g transform="translate(172 194)"><mask id="ar" fill="#fff"><use xlink:href="#ap"/></mask><path d="M.649.048c-.36 0-.65.3-.649.665l.012 14.572h.006c.072.985.793 2.007 2.164 2.816l9.54 5.615c2.641 1.551 6.637 1.722 8.925.375l10.82-6.368c1.1-.646 1.588-1.526 1.525-2.438H33V.665A.659.659 0 0 0 32.346 0L.65.048Z" fill="url(#aq)" mask="url(#ar)"/></g><g><path d="m172.773 208.974.007.076c.046.645.665 1.371 1.655 1.94l9.683 5.593c2.337 1.348 5.988 1.524 7.972.375l10.984-6.341c.487-.28 1.056-.754 1.005-1.41l-.085-1.165h.091v-13.048l-31.324.047.012 13.933Zm15.916 10.917c-1.964 0-4.019-.484-5.657-1.43l-9.682-5.589c-1.256-.724-2.118-1.646-2.51-2.658h-.227l-.01-1.083-.012-14.51c0-.961.78-1.745 1.74-1.75l32.177-.05c.966 0 1.748.784 1.748 1.749v15.644h-.14c-.274.903-.948 1.7-1.958 2.282l-10.982 6.343c-1.222.706-2.822 1.052-4.487 1.052Z" fill="#2565C1"/><path d="m204.508 193.937-14.807.024v24.813c1.1-.107 2.123-.379 2.932-.846l10.984-6.343c1.115-.643 1.611-1.519 1.546-2.425h.009V194.6a.664.664 0 0 0-.664-.664" fill="#2565C1"/><path d="m203.617 196.386-10.984 6.341c-2.322 1.341-6.376 1.173-9.058-.375l-9.684-5.591c-2.68-1.548-2.972-3.889-.648-5.23l10.982-6.343c2.322-1.34 6.378-1.173 9.058.375l9.684 5.591c2.68 1.548 2.971 3.89.65 5.232" fill="#FFF"/><path d="M188.148 185.37c-1.283 0-2.496.249-3.379.758l-10.984 6.343c-.383.22-1.025.688-1.025 1.331 0 .659.627 1.412 1.675 2.018l9.683 5.593c2.338 1.348 5.989 1.523 7.971.375l10.984-6.341c.469-.273 1.025-.722 1.025-1.334 0-.659-.626-1.413-1.675-2.019l-9.684-5.59c-1.295-.748-2.995-1.135-4.59-1.135m.54 19.35c-1.965 0-4.02-.481-5.658-1.427l-9.682-5.591c-1.753-1.015-2.76-2.436-2.76-3.897 0-1.285.75-2.428 2.109-3.212l10.983-6.343c2.665-1.538 7.118-1.373 10.146.377l9.682 5.588c1.753 1.013 2.76 2.434 2.76 3.899 0 1.285-.75 2.427-2.108 3.211l-10.984 6.343c-1.224.706-2.822 1.053-4.489 1.053" fill="#2565C1"/><mask id="at" fill="#fff"><use xlink:href="#as"/></mask><path fill="#2565C1" mask="url(#at)" d="M183.528 217.988h2.171v-15.122h-2.171z"/></g><g transform="translate(200 201)"><mask id="aw" fill="#fff"><use xlink:href="#au"/></mask><path fill="url(#av)" mask="url(#aw)" d="M.015 9h1.97V0H.015z"/></g><g transform="translate(462 435)"><mask id="az" fill="#fff"><use xlink:href="#ax"/></mask><path d="M32.345 0 .652.05C.291.054 0 .359 0 .738l.012 10.262h.01c.07 1.015.79 2.067 2.163 2.897l9.538 5.78c2.642 1.602 6.636 1.774 8.923.388l10.82-6.556c1.1-.665 1.588-1.572 1.524-2.509H33V.684C33 .307 32.707 0 32.346 0h-.001" fill="url(#ay)" mask="url(#az)"/></g><g><path d="m462.501 445.756.009.085c.046.643.665 1.368 1.655 1.942l9.685 5.591c2.337 1.348 5.988 1.523 7.972.377l10.982-6.343c.487-.28 1.056-.754 1.006-1.407l-.086-1.166h.093v-8.469l-31.326.048.01 9.342Zm15.92 10.926c-1.964 0-4.02-.483-5.659-1.427l-9.682-5.593c-1.256-.725-2.116-1.645-2.508-2.656h-.23l-.011-1.083-.012-9.93c0-.964.786-1.75 1.748-1.75l32.166-.05h.008c.467 0 .902.182 1.233.51.332.33.514.77.514 1.239v11.064h-.143c-.273.9-.947 1.697-1.955 2.28l-10.984 6.342c-1.22.706-2.82 1.054-4.485 1.054Z" fill="#2565C1"/><path d="m494.238 435.31-14.807.022v20.233c1.1-.107 2.123-.379 2.932-.845l10.984-6.343c1.115-.644 1.613-1.52 1.546-2.426h.01v-9.979a.662.662 0 0 0-.665-.662" fill="#2565C1"/><path d="m493.347 437.757-10.984 6.341c-2.322 1.341-6.376 1.175-9.058-.373l-9.682-5.591c-2.682-1.548-2.972-3.89-.65-5.23l10.982-6.345c2.322-1.339 6.378-1.17 9.06.377l9.682 5.591c2.68 1.548 2.971 3.89.65 5.23" fill="#FFF"/><g transform="translate(460.32 424.567)"><mask id="aB" fill="#fff"><use xlink:href="#aA"/></mask><path d="M17.557 2.174c-1.28 0-2.493.25-3.377.758L3.196 9.275c-.384.221-1.024.688-1.024 1.333 0 .658.627 1.412 1.674 2.018l9.684 5.591c2.338 1.348 5.986 1.523 7.97.375l10.985-6.341c.467-.272 1.023-.72 1.023-1.333 0-.656-.624-1.412-1.675-2.018l-9.682-5.59c-1.298-.75-2.999-1.136-4.594-1.136m.543 19.35c-1.964 0-4.019-.482-5.658-1.428l-9.682-5.59C1.006 13.497 0 12.074 0 10.609c-.002-1.285.75-2.426 2.11-3.212l10.983-6.343c2.662-1.538 7.117-1.375 10.144.379L32.92 7.02c1.754 1.013 2.76 2.434 2.76 3.898 0 1.285-.751 2.428-2.109 3.212L22.586 20.47c-1.222.706-2.821 1.053-4.486 1.053" fill="#2565C1" mask="url(#aB)"/></g><mask id="aD" fill="#fff"><use xlink:href="#aC"/></mask><path fill="#2565C1" mask="url(#aD)" d="M473.258 454.779h2.171V444.24h-2.171z"/></g><g transform="translate(491 441)"><mask id="aG" fill="#fff"><use xlink:href="#aE"/></mask><path fill="url(#aF)" mask="url(#aG)" d="M.015 5h1.97V0H.015z"/></g><path fill="#2565C1" d="m372.128 106.287-16.216-9.407 1.08-1.88 16.217 9.409z"/><path d="M282.57 135.422c-.518 0-.996.126-1.428.375-1.305.757-2.054 2.61-2.054 5.084v19.571c0 5.013 3.02 10.843 6.73 12.995l68.872 39.955c1.471.854 2.798.984 3.845.38 1.306-.758 2.056-2.61 2.056-5.083v-19.573c0-5.013-3.02-10.84-6.732-12.995l-68.872-39.956c-.863-.502-1.678-.753-2.416-.753m74.546 80.4c-1.035 0-2.141-.327-3.258-.972l-68.872-39.958c-4.17-2.418-7.56-8.894-7.56-14.44v-19.571c0-3.087 1.052-5.467 2.884-6.53 1.564-.91 3.521-.773 5.507.379l68.872 39.955c4.171 2.418 7.562 8.899 7.562 14.44V208.7c0 3.085-1.05 5.465-2.886 6.527a4.42 4.42 0 0 1-2.25.596" fill="#FFF"/><path d="M350.64 204.878c.971.564 2.383 1.085 3.595.379 1.226-.711 1.929-2.484 1.929-4.867v-19.573c0-4.93-2.96-10.665-6.605-12.775l-68.872-39.958c-.97-.561-2.378-1.082-3.597-.376-1.224.709-1.927 2.482-1.927 4.864v19.574c0 4.93 2.962 10.662 6.605 12.775l68.872 39.957Zm2.302 2.887c-1.076 0-2.224-.336-3.383-1.008l-68.872-39.954c-4.31-2.503-7.687-8.94-7.687-14.657v-19.574c0-3.176 1.1-5.637 3.011-6.745 1.646-.953 3.688-.82 5.757.379l68.872 39.955c4.31 2.498 7.685 8.938 7.685 14.656v19.573c0 3.178-1.097 5.637-3.009 6.745a4.68 4.68 0 0 1-2.374.63Z" fill="#2565C1"/><path d="M303.107 154.366c-.787-.457-1.362-.51-1.724-.158-.361.351-.55 1.17-.562 2.455v.4c0 1.453.186 2.604.557 3.45a4.171 4.171 0 0 0 1.77 1.972c1.428.828 2.141-.122 2.141-2.852 0-1.336-.176-2.437-.527-3.307-.353-.87-.903-1.524-1.655-1.96m.94 11.633c-1.372-.794-2.45-1.997-3.226-3.605l-.17-.095c.112 1.194.17 1.881.17 2.06v5.489L297.634 168v-19.512l2.59 1.503.45 2.018.147.085c.743-.91 1.847-.94 3.308-.092 1.38.801 2.46 2.047 3.239 3.735.78 1.688 1.17 3.63 1.17 5.827 0 1.447-.184 2.596-.547 3.451-.366.854-.888 1.365-1.562 1.53-.677.165-1.47-.016-2.381-.546M317.646 167.369l-1.233-.667c-.925-.504-1.616-.71-2.067-.618-.454.094-.679.504-.679 1.23 0 1.042.514 1.862 1.545 2.461.738.428 1.33.524 1.77.289.443-.238.664-.762.664-1.58v-1.115Zm.94 6.823-.618-2.2-.08-.048c-.54.473-1.09.695-1.657.67-.568-.027-1.307-.304-2.22-.833a7.147 7.147 0 0 1-2.649-2.65c-.643-1.119-.966-2.363-.966-3.737 0-1.44.434-2.247 1.302-2.427.867-.18 2.174.2 3.921 1.142l2.027 1.103v-.594c0-1.374-.605-2.41-1.817-3.113-.934-.542-2.03-.85-3.29-.929l-1.055-3.108c1.342-.036 2.833.42 4.47 1.37 1.567.909 2.768 2.001 3.604 3.277.835 1.277 1.253 2.724 1.253 4.34v9.028l-2.224-1.291ZM322.419 162.867l3.488 2.024 2.204 8.9c.188.774.318 1.63.387 2.576l.062.037c.078-.787.227-1.485.45-2.09l2.163-6.369 3.414 1.98-4.94 12.418c-.452 1.15-1.098 1.834-1.938 2.051-.837.214-1.818-.001-2.94-.651-.55-.32-1.089-.701-1.618-1.147v-2.932c.382.327.8.622 1.253.885.564.326 1.056.413 1.478.257.42-.157.75-.569.986-1.24l.188-.556-4.637-16.143ZM431.327 325.404c-2.253-2.832-4.727-2.267-10.965-3.668-5.365-1.207-10.971-1.15-16.294.229-5.286 1.366-8.508 2.251-10.695 4.746l-2.818 1.467.007 5.882.018.146c.118 3.963 3.344 7.68 9.752 10.333 6.379 2.64 13.488 3.046 20.194 1.424 9.47-2.292 14.227-7.077 14.376-11.898l.019-.23v-5.657l-3.594-2.774Z" fill="#2565C1"/><path d="m391.636 328.838.007 5.22c.126 3.773 3.352 7.099 9.103 9.48 5.992 2.482 12.93 2.965 19.527 1.37 8.214-1.988 13.405-6.156 13.548-10.876l.024-.289-.003-5.03-3.36-2.631c-1.355-1.707-2.759-1.938-5.832-2.44-1.218-.199-2.732-.445-4.524-.849-5.227-1.174-10.683-1.097-15.788.221-5.341 1.383-8.22 2.206-10.154 4.413l-.312.245-2.236 1.166ZM412.547 348c-4.374 0-8.688-.825-12.626-2.455-6.581-2.727-10.283-6.744-10.42-11.306l-.02-.179-.007-6.54 3.229-1.684c2.464-2.69 6.1-3.63 11.097-4.923 5.432-1.406 11.238-1.488 16.795-.237 1.731.388 3.152.62 4.403.826 3.14.513 5.232.855 7.087 3.12l3.915 3.02-.022 6.515c-.174 5.77-5.857 10.599-15.2 12.86a34.965 34.965 0 0 1-8.23.983Z" fill="#2565C1"/><path d="M428.423 319.08c8.663 5.025 8.663 13.173 0 18.2-8.663 5.024-22.708 5.024-31.371 0-8.663-5.027-8.663-13.175 0-18.2 8.663-5.027 22.708-5.027 31.37 0" fill="#FFF"/><path d="M412.736 316.385c-5.483 0-10.97 1.211-15.144 3.634-3.842 2.228-5.958 5.127-5.958 8.159 0 3.034 2.116 5.932 5.958 8.162 8.352 4.844 21.943 4.842 30.292 0 3.842-2.23 5.958-5.128 5.958-8.162 0-3.032-2.116-5.93-5.958-8.159-4.176-2.423-9.661-3.634-15.148-3.634m.002 25.726c-5.877 0-11.753-1.298-16.227-3.893-4.539-2.633-7.037-6.197-7.037-10.04 0-3.84 2.498-7.407 7.037-10.04 8.945-5.188 23.505-5.188 32.452 0 4.54 2.633 7.037 6.2 7.037 10.04 0 3.843-2.498 7.407-7.037 10.04-4.472 2.595-10.35 3.893-16.225 3.893" fill="#2565C1"/><path d="M423.692 322.629c-6.05-3.067-15.86-3.067-21.908 0-6.05 3.066-6.05 8.034 0 11.1 6.049 3.067 15.859 3.067 21.908 0 6.048-3.066 6.048-8.036 0-11.1" fill="#2565C1"/><path d="M412.736 321.404c-3.79 0-7.579.731-10.465 2.192-2.507 1.271-3.944 2.94-3.944 4.582s1.437 3.31 3.944 4.581c5.772 2.926 15.165 2.926 20.932 0 2.51-1.27 3.945-2.939 3.945-4.581 0-1.643-1.436-3.31-3.945-4.582-2.884-1.46-6.674-2.192-10.467-2.192m.002 15.69c-4.144 0-8.285-.799-11.44-2.395-3.307-1.677-5.131-3.995-5.131-6.521 0-2.527 1.824-4.843 5.132-6.52 6.31-3.195 16.573-3.193 22.878 0 3.309 1.677 5.13 3.993 5.13 6.52 0 2.526-1.821 4.844-5.13 6.52-3.154 1.597-7.298 2.397-11.439 2.397" fill="#2565C1"/><g transform="translate(398 324)"><mask id="aJ" fill="#fff"><use xlink:href="#aH"/></mask><path d="M4.139 2.23C1.974 3.303.6 4.619 0 6c.601 1.382 1.974 2.698 4.139 3.77 5.997 2.973 15.723 2.973 21.72 0C28.026 8.696 29.397 7.382 30 6c-.603-1.382-1.974-2.698-4.14-3.77C22.86.745 18.93 0 14.997 0c-3.93 0-7.86.744-10.86 2.23" fill="url(#aI)" mask="url(#aJ)"/></g><path d="M399.408 330c.624 1.042 1.824 2.01 3.5 2.819 5.842 2.822 15.347 2.819 21.184 0 1.678-.81 2.876-1.777 3.5-2.818-.626-1.043-1.822-2.01-3.5-2.818-5.837-2.82-15.342-2.822-21.184 0-1.676.807-2.874 1.775-3.5 2.818M413.499 337c-4.192 0-8.383-.77-11.575-2.312-2.36-1.14-4-2.62-4.741-4.275l-.183-.412.183-.413c.742-1.658 2.38-3.135 4.74-4.275 6.387-3.086 16.773-3.082 23.157 0 2.358 1.14 3.997 2.617 4.737 4.275l.183.413-.183.412c-.74 1.656-2.379 3.134-4.737 4.275-3.195 1.542-7.387 2.312-11.58 2.312" fill="#2565C1"/><g transform="translate(425 339)"><mask id="aM" fill="#fff"><use xlink:href="#aK"/></mask><path fill="url(#aL)" mask="url(#aM)" d="M.016 5h1.968V0H.016z"/></g><g transform="translate(393 335)"><mask id="aP" fill="#fff"><use xlink:href="#aN"/></mask><path fill="url(#aO)" mask="url(#aP)" d="M.015 5h1.97V0H.015z"/></g><g transform="translate(414 321)"><mask id="aS" fill="#fff"><use xlink:href="#aQ"/></mask><path fill="url(#aR)" mask="url(#aS)" d="M.016 3h1.968V0H.016z"/></g><path d="M402.256 326.028v2.77l3.662 1.419 1.71-2.915.053-.033 12.9 7.8a20.173 20.173 0 0 0 3.143-1.097l1.39-.84v-2.774l-17.117-7.58-5.74 3.25Z" fill="#2565C1"/><path d="m407.634 326.299.464.216 12.604 7.624c.959-.269 1.863-.591 2.693-.965l.89-.543v-1.695l-16.245-7.192-4.953 2.803v1.645l2.48.96 1.466-2.5.601-.353ZM420.456 336l-12.516-7.567-1.671 2.848-4.845-1.876v-3.897l6.528-3.694 17.995 7.968v3.853l-1.807 1.094a20.551 20.551 0 0 1-3.358 1.186l-.326.085Z" fill="#2565C1"/><path d="m407.68 324.497-.052.034-1.71 2.914-3.662-1.418 2.448-4.03 3.293-1.99 17.116 10.35v.006l-3.87 2.337-13.562-8.203Z" fill="#FFF"/><path d="m407.628 323.524.468.22 13.15 7.951 2.207-1.337-15.455-9.347-2.701 1.635-1.787 2.939 2.056.795 1.463-2.495.599-.361Zm13.617 10.182-13.304-8.045-1.674 2.849-5.267-2.042 3.112-5.118 3.886-2.35 17.701 10.742.301.313-.13.854-4.625 2.797Z" fill="#2565C1"/><g transform="translate(422 340)"><mask id="aV" fill="#fff"><use xlink:href="#aT"/></mask><path fill="url(#aU)" mask="url(#aV)" d="M.015 5h1.97V0H.015z"/></g><path d="M410.987 241.315a.571.571 0 0 1-.264.362c-1.865 1.154-15.052 9.97-5.328 22.755 6.506 8.552 5.294 12.746 3.454 14.693-.431.456.004 1.182.617 1.02 4.509-1.185 11.953-5.079 7.835-17.793-5.27-16.276 7.361-10.347 6.89-3.137-.037.584.68.907 1.088.476 2.771-2.926 7.583-10.05-1.074-18.142-10.334-9.659-12.85-1.732-13.218-.234" fill="#FFF"/><path d="M415.72 237.664c-.343 0-.667.044-.969.13-2.019.581-2.757 2.99-2.934 3.715v.001c-.09.362-.317.671-.638.87-1.18.73-7.124 4.68-8.28 10.758-.666 3.513.403 7.146 3.18 10.796 6.244 8.21 5.697 12.76 3.855 15.21 2.224-.69 4.928-2.068 6.463-4.807 1.636-2.92 1.669-6.869.092-11.738-2.263-6.986-1.206-9.73.08-10.802 1.021-.847 2.469-.909 3.983-.172 2.21 1.08 4.443 3.87 4.503 7.062 2.919-3.302 6.11-9.48-1.44-16.54-3.164-2.953-5.865-4.483-7.895-4.483M409.297 281c-.507 0-.984-.255-1.257-.696a1.424 1.424 0 0 1 .182-1.744c2.45-2.593 1.203-7.435-3.512-13.634-3.073-4.038-4.244-8.105-3.487-12.092 1.258-6.62 7.5-10.893 8.96-11.808.27-1.043 1.28-4.02 4.087-4.828 2.76-.795 6.304.806 10.522 4.748 9.288 8.68 3.873 16.394 1.114 19.308a1.488 1.488 0 0 1-1.664.348 1.442 1.442 0 0 1-.902-1.441c.17-2.616-1.671-5.13-3.55-6.048-.51-.246-1.465-.587-2.115-.05-.458.383-1.785 2.167.439 9.037 1.722 5.317 1.648 9.704-.222 13.037-1.988 3.543-5.557 5.116-8.203 5.811a1.597 1.597 0 0 1-.392.052" fill="#2565C1"/><path d="M424.372 249.35c-1.414-2.98-1.046-4.625-.376-5.517.548-.726.401-1.73-.356-2.244-2.786-1.895-7.073-4.764-8.104-4.756 1.904 8.53-4.47 9.34-5.514 14.7-1.12 5.74 7.33 12.23 7.568 12.35-.133-.503-.257-1.002-.43-1.536-4.25-13.122 3.135-11.808 5.909-7.028.736-1.58 2.69-3.042 1.303-5.97" fill="#2565C1"/><path d="M416.63 238.126c.6 4.663-1.396 7.006-3.176 9.096-1.15 1.35-2.237 2.626-2.595 4.465-.675 3.462 2.738 7.483 5.134 9.758-2.154-7.401-.236-9.501 1.154-10.092 1.736-.742 4.172.32 5.866 2.401.782-1.193 1.452-2.228.583-4.057-1.301-2.74-1.397-4.881-.287-6.357a.77.77 0 0 0 .152-.596.702.702 0 0 0-.307-.473c-3.492-2.374-5.446-3.574-6.524-4.145Zm2.267 27.343-1.694-.844c-.097-.048-9.282-6.773-8.019-13.249.442-2.26 1.723-3.764 2.959-5.217 1.875-2.202 3.647-4.28 2.56-9.15l-.223-.998 1.049-.01h.012c.871 0 2.57.812 8.587 4.906a2.36 2.36 0 0 1 1.016 1.562 2.399 2.399 0 0 1-.459 1.856c-.706.937-.549 2.555.459 4.673 1.263 2.664.124 4.402-.706 5.67-.222.34-.438.664-.593.995l-.693 1.488-.823-1.423c-1.272-2.185-3.426-3.308-4.502-2.849-1.152.49-1.804 3.197.145 9.216.144.441.254.859.364 1.273l.56 2.1Z" fill="#2565C1"/><g transform="translate(344 62)"><mask id="aY" fill="#fff"><use xlink:href="#aW"/></mask><path d="M1.958 8.475c-7.554 13.943 9.187 26.01 9.187 26.01l.007-.01c2.46 2.086 6.19 2.113 10.32-.426 7.14-4.389 12.746-14.75 12.521-23.143-.129-4.853-2.186-7.97-5.273-8.899l.005-.009S23.585 0 17.577 0C11.97 0 5.607 1.741 1.957 8.475" fill="url(#aX)" mask="url(#aY)"/></g><path d="m355.533 94.38.764.634c2.233 1.894 5.565 1.713 9.145-.492 6.765-4.165 12.096-14.033 11.883-21.994-.114-4.216-1.782-7.116-4.58-7.96l-1.016-.305.027-.044c-3.81-1.209-18.228-4.891-24.28 6.299-6.093 11.262 5.018 21.425 8.037 23.896l.02-.033ZM359.97 98c-1.724 0-3.293-.528-4.606-1.588l-.098-.068c-.17-.123-16.928-12.447-9.257-26.627 7.671-14.176 27.087-6.816 27.284-6.742l.137.054c.23.077.457.165.676.264l.097.037-.002.007c2.94 1.37 4.67 4.639 4.793 9.145.225 8.496-5.462 19.022-12.678 23.468-2.218 1.365-4.382 2.05-6.346 2.05Z" fill="#2565C1"/><g transform="translate(399 212)"><mask id="bb" fill="#fff"><use xlink:href="#aZ"/></mask><path d="M.116 19.527h.01C-.492 22.545 1.16 25.685 5.115 28c6.84 4 17.929 4 24.77 0 3.954-2.315 5.607-5.455 4.989-8.473h.008S32.428.01 17.5 0C2.572-.009.116 19.527.116 19.527" fill="url(#ba)" mask="url(#bb)"/></g><path d="M400.168 230.941h.037l-.199 1.023c-.568 2.743 1.1 5.473 4.57 7.494 6.577 3.824 17.277 3.825 23.858 0 3.472-2.021 5.137-4.75 4.572-7.494l-.212-1.023h.049c-.733-3.808-4.233-17.665-16.337-17.671h-.009c-12.118 0-15.6 13.863-16.329 17.671M416.506 244c-4.626 0-9.25-1.024-12.772-3.073-4.071-2.368-6.035-5.687-5.413-9.13l.013-.113c.025-.202 2.721-20.113 18.163-20.113h.009c15.448.008 18.146 19.91 18.173 20.113l.018.154c.04.223.068.447.085.67l.016.132h-.006c.183 3.139-1.777 6.115-5.515 8.287-3.521 2.049-8.146 3.073-12.771 3.073" fill="#2565C1"/><path d="M408.515 183.52v29.748c-.03 1.21.747 2.429 2.338 3.353 3.12 1.817 8.183 1.817 11.305 0 1.562-.907 2.34-2.098 2.34-3.287V183.44l-15.983.082Z" fill="#2565C1"/><path d="M409.358 184.365v28.903c-.024.963.657 1.885 1.917 2.62 2.886 1.674 7.576 1.677 10.46 0 1.238-.721 1.919-1.628 1.919-2.554v-29.042l-14.296.073Zm7.146 34.478c-2.185 0-4.37-.495-6.072-1.487-1.817-1.058-2.799-2.519-2.76-4.11v-30.57l17.668-.093v30.751c0 1.56-.982 2.986-2.762 4.022-1.702.992-3.889 1.487-6.074 1.487Z" fill="#2565C1"/><path d="M375.38 164.274h-.027s5.895 45.95 41.232 45.906c35.334-.044 41.07-46.053 41.07-46.053h-.027c1.453-7.1-2.472-14.494-11.843-19.923-16.208-9.39-42.458-9.342-58.633.104-9.351 5.464-13.252 12.871-11.772 19.966" fill="#FFF"/><path d="M376.328 165.062c1.069 6.358 8.776 44.268 40.207 44.268h.047c31.397-.039 39.01-37.815 40.089-44.355h-.052l.183-1.019c1.442-7.039-2.727-13.97-11.438-19.017-15.946-9.238-41.87-9.196-57.788.104-8.692 5.077-12.838 12.022-11.373 19.056l.2.958-.075.005Zm40.207 45.967c-35.625.003-41.959-46.18-42.018-46.645l-.048-.367c-1.376-7.645 3.07-15.074 12.26-20.443 16.387-9.567 43.063-9.616 59.475-.107 9.26 5.365 13.73 12.834 12.308 20.528l-.024.238c-.057.467-6.237 46.752-41.903 46.796h-.05Z" fill="#2565C1"/><path d="M445.814 144.255c16.19 9.418 16.19 24.688 0 34.107-16.19 9.418-42.44 9.418-58.63 0-16.192-9.419-16.192-24.689 0-34.106 16.19-9.418 42.44-9.418 58.63-.001" fill="#2565C1"/><path d="M416.498 138.04c-10.464 0-20.928 2.316-28.893 6.95-7.56 4.398-11.722 10.193-11.722 16.318 0 6.127 4.162 11.922 11.72 16.32 15.933 9.267 41.854 9.267 57.79 0 7.558-4.398 11.721-10.193 11.721-16.32 0-6.125-4.163-11.92-11.721-16.318-7.967-4.634-18.431-6.95-28.895-6.95m0 48.212c-10.77 0-21.536-2.385-29.738-7.155-8.1-4.713-12.563-11.03-12.563-17.789 0-6.757 4.463-13.075 12.565-17.787 16.396-9.541 43.076-9.543 59.474 0 8.1 4.712 12.564 11.03 12.564 17.787 0 6.759-4.464 13.076-12.564 17.79-8.2 4.767-18.969 7.154-29.738 7.154" fill="#2565C1"/><path d="M484.156 137.548c0-1.702-.204-3.402-.581-5.092-1.654-12.247-7.571-44.759-26.434-76.565l-40.643 3.449-40.64-3.449c-18.865 31.808-24.78 64.32-26.436 76.567-2.608 11.693 3.793 23.938 19.235 32.92 26.422 15.37 69.26 15.37 95.683 0 13.211-7.686 19.816-17.757 19.816-27.83" fill="#FFF"/><path d="M376.312 56.782c-18.516 31.435-24.387 63.445-26.055 75.788-2.651 11.91 4.212 23.575 18.82 32.073 26.148 15.207 68.693 15.207 94.842 0 12.507-7.277 19.395-16.9 19.395-27.096 0-1.581-.19-3.232-.563-4.905-1.677-12.412-7.546-44.42-26.066-75.86l-40.116 3.404-40.257-3.404Zm40.186 120.941c-17.478 0-34.955-3.87-48.263-11.611-15.29-8.894-22.447-21.229-19.635-33.842 1.676-12.436 7.645-44.963 26.533-76.813l.27-.457 41.166 3.494L457.594 55l.27.457c18.892 31.855 24.857 64.379 26.544 76.884.39 1.724.592 3.499.592 5.206 0 10.828-7.188 20.972-20.238 28.565-13.308 7.742-30.785 11.611-48.264 11.611Z" fill="#2565C1"/><g transform="translate(375 36)"><mask id="be" fill="#fff"><use xlink:href="#bc"/></mask><path d="M12.302 7.177c-16.403 9.566-16.403 25.079 0 34.647 16.4 9.568 42.993 9.568 59.395 0 16.404-9.568 16.404-25.081 0-34.65C63.496 2.393 52.75 0 42.001 0c-10.75 0-21.498 2.392-29.7 7.177" fill="url(#bd)" mask="url(#be)"/></g><path d="M416.5 37.892c-10.514 0-21.027 2.31-29.03 6.936-7.594 4.388-11.776 10.171-11.776 16.283 0 6.112 4.182 11.895 11.775 16.284 16.007 9.247 42.05 9.247 58.06 0 7.594-4.389 11.777-10.172 11.777-16.285 0-6.11-4.183-11.894-11.776-16.282-8.005-4.626-18.518-6.936-29.03-6.936m0 48.108c-10.822 0-21.638-2.38-29.878-7.137C378.483 74.157 374 67.856 374 61.11c0-6.744 4.483-13.047 12.623-17.751 16.474-9.517 43.279-9.517 59.754 0C454.515 48.064 459 54.367 459 61.11c0 6.746-4.485 13.047-12.623 17.753C438.138 83.62 427.319 86 416.499 86" fill="#2565C1"/><path d="M457.817 51.728h.027s-5.843-45.864-41.346-45.882C381 5.827 375.156 51.728 375.156 51.728h.026c-1.472 7.082 2.457 14.467 11.866 19.902 16.265 9.399 42.64 9.399 58.904 0 9.407-5.435 13.339-12.82 11.865-19.902" fill="#FFF"/><path d="M376.144 50.88h.053l-.185 1.023c-1.46 7.019 2.715 13.942 11.458 18.993 16.006 9.25 42.05 9.25 58.06 0 8.74-5.05 12.918-11.974 11.458-18.993l-.212-1.022h.076c-1.1-6.526-8.83-44.17-40.353-44.186h-.024c-31.505 0-39.232 37.66-40.33 44.186m40.354 28.622c-10.82 0-21.64-2.381-29.876-7.139-9.292-5.368-13.768-12.825-12.332-20.5l.026-.243C374.376 51.155 380.667 5 416.475 5h.024c35.833.017 42.123 46.155 42.182 46.621l.044.346c1.38 7.638-3.097 15.051-12.349 20.397-8.236 4.758-19.057 7.14-29.877 7.14" fill="#2565C1"/><g transform="translate(409 8)"><mask id="bh" fill="#fff"><use xlink:href="#bf"/></mask><path d="M2.344 1.318c-3.125 1.756-3.125 4.606 0 6.365 3.124 1.756 8.188 1.756 11.312 0 3.125-1.759 3.125-4.609 0-6.365C12.094.438 10.046 0 8.001 0 5.953 0 3.906.439 2.344 1.318" fill="url(#bg)" mask="url(#bh)"/></g><path d="M416.5 9.626c-1.818 0-3.635.37-4.987 1.108-1.171.643-1.817 1.447-1.817 2.266 0 .818.646 1.624 1.817 2.265 2.703 1.48 7.271 1.478 9.972 0 1.173-.641 1.82-1.447 1.82-2.265 0-.82-.647-1.623-1.82-2.266-1.35-.739-3.169-1.108-4.985-1.108M416.498 18c-2.097 0-4.198-.447-5.833-1.344-1.719-.94-2.665-2.24-2.665-3.656 0-1.417.946-2.716 2.665-3.657 3.271-1.79 8.397-1.79 11.668 0 1.72.941 2.667 2.24 2.667 3.657 0 1.416-.948 2.716-2.667 3.656-1.635.896-3.736 1.344-5.835 1.344" fill="#2565C1"/><g transform="translate(457 74)"><mask id="bk" fill="#fff"><use xlink:href="#bi"/></mask><path d="M2.262 6.58c-3.805 8.205-2.696 20.863 2.476 28.273 2.992 4.285 6.684 5.859 10.008 4.854l.001.014s21.664-4.74 20.18-21.778C33.445.904 11.27.037 11.27.037l.001.012A6.892 6.892 0 0 0 10.463 0c-3.158 0-6.171 2.21-8.2 6.58" fill="url(#bj)" mask="url(#bk)"/></g><path d="M467.384 74.689c-2.97 0-5.678 2.2-7.513 6.145-3.722 8.009-2.632 20.41 2.428 27.645 2.692 3.85 6.032 5.512 9.17 4.568l1.084-.328v.056c4.21-1.2 19.925-6.644 18.694-20.776-1.25-14.331-18.135-16.816-22.203-17.206v.037l-.939-.1a6.497 6.497 0 0 0-.72-.041m2.31 40.311c-3.139 0-6.245-1.936-8.775-5.553-5.368-7.675-6.523-20.83-2.574-29.325 2.27-4.885 5.825-7.468 9.76-7.085l.13.002c.233.008 23.144 1.108 24.688 18.813 1.542 17.703-20.807 22.79-21.033 22.84l-.155.031a7.293 7.293 0 0 1-.791.174l-.076.017v-.003c-.39.059-.783.089-1.173.089" fill="#2565C1"/><g transform="translate(377 21)"><mask id="bn" fill="#fff"><use xlink:href="#bl"/></mask><path d="M9.796.1C5.05 6.55 2.095 13.844.33 19.618c-1.54 6.653 2.338 13.755 11.333 18.866 7.502 4.264 17.28 6.427 27.111 6.517 3.854.033 7.42-2.017 9.29-5.335l.092-.16a14.146 14.146 0 0 0-.486-14.765c-1.683-2.557-4.551-4.177-7.647-4.155-7.756.059-15.543-1.587-21.46-4.95-7.207-4.094-10-9.904-8.327-15.307.06-.183-.089-.328-.242-.328a.24.24 0 0 0-.197.1" fill="url(#bm)" mask="url(#bn)"/></g><path d="M385.827 22.806c-3.969 6.199-6.414 12.803-7.811 17.48-1.5 6.624 2.607 13.522 11 18.398 7.145 4.153 16.676 6.49 26.842 6.587 3.645.024 6.847-1.898 8.58-5.04l.093-.169a13.928 13.928 0 0 0-.46-14.288c-1.54-2.396-4.18-3.878-6.902-3.878-.175.002-.32.002-.48.002-8.151 0-15.804-1.842-21.592-5.207-6.235-3.621-9.54-8.662-9.27-13.885M415.947 67h-.107c-10.456-.099-20.288-2.52-27.683-6.818-9.081-5.274-13.493-12.877-11.802-20.336 1.628-5.455 4.608-13.363 9.66-20.384a1.1 1.1 0 0 1 1.388-.346c.493.246.733.808.574 1.34-1.631 5.378 1.352 10.887 7.98 14.738 5.528 3.213 12.878 4.974 20.732 4.974.162-.002.322-.005.483-.002 3.348 0 6.46 1.74 8.342 4.667a15.675 15.675 0 0 1 .521 16.07l-.094.17c-2.023 3.661-5.845 5.927-9.994 5.927" fill="#2565C1"/><path d="M416.39 62.132c-9.885-.094-15.824-.938-23.936-5.293-9.214-4.947-13.909-10.815-11.394-19.396 1.228-4.117 3.054-8.982 5.637-13.787a10.797 10.797 0 0 1 .457-3.453c.086-.276-.272-.468-.444-.233-4.77 6.631-7.742 14.128-9.517 20.067-1.55 6.84 2.352 14.142 11.394 19.396 7.545 4.385 17.377 6.7 27.262 6.701 3.9 0 6.813-2.82 8.806-4.916.135-.141-.013-.354-.197-.29-3.259 1.138-6.813 1.216-8.067 1.204" fill="#2565C1"/><path d="M385.845 22.779c-3.977 6.206-6.43 12.822-7.83 17.507-1.498 6.623 2.609 13.521 11.003 18.399 7.306 4.246 16.835 6.584 26.83 6.584 2.436 0 4.48-1.216 6.308-2.82-2.471.508-4.752.56-5.775.548-9.85-.094-16.005-.924-24.332-5.395-10.488-5.632-14.243-12.115-11.813-20.403 1.443-4.838 3.377-9.586 5.595-13.754a12.26 12.26 0 0 1 .014-.666m30.004 44.22c-10.293 0-20.127-2.42-27.69-6.817-9.082-5.277-13.495-12.879-11.802-20.337 1.626-5.455 4.607-13.363 9.66-20.382.316-.443.899-.59 1.385-.346.493.244.734.808.574 1.337a9.984 9.984 0 0 0-.42 3.176l.004.232-.108.204c-2.212 4.115-4.137 8.828-5.57 13.626-2.186 7.463 1.198 13.135 10.977 18.384 8.01 4.3 13.972 5.101 23.538 5.19 1.313.023 4.687-.075 7.778-1.154a1.043 1.043 0 0 1 1.1 1.704c-2.562 2.692-5.479 5.183-9.426 5.183" fill="#2565C1"/><path d="M389.601 41.031c-.237 3.01-1.596 5.359-3.037 5.243-1.44-.114-2.416-2.648-2.179-5.658.237-3.011 1.597-5.36 3.037-5.244 1.44.114 2.416 2.648 2.18 5.66" fill="#FFF"/><path d="M387.32 36.233c-.699 0-1.866 1.734-2.08 4.45-.216 2.759.695 4.673 1.393 4.73.314.013.779-.366 1.158-1.023.504-.869.851-2.118.954-3.429.217-2.757-.694-4.671-1.39-4.727l-.035-.001m-.65 10.912c-.056 0-.114-.004-.173-.007-1.976-.16-3.251-2.992-2.97-6.592.284-3.597 2-6.185 3.962-6.036 1.976.157 3.251 2.989 2.97 6.588-.124 1.584-.543 3.062-1.181 4.163-.706 1.221-1.628 1.884-2.607 1.884" fill="#2565C1"/><path d="M416.176 51.445c-.024 3.445-2.795 6.221-6.192 6.197-3.395-.024-6.129-2.837-6.105-6.284.023-3.445 2.796-6.22 6.19-6.195 3.398.024 6.13 2.836 6.107 6.282" fill="#FFF"/><path d="M410.027 46.028a5.207 5.207 0 0 0-3.711 1.546 5.384 5.384 0 0 0-1.578 3.791c-.02 2.963 2.336 5.392 5.252 5.412 1.489.018 2.743-.54 3.749-1.546a5.38 5.38 0 0 0 1.577-3.791l.86.005-.86-.005c.021-2.965-2.335-5.392-5.252-5.412h-.037Zm.001 12.48h-.048c-3.865-.029-6.988-3.237-6.96-7.155a7.099 7.099 0 0 1 2.084-5.005c1.332-1.337 3.05-2.046 4.972-2.05 3.864.028 6.987 3.236 6.959 7.154a7.108 7.108 0 0 1-2.085 5.005 6.908 6.908 0 0 1-4.922 2.05Z" fill="#2565C1"/><g transform="translate(356 99)"><mask id="bq" fill="#fff"><use xlink:href="#bo"/></mask><path d="M15.35 1.285 10.28 7.178c-3.254 3.782-5.658 8.244-6.916 13.077-7.067 27.167-.824 38.58-.723 38.763 2.775 2.65 6.133 5.151 10.084 7.438 15.66 9.068 37.045 12.79 57.415 11.18 4.902-13.66 4.1-30.194 3.127-39.155a56.105 56.105 0 0 0-2.414-11.195L66.7 14.428c-.502-1.557-1.968-2.567-3.599-2.54-21.716.343-37.112-7.67-42.983-11.323A3.71 3.71 0 0 0 18.149 0c-1.043 0-2.073.44-2.8 1.285" fill="url(#bp)" mask="url(#bq)"/></g><path d="M358.464 157.685c2.772 2.616 6.085 5.044 9.855 7.218 14.953 8.625 35.538 12.662 56.565 11.105 4.682-13.468 3.84-29.7 2.91-38.245a55.37 55.37 0 0 0-2.39-11.019l-4.166-12.854c-.38-1.174-1.476-1.953-2.739-1.953l-.05.002c-22.205.321-37.853-7.89-43.587-11.448a2.86 2.86 0 0 0-3.69.551l-5.087 5.892c-3.223 3.732-5.562 8.137-6.76 12.732-6.593 25.254-1.453 36.814-.86 38.019m57.574 20.351c-18.163 0-35.472-4.103-48.572-11.662-3.93-2.267-7.39-4.809-10.28-7.555l-.158-.204c-.267-.481-6.47-12.118.647-39.378 1.265-4.847 3.729-9.486 7.12-13.414l5.087-5.891a4.551 4.551 0 0 1 5.876-.887c5.606 3.478 20.907 11.52 42.665 11.193 2-.007 3.817 1.224 4.434 3.126l4.167 12.855c1.22 3.763 2.048 7.586 2.46 11.36.959 8.8 1.82 25.634-3.183 39.522l-.188.517-.548.042c-3.189.254-6.37.376-9.527.376" fill="#2565C1"/><path d="M364.265 153.16c0 1.501-.85 2.718-1.896 2.718-1.047 0-1.899-1.217-1.899-2.717s.852-2.717 1.899-2.717c1.047 0 1.896 1.216 1.896 2.717" fill="#FFF"/><path d="M362.368 151.295c-.494 0-1.047.798-1.047 1.866 0 1.069.553 1.865 1.047 1.865.494 0 1.046-.796 1.046-1.865 0-1.068-.552-1.866-1.046-1.866m0 5.432c-1.54 0-2.75-1.567-2.75-3.566 0-2 1.21-3.567 2.75-3.567 1.541 0 2.748 1.567 2.748 3.567s-1.207 3.566-2.748 3.566" fill="#2565C1"/><path d="M374.525 108.537c-.704 1.325-2.012 2.01-2.923 1.524-.909-.481-1.077-1.946-.373-3.271.705-1.325 2.013-2.008 2.922-1.526.91.483 1.078 1.95.374 3.273" fill="#FFF"/><path d="M373.511 105.96c-.202 0-.405.092-.504.143-.395.206-.77.6-1.025 1.085-.258.484-.376 1.014-.325 1.457.017.155.087.529.344.667.259.137.608-.016.746-.089.395-.206.77-.602 1.026-1.085.501-.941.402-1.897-.02-2.123a.519.519 0 0 0-.242-.055m-1.268 5.107a2.2 2.2 0 0 1-1.039-.253c-.686-.363-1.137-1.084-1.24-1.977-.09-.786.095-1.655.515-2.446.419-.791 1.037-1.43 1.74-1.797.797-.413 1.646-.444 2.33-.082 1.346.715 1.666 2.66.728 4.424-.42.79-1.039 1.429-1.742 1.796a2.797 2.797 0 0 1-1.292.335" fill="#2565C1"/><path d="M421.42 169.23a2.718 2.718 0 0 1-5.435 0 2.716 2.716 0 1 1 5.435 0" fill="#FFF"/><path d="M418.701 167.365a1.868 1.868 0 0 0-1.867 1.865 1.87 1.87 0 0 0 1.867 1.864 1.87 1.87 0 0 0 1.868-1.864c0-1.03-.84-1.865-1.868-1.865m0 5.43c-1.968 0-3.57-1.599-3.57-3.565a3.572 3.572 0 0 1 3.57-3.566c1.968 0 3.57 1.6 3.57 3.566a3.572 3.572 0 0 1-3.57 3.566" fill="#2565C1"/><path d="M418.065 120.044a2.718 2.718 0 0 1-5.435 0 2.718 2.718 0 0 1 5.434 0" fill="#FFF"/><path d="M415.346 118.18a1.868 1.868 0 0 0-1.868 1.864 1.87 1.87 0 0 0 1.868 1.865 1.87 1.87 0 0 0 1.868-1.865c0-1.03-.84-1.864-1.868-1.864m0 5.43c-1.968 0-3.57-1.6-3.57-3.566a3.572 3.572 0 0 1 3.57-3.566c1.968 0 3.57 1.6 3.57 3.566a3.572 3.572 0 0 1-3.57 3.566M473.691 114.205c-11.28-5.564-11.254-21.768-11.247-22.454l1.703.015c-.002.157-.019 15.825 10.298 20.915l-.754 1.524ZM464.144 88.137l-1.699-.127c.019-.243.478-5.985 3.43-9.954l1.366 1.016c-2.65 3.565-3.093 9.01-3.097 9.065M347.16 80.374c-.063-.347-1.445-8.567 7.495-14.449l.936 1.42c-8.01 5.27-6.77 12.651-6.757 12.724l-1.674.305ZM416.746 22.692c-10.607 0-13.164-6.892-13.274-7.205l1.605-.57c.104.288 2.658 7.02 14.015 5.961l.157 1.695a27.1 27.1 0 0 1-2.503.119M433.18 171.142l-.21-1.688c.17-.022 17.107-2.203 30.36-10.233l.881 1.456c-13.57 8.22-30.858 10.442-31.032 10.465M477.425 147.552l-1.025-1.357c.028-.023 2.762-2.156 3.943-7.14l1.657.39c-1.333 5.623-4.442 8.008-4.575 8.107M414.428 207.017c-16.626-.393-22.674-10.907-22.924-11.354l1.488-.829c.056.1 5.867 10.11 21.476 10.481l-.04 1.702ZM415.365 240.669c-8.934 0-13.614-5.718-13.825-5.985l1.328-1.062c.208.259 5.186 6.293 14.752 5.216l.191 1.691c-.85.096-1.663.14-2.446.14M388.212 13.008l-1.209-1.198c.409-.41 10.188-10.093 26.337-11.806l.178 1.693c-15.55 1.648-25.209 11.214-25.306 11.311M437.554 211.236l-.872-1.46c.114-.069 11.428-6.908 16.363-18.207l1.56.682c-5.159 11.81-16.568 18.698-17.051 18.985M413.216 297a4.27 4.27 0 0 1-1.328-.218c-1.954-.633-3.457-2.52-3.655-4.588-.134-1.407.225-4.09 4.142-6.249 7.858-4.333 10.508-11.52 10.534-11.593l1.604.575c-.116.32-2.9 7.868-11.315 12.507-2.273 1.254-3.433 2.885-3.27 4.598.132 1.39 1.179 2.709 2.485 3.132.667.216 1.638.276 2.474-.673l1.277 1.128c-.8.906-1.834 1.381-2.948 1.381" fill="#2565C1"/><path d="M419.074 295.815c-.468-1.396-1.189-2.335-2.142-2.791-1.316-.635-2.704-.15-2.717-.148l-.588-1.594c.086-.03 2.057-.744 4.042.207 1.381.664 2.397 1.936 3.017 3.785l-1.612.541ZM343.682 136.263l-1.682-.262c.027-.184 2.89-18.443 6.419-28.9l1.612.544c-3.48 10.318-6.32 28.436-6.349 28.618M429.08 3.103c-3.315-1.213-10.958-1.4-11.035-1.402l.04-1.701c.323.007 8 .196 11.58 1.506l-.586 1.597ZM428.401 214.607l-.443-1.643c.033-.01 3.193-.866 6.67-2.5l.725 1.539c-3.62 1.703-6.82 2.569-6.952 2.604M388.994 142.188c1.736.325 3.245-1.028 3.044-2.741l-.237-2.024c-.155-1.208-.332-2.77-.53-4.684-.195-1.919-1.028-2.223-1.668-.599-.487 1.232-1.386 3.36-2.692 6.368-.665 1.538.358 3.356 2.083 3.68m4.705 12.009-.248-2.12c-.138-1.176-1.076-2.162-2.282-2.402l-6.352-1.258c-1.171-.233-2.302.325-2.758 1.353l-.843 1.895c-.456 1.02-1.57 1.564-2.719 1.327l-3.726-.772c-1.703-.352-2.687-2.225-1.951-3.707l12.108-24.4c.506-1.022 1.626-1.588 2.778-1.404l7.934 1.264c1.182.187 2.118 1.092 2.322 2.24l5.04 28.383c.313 1.773-1.274 3.202-3.12 2.82l-3.894-.805c-1.213-.252-2.15-1.244-2.289-2.414" fill="#2565C1"/></g></svg>