<svg viewBox="0 0 60 60" xmlns="http://www.w3.org/2000/svg"><g fill="none" fill-rule="evenodd" opacity=".7"><rect fill="#D3F0FE" width="60" height="60" rx="6"/><path d="M44.043 47.3c-1.019 1.055-2.781 1.134-5.354 1.134h-7.902l.005-.013a.819.819 0 0 0 .064-.137l7.372-21.32.072-.17h3.159l-1.718 3.995a.837.837 0 0 0 .53 1.133c.048.014 4.775 1.507 5.036 8.957.117 3.366-.284 5.406-1.264 6.42Zm-22.732 1.134c-2.573 0-4.335-.079-5.354-1.134-.98-1.015-1.381-3.055-1.264-6.421.259-7.384 4.846-8.898 5.036-8.957a.837.837 0 0 0 .53-1.133l-1.718-3.995h3.161l.073.172 7.5 21.322a.824.824 0 0 0 .063.134l.005.012h-8.032Zm.9-30.784a.837.837 0 0 0 .713-.683c.192-1.088.816-3.872 2.458-6.236a.131.131 0 0 1 .087-.055.13.13 0 0 1 .1.023c1.151.839 2.867 1.84 4.496 1.84h.031c1.63 0 3.345-1.001 4.497-1.84a.129.129 0 0 1 .099-.023.131.131 0 0 1 .087.055c1.643 2.366 2.267 5.152 2.46 6.24a.837.837 0 0 0 .711.683c1.964.266 2.975.565 3.477.771-.61.246-1.763.528-3.455.759l-.044.001c-2.204.297-4.997.46-7.863.46-2.922 0-5.757-.169-7.984-.477-.015-.002-.03 0-.044-.001-1.625-.228-2.739-.502-3.334-.742.505-.206 1.524-.508 3.508-.775Zm15.155 3.291c.076.496.114.998.114 1.502a9.755 9.755 0 0 1-.774 3.82c-.017.042-.036.082-.054.123a9.24 9.24 0 0 1-.19.4l-.053.105a8.997 8.997 0 0 1-.464.786c-.915 1.383-2.183 2.437-3.647 2.984-.037.014-.073.028-.109.04a6.476 6.476 0 0 1-.467.145c-.069.02-.137.039-.207.056a6.51 6.51 0 0 1-.416.084l-.15.022a6.535 6.535 0 0 1-1.896 0l-.15-.022a6.493 6.493 0 0 1-.416-.084c-.07-.017-.137-.037-.205-.055a6.643 6.643 0 0 1-.468-.145l-.112-.041c-1.464-.548-2.73-1.603-3.646-2.985a9.626 9.626 0 0 1-.462-.782l-.057-.114a9.156 9.156 0 0 1-.184-.387l-.055-.123a7.785 7.785 0 0 1-.133-.33 9.76 9.76 0 0 1-.643-3.496c0-.51.04-1.017.116-1.517 1.873.22 4.06.353 6.37.384l.143.002a82.616 82.616 0 0 0 1.81 0l.145-.002c2.258-.03 4.4-.156 6.245-.368l.015-.002ZM25.001 31.092a8.463 8.463 0 0 0 4.055 1.606l.036.004c.127.014.254.025.381.033l.101.006a8.262 8.262 0 0 0 .854 0l.102-.006c.126-.008.25-.019.374-.032l.045-.005a8.47 8.47 0 0 0 4.09-1.634L30.06 45.47 25 31.092Zm21.978 9.728c-.234-6.704-3.712-9.284-5.37-10.138l1.889-4.395a.837.837 0 0 0-.769-1.167h-3.89a11.507 11.507 0 0 0 .181-4.404l.078-.013c3.075-.504 4.386-1.187 4.386-2.284 0-.806-.577-1.707-4.715-2.338-.307-1.439-1.037-4.031-2.615-6.304-.28-.403-.7-.67-1.184-.751a1.792 1.792 0 0 0-1.363.32c-1.325.965-2.604 1.519-3.51 1.519h-.032c-1.241 0-2.733-.952-3.511-1.519a1.791 1.791 0 0 0-1.363-.32 1.792 1.792 0 0 0-1.183.75c-1.578 2.272-2.308 4.862-2.615 6.3-4.167.631-4.747 1.534-4.747 2.343 0 1.091 1.3 1.773 4.34 2.276a11.507 11.507 0 0 0 .178 4.425H17.27a.837.837 0 0 0-.769 1.167l1.89 4.395c-1.66.854-5.137 3.434-5.371 10.138-.137 3.903.398 6.26 1.732 7.643 1.475 1.526 3.648 1.644 6.558 1.644h17.378c2.91 0 5.083-.118 6.558-1.644 1.334-1.383 1.869-3.74 1.732-7.643Z" fill="currentColor"/></g></svg>