<svg viewBox="0 0 540 396" xmlns="http://www.w3.org/2000/svg" xmlns:xlink="http://www.w3.org/1999/xlink"><defs><path d="M5.105 2.785C2.435 4.13.744 5.772 0 7.499c.744 1.728 2.435 3.373 5.105 4.715 7.399 3.715 19.391 3.715 26.788 0C34.567 10.872 36.258 9.227 37 7.5c-.742-1.727-2.433-3.369-5.107-4.714C28.195.929 23.349 0 18.5 0 13.653 0 8.805.93 5.105 2.785" id="a"/><path id="d" d="M.013 0h1.974v6H.013z"/><path id="g" d="M.013 0h1.974v6H.013z"/><path id="j" d="M.013 0h1.974v6H.013z"/><path id="m" d="M.013 0h1.974v6H.013z"/><path id="p" d="M.013 0h1.974v6H.013z"/><path d="M5.105 2.787C2.435 4.129.744 5.772 0 7.499c.744 1.728 2.435 3.372 5.105 4.714 7.399 3.716 19.391 3.716 26.788 0 2.672-1.342 4.365-2.986 5.107-4.714-.742-1.727-2.433-3.37-5.107-4.712C28.195.929 23.347 0 18.5 0 13.651 0 8.805.93 5.105 2.787" id="s"/><path id="v" d="M.013 0h1.974v6H.013z"/><path id="y" d="M.013 0h1.974v6H.013z"/><path id="B" d="M.012 0h1.976v6H.012z"/><path id="E" d="M.013 0h1.974v6H.013z"/><path id="H" d="M.013 0h1.974v6H.013z"/><path d="M0 2.77v29.454c0 2.475 1.709 5.484 3.816 6.723L9.72 42.41a.693.693 0 0 1 .295.461c.258 1.568 1.786 8.69 8.881 13.614.276.191.457-.088.278-.436-.955-1.843-2.78-5.922-2.062-9.008.033-.146.169-.193.314-.107L42.184 61.47C44.29 62.71 46 61.704 46 59.228V29.775c0-2.474-1.709-5.484-3.816-6.721L3.816.53C3.205.17 2.625 0 2.111 0 .86 0 0 1.014 0 2.77" id="K"/><path d="m98.908 4.265-7.307 4.234c-2.368 1.37-2.363 3.61.007 4.973 2.373 1.36 2.375 3.6.01 4.972L36.62 50.313c-2.368 1.371-6.244 1.378-8.616.014-2.371-1.362-6.248-1.356-8.615.016L3.985 59.27c-5.321 3.083-5.312 8.111.02 11.175l228.516 131.352c9.794 5.63 25.8 5.6 35.571-.062l94.925-55.002c5.318-3.085 5.31-8.114-.02-11.175L134.481 4.204C129.604 1.4 123.184 0 116.762 0c-6.473 0-12.948 1.42-17.854 4.265" id="N"/><path id="Q" d="M.21 8.985 1.692 9 1.79.013.31 0z"/><path d="M.042.374C.057.416 1.4 4.434 0 8.636L1.3 9c1.52-4.568.1-8.821.038-9L.042.374Z" id="T"/><path d="M.042.373C.057.413 1.4 4.433 0 8.636L1.298 9c1.525-4.568.1-8.821.04-9L.042.373Z" id="W"/><path d="M.68 9 2 8.717C1.161 5.326 1.386.104 1.388.051L.033 0c-.01.218-.236 5.442.646 9" id="Z"/><path d="M.678 9 2 8.715C1.16 5.325 1.387.104 1.389.051L.034 0c-.01.218-.238 5.44.644 9" id="ac"/><path d="M.845.232C.3.562 0 1.18 0 1.972v.337c0 1.483 1.089 3.305 2.477 4.143l13.409 8.11c.48.291.959.438 1.398.438.318 0 .613-.078.87-.232.547-.331.846-.949.846-1.742v-.337c0-1.485-1.087-3.303-2.477-4.143L3.116.435C2.634.147 2.153 0 1.716 0c-.318 0-.613.076-.87.232M16.525 13.4 3.115 5.288c-.994-.6-1.835-1.965-1.835-2.98v-.336c0-.168.026-.47.204-.58a.464.464 0 0 1 .236-.052c.183 0 .441.067.756.26l13.407 8.108c.995.602 1.835 1.967 1.835 2.981v.337c0 .17-.026.473-.204.58a.486.486 0 0 1-.235.052c-.183 0-.439-.067-.755-.257" id="af"/><path d="M.845.232C.301.562 0 1.18 0 1.974v.337c0 1.483 1.089 3.303 2.478 4.143l13.408 8.106c.48.292.962.44 1.4.44.316 0 .613-.076.869-.234.544-.327.845-.945.845-1.742v-.335c0-1.483-1.085-3.303-2.475-4.143L3.118.436C2.636.146 2.155 0 1.716 0 1.4 0 1.103.076.846.232m15.68 13.165L3.119 5.29C2.122 4.689 1.28 3.325 1.28 2.31v-.336c0-.172.027-.473.205-.581a.47.47 0 0 1 .234-.053c.186 0 .442.067.758.26l13.406 8.108c.994.603 1.837 1.967 1.837 2.981v.335c0 .174-.026.475-.206.583a.476.476 0 0 1-.233.051c-.183 0-.44-.067-.755-.26" id="ai"/><path d="M15.885.436 2.474 8.545C1.086 9.385 0 11.205 0 12.69v.335c0 .793.297 1.412.844 1.74.257.157.553.235.869.235.437 0 .92-.148 1.4-.44l13.41-8.107C17.914 5.613 19 3.793 19 2.31v-.337c0-.791-.299-1.41-.844-1.74A1.664 1.664 0 0 0 17.284 0c-.438 0-.918.145-1.399.436m-14.4 13.17c-.178-.109-.208-.41-.208-.581v-.335c0-1.014.844-2.38 1.838-2.983L16.523 1.6c.316-.19.574-.257.76-.257.1 0 .179.021.234.05.176.107.204.411.204.58v.337c0 1.014-.842 2.38-1.836 2.982L2.474 13.398c-.317.191-.574.258-.758.258-.1 0-.178-.02-.231-.05" id="al"/><path d="M.9.223C.32.539 0 1.133 0 1.896v.324C0 3.646 1.159 5.39 2.64 6.2l8.04 4.38c.512.28 1.023.42 1.49.42.341 0 .653-.071.93-.223.58-.316.9-.91.9-1.673v-.322c0-1.425-1.16-3.173-2.64-3.98L3.322.419C2.81.141 2.297 0 1.832 0 1.491 0 1.176.075.9.223m10.46 9.24-8.04-4.38C2.263 4.506 1.366 3.194 1.366 2.22v-.324c0-.163.028-.452.218-.558a.532.532 0 0 1 .252-.052c.193 0 .468.066.803.25l8.04 4.382c1.06.578 1.959 1.888 1.959 2.864v.322c0 .163-.03.454-.22.558a.583.583 0 0 1-.254.05c-.195 0-.466-.064-.801-.248" id="ao"/><path d="M0 1.392v.359C0 3.08.969 4.78 2.16 5.55l1.68 1.077C5.03 7.395 6 6.939 6 5.607V5.25c0-1.33-.969-3.03-2.162-3.796L2.16.374C1.769.122 1.4 0 1.083 0 .437 0 0 .5 0 1.392" id="ar"/><path d="M.929.235C.329.567 0 1.195 0 1.997v.34c0 1.506 1.2 3.347 2.728 4.198L4.57 7.558C5.1 7.851 5.626 8 6.11 8c.352 0 .674-.075.96-.235.599-.333.93-.959.93-1.764v-.339C8 4.16 6.8 2.318 5.272 1.467L3.432.44C2.9.15 2.372 0 1.888 0c-.35 0-.676.077-.96.235M5.275 6.38 3.432 5.356c-1.095-.609-2.023-1.991-2.023-3.018v-.341c0-.173.03-.479.228-.589.162-.086.548-.09 1.089.211l1.842 1.025c1.095.609 2.023 1.99 2.023 3.018v.34c0 .172-.03.478-.226.588a.592.592 0 0 1-.263.053c-.201 0-.481-.068-.828-.262" id="au"/><path id="ax" d="M.197.018.323 9l1.48-.018L1.675 0z"/><path id="aA" d="M.197.018.325 9l1.478-.018L1.677 0z"/><path id="aD" d="M.209 8.985 1.691 9l.1-8.985L.309 0z"/><path id="aG" d="M.21 8.987 1.69 9l.1-8.987L.308 0z"/><path d="M3.242.745c-.486.286-.828.593-1.028.916-.197.324-.237.689-.124 1.088l-.053.031-1.145-.494L0 2.811 10.502 9l1.1-.646-2.984-1.757c-.379-.226-.806-.444-1.281-.663l.079-.046c.624.056 1.22.02 1.784-.107a5.342 5.342 0 0 0 1.555-.606c.943-.556 1.351-1.186 1.221-1.889-.124-.7-.784-1.403-1.976-2.103C8.814.482 7.632.096 6.45.015A6.007 6.007 0 0 0 6.023 0c-1.01 0-1.938.248-2.781.745m4.17 4.54c-.78-.06-1.678-.387-2.696-.99l-.243-.143c-.887-.532-1.37-1.019-1.45-1.454-.08-.436.25-.873.993-1.309C4.658 1.01 5.4.857 6.237.931c.838.078 1.709.38 2.613.914.89.526 1.411 1.04 1.565 1.55.15.508-.086.945-.712 1.315-.661.39-1.334.585-2.016.585-.092 0-.183-.003-.274-.01" id="aJ"/><path d="M4.423 0c-.817.02-1.666.306-2.55.86a5.756 5.756 0 0 0-1.14.924A4.22 4.22 0 0 0 0 2.824l1.203.326c.403-.727.91-1.282 1.526-1.669.551-.343 1.087-.508 1.616-.49.527.016 1.08.208 1.661.57l.46.288-1.215.813C2.931 4.203 2.52 5.444 4.014 6.379a3.892 3.892 0 0 0 2.24.619c.794-.024 1.56-.264 2.293-.725.55-.344.926-.682 1.129-1.014.201-.335.257-.759.162-1.282l.055-.032 1.275.52.832-.52L6.947.78C6.117.259 5.305 0 4.517 0h-.094m.782 5.65c-.52-.324-.705-.685-.557-1.084.15-.4.655-.89 1.515-1.469l1.073-.73.67.418c.688.432 1.026.891 1.01 1.38-.017.488-.374.952-1.072 1.39-.44.275-.89.427-1.347.445a2.195 2.195 0 0 1-1.292-.35" id="aM"/><path d="M6.244.689c1.99 2.233 3.183 3.563 3.586 3.988.4.426.697.721.88.887l-.06.03c-.558-.196-1.555-.468-2.99-.816L1.308 3.286 0 3.976 11.343 6.53l.697.84c.583.685.456 1.247-.384 1.686a6.28 6.28 0 0 1-.99.429l.977.516a7.76 7.76 0 0 0 1.23-.516c.664-.35 1.037-.745 1.112-1.184.08-.445-.161-.993-.725-1.65L7.552 0 6.244.689Z" id="aP"/><path d="M0 2.77v29.454c0 2.475 1.709 5.484 3.818 6.723L9.72 42.41a.71.71 0 0 1 .297.461c.259 1.57 1.786 8.69 8.88 13.614.274.191.456-.084.274-.436-.951-1.84-2.776-5.922-2.059-9.008.035-.146.17-.193.317-.105l24.756 14.532C44.29 62.71 46 61.704 46 59.231V29.777c0-2.476-1.71-5.486-3.816-6.723L3.818.529C3.205.17 2.626 0 2.113 0 .86 0 0 1.015 0 2.77" id="aS"/><path d="M5.104 2.786C2.434 4.13.742 5.772 0 7.5c.742 1.727 2.433 3.372 5.104 4.714 7.399 3.715 19.393 3.715 26.79 0C34.565 10.872 36.26 9.227 37 7.5c-.74-1.728-2.435-3.371-5.106-4.714C28.194.928 23.348 0 18.5 0 13.652 0 8.803.928 5.104 2.786" id="aV"/><path id="aY" d="M.013 0h1.974v6H.013z"/><path id="bb" d="M.013 0h1.974v6H.013z"/><path id="be" d="M.013 0h1.974v6H.013z"/><path id="bh" d="M.013 0h1.974v6H.013z"/><path id="bk" d="M.013 0h1.974v6H.013z"/><path d="M0 2.77v29.454c0 2.475 1.71 5.484 3.816 6.723l5.904 3.466a.691.691 0 0 1 .297.459c.256 1.57 1.786 8.69 8.88 13.616.273.189.456-.088.275-.438-.953-1.84-2.777-5.92-2.06-9.008.033-.146.169-.191.316-.107l24.756 14.534C44.29 62.71 46 61.704 46 59.23V29.778c0-2.476-1.709-5.485-3.816-6.723L3.816.53C3.205.17 2.626 0 2.113 0 .86 0 0 1.015 0 2.77" id="bn"/><path id="bq" d="M0 0h5.55v9.717H0z"/><path d="M123.995 1.363 2.351 71.886c-3.482 2.02-3.046 5.547.976 7.878l74.088 43.306c4.02 2.333 10.106 2.587 13.588.567l121.646-70.52c3.482-2.022 3.046-5.55-.976-7.88L137.587 1.93C135.385.653 132.57 0 129.897 0c-2.213 0-4.324.449-5.902 1.363" id="bs"/><path d="M136.941.768c.708 1.46.132 2.822-1.622 3.836L13.597 74.98c-3.237 1.873-8.943 1.62-12.718-.564L0 75.944C2.353 77.304 5.305 78 8.116 78c2.365 0 4.633-.494 6.36-1.494L136.2 6.132c2.55-1.475 3.444-3.826 2.326-6.132l-1.585.768Z" id="bv"/><path id="by" d="M.013 0h1.974v6H.013z"/><path id="bB" d="M.013 0h1.974v6H.013z"/><path id="bE" d="M.013 0h1.974v6H.013z"/><path id="bH" d="M.013 0h1.974v7H.013z"/><linearGradient x1=".003%" y1="49.999%" x2="100%" y2="49.999%" id="b"><stop stop-color="#BFEDFF" offset="0%"/><stop stop-color="#E8FFF6" offset="100%"/></linearGradient><linearGradient x1=".64%" y1="50.012%" x2="99.38%" y2="50.012%" id="e"><stop stop-color="#BFEDFF" offset="0%"/><stop stop-color="#E8FFF6" offset="100%"/></linearGradient><linearGradient x1=".67%" y1="49.989%" x2="99.41%" y2="49.989%" id="h"><stop stop-color="#BFEDFF" offset="0%"/><stop stop-color="#E8FFF6" offset="100%"/></linearGradient><linearGradient x1=".68%" y1="50.008%" x2="99.41%" y2="50.008%" id="k"><stop stop-color="#BFEDFF" offset="0%"/><stop stop-color="#E8FFF6" offset="100%"/></linearGradient><linearGradient x1=".7%" y1="49.998%" x2="99.43%" y2="49.998%" id="n"><stop stop-color="#BFEDFF" offset="0%"/><stop stop-color="#E8FFF6" offset="100%"/></linearGradient><linearGradient x1=".6%" y1="50.014%" x2="99.33%" y2="50.014%" id="q"><stop stop-color="#BFEDFF" offset="0%"/><stop stop-color="#E8FFF6" offset="100%"/></linearGradient><linearGradient x1=".003%" y1="49.996%" x2="99.999%" y2="49.996%" id="t"><stop stop-color="#BFEDFF" offset="0%"/><stop stop-color="#E8FFF6" offset="100%"/></linearGradient><linearGradient x1=".618%" y1="50.026%" x2="99.348%" y2="50.026%" id="w"><stop stop-color="#BFEDFF" offset="0%"/><stop stop-color="#E8FFF6" offset="100%"/></linearGradient><linearGradient x1=".689%" y1="50.005%" x2="99.429%" y2="50.005%" id="z"><stop stop-color="#BFEDFF" offset="0%"/><stop stop-color="#E8FFF6" offset="100%"/></linearGradient><linearGradient x1=".65%" y1="50.021%" x2="99.39%" y2="50.021%" id="C"><stop stop-color="#BFEDFF" offset="0%"/><stop stop-color="#E8FFF6" offset="100%"/></linearGradient><linearGradient x1=".62%" y1="50.014%" x2="99.36%" y2="50.014%" id="F"><stop stop-color="#BFEDFF" offset="0%"/><stop stop-color="#E8FFF6" offset="100%"/></linearGradient><linearGradient x1=".72%" y1="49.997%" x2="99.46%" y2="49.997%" id="I"><stop stop-color="#BFEDFF" offset="0%"/><stop stop-color="#E8FFF6" offset="100%"/></linearGradient><linearGradient x1=".001%" y1="49.999%" x2="100.001%" y2="49.999%" id="L"><stop stop-color="#BFEDFF" offset="0%"/><stop stop-color="#E8FFF6" offset="100%"/></linearGradient><linearGradient x1="0%" y1="50%" x2="100%" y2="50%" id="O"><stop stop-color="#BFEDFF" offset="0%"/><stop stop-color="#E8FFF6" offset="100%"/></linearGradient><linearGradient x1="10.539%" y1="49.999%" x2="89.509%" y2="49.999%" id="R"><stop stop-color="#BFEDFF" offset="0%"/><stop stop-color="#E8FFF6" offset="100%"/></linearGradient><linearGradient x1=".009%" y1="50.009%" x2="100.031%" y2="50.009%" id="U"><stop stop-color="#BFEDFF" offset="0%"/><stop stop-color="#E8FFF6" offset="100%"/></linearGradient><linearGradient x1=".009%" y1="49.992%" x2="100.04%" y2="49.992%" id="X"><stop stop-color="#BFEDFF" offset="0%"/><stop stop-color="#E8FFF6" offset="100%"/></linearGradient><linearGradient x1="-.003%" y1="49.995%" x2="100%" y2="49.995%" id="aa"><stop stop-color="#BFEDFF" offset="0%"/><stop stop-color="#E8FFF6" offset="100%"/></linearGradient><linearGradient x1=".025%" y1="49.988%" x2="99.981%" y2="49.988%" id="ad"><stop stop-color="#BFEDFF" offset="0%"/><stop stop-color="#E8FFF6" offset="100%"/></linearGradient><linearGradient x1=".003%" y1="49.998%" x2="100.003%" y2="49.998%" id="ag"><stop stop-color="#BFEDFF" offset="0%"/><stop stop-color="#E8FFF6" offset="100%"/></linearGradient><linearGradient x1=".003%" y1="50%" x2="100.003%" y2="50%" id="aj"><stop stop-color="#BFEDFF" offset="0%"/><stop stop-color="#E8FFF6" offset="100%"/></linearGradient><linearGradient x1="-.009%" y1="49.994%" x2="100.008%" y2="49.994%" id="am"><stop stop-color="#BFEDFF" offset="0%"/><stop stop-color="#E8FFF6" offset="100%"/></linearGradient><linearGradient x1=".003%" y1="50.003%" x2="100.003%" y2="50.003%" id="ap"><stop stop-color="#BFEDFF" offset="0%"/><stop stop-color="#E8FFF6" offset="100%"/></linearGradient><linearGradient x1=".003%" y1="50.01%" x2="100%" y2="50.01%" id="as"><stop stop-color="#BFEDFF" offset="0%"/><stop stop-color="#E8FFF6" offset="100%"/></linearGradient><linearGradient x1="-.007%" y1="50.002%" x2="100.005%" y2="50.002%" id="av"><stop stop-color="#BFEDFF" offset="0%"/><stop stop-color="#E8FFF6" offset="100%"/></linearGradient><linearGradient x1="9.771%" y1="50%" x2="90.18%" y2="50%" id="ay"><stop stop-color="#BFEDFF" offset="0%"/><stop stop-color="#E8FFF6" offset="100%"/></linearGradient><linearGradient x1="9.8%" y1="49.996%" x2="90.22%" y2="49.996%" id="aB"><stop stop-color="#BFEDFF" offset="0%"/><stop stop-color="#E8FFF6" offset="100%"/></linearGradient><linearGradient x1="10.48%" y1="49.997%" x2="89.55%" y2="49.997%" id="aE"><stop stop-color="#BFEDFF" offset="0%"/><stop stop-color="#E8FFF6" offset="100%"/></linearGradient><linearGradient x1="10.47%" y1="49.996%" x2="89.44%" y2="49.996%" id="aH"><stop stop-color="#BFEDFF" offset="0%"/><stop stop-color="#E8FFF6" offset="100%"/></linearGradient><linearGradient x1=".004%" y1="50.008%" x2="100.008%" y2="50.008%" id="aK"><stop stop-color="#BFEDFF" offset="0%"/><stop stop-color="#E8FFF6" offset="100%"/></linearGradient><linearGradient x1=".007%" y1="49.99%" x2="99.998%" y2="49.99%" id="aN"><stop stop-color="#BFEDFF" offset="0%"/><stop stop-color="#E8FFF6" offset="100%"/></linearGradient><linearGradient x1="-.003%" y1="49.997%" x2="100.011%" y2="49.997%" id="aQ"><stop stop-color="#BFEDFF" offset="0%"/><stop stop-color="#E8FFF6" offset="100%"/></linearGradient><linearGradient x1=".001%" y1="50%" x2="99.998%" y2="50%" id="aT"><stop stop-color="#BFEDFF" offset="0%"/><stop stop-color="#E8FFF6" offset="100%"/></linearGradient><linearGradient x1="-.001%" y1="49.999%" x2="100%" y2="49.999%" id="aW"><stop stop-color="#BFEDFF" offset="0%"/><stop stop-color="#E8FFF6" offset="100%"/></linearGradient><linearGradient x1=".67%" y1="49.984%" x2="99.4%" y2="49.984%" id="aZ"><stop stop-color="#BFEDFF" offset="0%"/><stop stop-color="#E8FFF6" offset="100%"/></linearGradient><linearGradient x1=".65%" y1="49.993%" x2="99.38%" y2="49.993%" id="bc"><stop stop-color="#BFEDFF" offset="0%"/><stop stop-color="#E8FFF6" offset="100%"/></linearGradient><linearGradient x1=".65%" y1="49.994%" x2="99.39%" y2="49.994%" id="bf"><stop stop-color="#BFEDFF" offset="0%"/><stop stop-color="#E8FFF6" offset="100%"/></linearGradient><linearGradient x1=".57%" y1="50.016%" x2="99.31%" y2="50.016%" id="bi"><stop stop-color="#BFEDFF" offset="0%"/><stop stop-color="#E8FFF6" offset="100%"/></linearGradient><linearGradient x1=".67%" y1="50%" x2="99.409%" y2="50%" id="bl"><stop stop-color="#BFEDFF" offset="0%"/><stop stop-color="#E8FFF6" offset="100%"/></linearGradient><linearGradient x1=".002%" y1="50%" x2="100.002%" y2="50%" id="bo"><stop stop-color="#BFEDFF" offset="0%"/><stop stop-color="#E8FFF6" offset="100%"/></linearGradient><linearGradient x1="0%" y1="50%" x2="100%" y2="50%" id="bt"><stop stop-color="#BFEDFF" offset="0%"/><stop stop-color="#E8FFF6" offset="100%"/></linearGradient><linearGradient x1="-.001%" y1="49.999%" x2="100%" y2="49.999%" id="bw"><stop stop-color="#BFEDFF" offset="0%"/><stop stop-color="#E8FFF6" offset="100%"/></linearGradient><linearGradient x1=".599%" y1="50.002%" x2="99.329%" y2="50.002%" id="bz"><stop stop-color="#BFEDFF" offset="0%"/><stop stop-color="#E8FFF6" offset="100%"/></linearGradient><linearGradient x1=".65%" y1="49.993%" x2="99.39%" y2="49.993%" id="bC"><stop stop-color="#BFEDFF" offset="0%"/><stop stop-color="#E8FFF6" offset="100%"/></linearGradient><linearGradient x1=".649%" y1="49.99%" x2="99.389%" y2="49.99%" id="bF"><stop stop-color="#BFEDFF" offset="0%"/><stop stop-color="#E8FFF6" offset="100%"/></linearGradient><linearGradient x1=".689%" y1="49.984%" x2="99.419%" y2="49.984%" id="bI"><stop stop-color="#BFEDFF" offset="0%"/><stop stop-color="#E8FFF6" offset="100%"/></linearGradient></defs><g fill="none" fill-rule="evenodd"><path d="M479.614 313.604c-12.053 6.962-21.86 23.956-21.86 37.884 0 13.923 9.807 19.59 21.86 12.627 12.055-6.965 21.861-23.96 21.861-37.885 0-13.927-9.806-19.59-21.861-12.626m0 52.273c-12.893 7.449-23.382 1.388-23.382-13.51s10.489-33.075 23.382-40.524C492.509 304.392 503 310.45 503 325.348c0 14.9-10.49 33.08-23.386 40.529" fill="#2565C1"/><path d="M484.17 341.912c0-.894-.24-1.478-.717-1.754-.48-.277-1.403-.291-2.782-.043v7.243c2.335-1.718 3.5-3.537 3.5-5.446m-8.815-6.47c0 .943.24 1.56.724 1.851.482.293 1.322.348 2.515.17v-7.206c-1.067.813-1.87 1.665-2.417 2.559-.549.894-.822 1.77-.822 2.627m11.554 4.645c0 1.686-.548 3.398-1.644 5.13-1.096 1.728-2.626 3.306-4.595 4.728v4.32l-2.076 1.2v-4.151a25.04 25.04 0 0 1-3.497 1.694c-1.13.435-2.052.667-2.774.697v-2.903c.892-.056 1.923-.275 3.087-.659a16.662 16.662 0 0 0 3.184-1.399v-8.193c-2.203.466-3.749.421-4.634-.136-.886-.553-1.33-1.675-1.33-3.364 0-1.625.546-3.276 1.635-4.947 1.092-1.673 2.533-3.14 4.33-4.4v-3.388l2.075-1.2v3.35c1.978-1.08 3.886-1.721 5.724-1.926l-.84 2.923c-1.6.192-3.227.7-4.884 1.518v8.08c1.687-.354 2.95-.477 3.788-.374.839.107 1.458.427 1.855.959.396.535.596 1.347.596 2.441M371.174 347.844l-4.557-2.677.89-1.522 4.557 2.677-.89 1.522Zm9.112 5.349-4.555-2.674.89-1.522 4.555 2.677-.89 1.519Zm9.113 5.352-4.556-2.675.89-1.52 4.557 2.674-.891 1.52Zm9.112 5.352-4.556-2.677.89-1.519 4.557 2.675-.891 1.52Zm9.114 5.348-4.556-2.675.89-1.52 4.557 2.677-.891 1.518Zm58.112 3.757-1.607-.725 1.714-3.817 1.605.723-1.712 3.819Zm-48.998 1.595-4.557-2.675.89-1.52 4.557 2.675-.89 1.52Zm9.11 5.35-4.553-2.675.89-1.518 4.555 2.673-.892 1.52Zm35.562 2.7-1.607-.722 2.162-4.822 1.607.719-2.162 4.826Zm-26.448 2.65-4.555-2.674.89-1.52 4.557 2.676-.892 1.519Zm9.114 5.353-4.557-2.675.89-1.52 4.557 2.674-.89 1.52Zm13.007 1.642-1.605-.723 2.162-4.822 1.607.723-2.164 4.822ZM453.19 396l-4.555-2.677.89-1.519 4.555 2.676-.89 1.52ZM324.103 111.07l-4.85-5.35 1.675-1.72 4.848 5.35-1.673 1.72Zm9.696 10.7-4.848-5.35 1.676-1.721 4.848 5.35-1.676 1.72Zm9.583 10.744a128.915 128.915 0 0 0-3.616-4.16l-1.118-1.234 1.675-1.72 1.118 1.234a133.993 133.993 0 0 1 3.681 4.237l-1.74 1.643Zm8.612 11.53a139.6 139.6 0 0 0-4.16-5.888l1.822-1.542a138.564 138.564 0 0 1 4.233 5.994l-1.895 1.437Zm7.383 12.452a139.754 139.754 0 0 0-3.537-6.334l1.967-1.324a145.881 145.881 0 0 1 3.603 6.448l-2.033 1.21Zm6.082 13.226a140.908 140.908 0 0 0-2.874-6.702l2.09-1.088a144.437 144.437 0 0 1 2.926 6.822l-2.142.968Zm4.703 13.845a146.94 146.94 0 0 0-2.176-6.99l2.188-.843a148.999 148.999 0 0 1 2.215 7.119l-2.227.714Zm3.267 14.308c-.422-2.405-.911-4.829-1.452-7.202l2.258-.586a142.987 142.987 0 0 1 1.48 7.333l-2.286.455Zm1.796 14.593a143.76 143.76 0 0 0-.713-7.322l2.31-.325c.305 2.479.549 4.988.727 7.458l-2.324.19Zm.71 14.81-.326-7.423 2.324-.115.324 7.423-2.322.116Zm.655 14.852-.328-7.426 2.324-.114.326 7.424-2.322.116Zm.653 14.852-.33-7.426 2.324-.118.328 7.426-2.322.118ZM431.381 229.308l-.88-1.525 4.53-2.618.923.532-.597 1.046.116.202-.394.28-.045-.027-3.653 2.11Zm12.856 3.185-4.578-2.632.877-1.53 4.579 2.634-.878 1.528Zm-22.009 2.1-.88-1.527 4.576-2.643.882 1.526-4.578 2.645Zm31.171 3.17-4.582-2.634.878-1.53 4.582 2.636-.878 1.528Zm-40.322 2.113-.88-1.526 4.575-2.64.881 1.523-4.576 2.643Zm49.48 3.155-4.58-2.634.878-1.53 4.58 2.637-.877 1.527Zm-58.632 2.13-.88-1.528 4.578-2.638.879 1.524-4.577 2.641Zm67.793 3.142-4.58-2.638.878-1.526 4.58 2.634-.878 1.53Zm-76.942 2.143-.883-1.526 4.578-2.643.88 1.526-4.575 2.643Zm86.044 3.091-4.52-2.6.876-1.528 4.521 2.6-.877 1.528Zm-95.198 2.193-.879-1.525 4.575-2.642.881 1.526-4.577 2.641Zm-9.15 5.286-.88-1.529 4.574-2.64.882 1.525-4.575 2.644Zm-9.152 5.285-.882-1.528 4.577-2.641.88 1.526-4.575 2.643Zm-9.152 5.28-.88-1.526 4.576-2.64.88 1.527-4.576 2.64ZM131.202 320.777l-2.142-1.217-1.57.907-.877-1.528 2.442-1.408 3.016 1.715-.869 1.531Zm-12.872 4.963-.876-1.527 4.577-2.636.88 1.527-4.58 2.636Zm22.061.254-4.594-2.61.87-1.529 4.596 2.606-.872 1.533Zm69.373 1.495-.904-1.511 1.825-1.094.906 1.51-1.827 1.095Zm-100.59 3.526-.878-1.525 4.582-2.64.876 1.53-4.58 2.635Zm40.41.197-4.597-2.61.87-1.532 4.595 2.609-.869 1.533Zm51.114 1.708-.906-1.512 4.534-2.714.906 1.51-4.534 2.716Zm-100.68 3.37-.879-1.527 4.58-2.64.876 1.53-4.577 2.638Zm58.754.138-4.594-2.607.869-1.533 4.596 2.609-.87 1.531Zm32.86 1.924-.904-1.512 4.534-2.716.904 1.512-4.533 2.716Zm-100.77 3.212-.88-1.527 4.579-2.638.88 1.53-4.58 2.635Zm77.101.08-4.596-2.609.87-1.529 4.596 2.607-.87 1.532Zm14.606 2.139-.905-1.51 4.532-2.716.905 1.51-4.532 2.716ZM81.703 346.84l-.877-1.528 4.578-2.636.877 1.526-4.578 2.638Zm95.592.103-4.738-2.69.87-1.53 4.29 2.434-.235.415.553.927-.74.444Zm-104.749 5.172-.879-1.53 4.58-2.635.88 1.527-4.58 2.638ZM119.663 132.76l-.863-1.537 4.607-2.588.863 1.539-4.607 2.585Zm-9.22 5.171-.857-1.536 4.609-2.586.858 1.536-4.61 2.586Zm-9.211 5.172-.863-1.535 4.608-2.587.862 1.536-4.607 2.586Zm-9.216 5.174-.861-1.537 4.607-2.586.861 1.537-4.607 2.586Zm1.357 5.24L88.8 150.87l.883-1.523 4.573 2.645-.883 1.526Zm9.15 5.294-4.577-2.647.883-1.524 4.573 2.645-.879 1.526Zm9.144 5.291-4.573-2.646.881-1.524 4.573 2.646-.88 1.524Zm9.148 5.295-4.575-2.646.88-1.524 4.576 2.646-.88 1.524Zm9.145 5.293-4.572-2.646.88-1.524 4.573 2.646-.881 1.524Zm9.147 5.294-4.573-2.647.881-1.524 4.573 2.645-.88 1.526Zm9.145 5.293-4.572-2.647.882-1.524 4.57 2.645-.88 1.526Z" fill="#2565C1"/><path d="M78.357 353.5c-2.773-3.473-5.82-2.783-13.503-4.5-6.604-1.479-13.51-1.41-20.065.28-6.514 1.678-10.478 2.763-13.172 5.82l-3.472 1.8.009 7.213.021.182c.146 4.859 4.118 9.417 12.014 12.672 7.851 3.237 16.609 3.735 24.865 1.745 11.664-2.81 17.525-8.678 17.707-14.594l.021-.28V356.9l-4.425-3.402Z" fill="#2565C1"/><path d="m29.29 357.597.022 6.556c.146 4.67 4.16 8.806 11.311 11.756 7.418 3.057 15.999 3.656 24.164 1.69 10.2-2.46 16.65-7.639 16.83-13.515l.026-.341-.003-6.277-4.177-3.253c-1.716-2.147-3.466-2.43-7.297-3.055-1.496-.245-3.36-.548-5.561-1.039-6.467-1.449-13.22-1.356-19.53.272-6.615 1.702-10.179 2.72-12.6 5.466l-.33.26-2.855 1.48Zm25.942 23.428c-5.363 0-10.651-1.008-15.48-3-8.038-3.312-12.555-8.177-12.721-13.697l-.013-.075-.018-8.046 3.905-2.028c2.998-3.276 7.46-4.426 13.597-6.009 6.658-1.713 13.782-1.81 20.602-.289 2.135.479 3.887.764 5.43 1.016 3.971.646 6.388 1.04 8.628 3.776l4.766 3.664-.027 7.875c-.212 7.003-7.16 12.86-18.577 15.614a43.163 43.163 0 0 1-10.092 1.199Z" fill="#2565C1"/><path d="M74.781 345.742c10.668 6.163 10.668 16.156 0 22.319-10.667 6.164-27.966 6.164-38.635 0-10.67-6.163-10.67-16.156 0-22.319 10.67-6.164 27.968-6.164 38.635 0" fill="#FFF"/><path d="M55.464 342.257c-6.788 0-13.577 1.492-18.745 4.477-4.79 2.767-7.429 6.379-7.429 10.167 0 3.789 2.638 7.403 7.429 10.167 10.335 5.971 27.154 5.971 37.49 0 4.79-2.764 7.43-6.378 7.43-10.167 0-3.788-2.64-7.4-7.428-10.167h-.002c-5.169-2.985-11.955-4.477-18.745-4.477m0 31.548c-7.204 0-14.404-1.583-19.89-4.752C30.046 365.86 27 361.545 27 356.9c0-4.643 3.046-8.957 8.575-12.151 10.967-6.334 28.814-6.337 39.779 0 5.529 3.194 8.574 7.508 8.574 12.151 0 4.644-3.045 8.959-8.576 12.152-5.48 3.167-12.686 4.752-19.888 4.752" fill="#2565C1"/><path d="M68.954 350.094c-7.45-3.758-19.529-3.758-26.98 0-7.45 3.758-7.45 9.855 0 13.615 7.451 3.758 19.53 3.758 26.98 0 7.451-3.76 7.451-9.857 0-13.615" fill="#2565C1"/><path d="M55.464 348.41c-4.698 0-9.398.902-12.974 2.708-3.151 1.59-4.96 3.698-4.96 5.784s1.809 4.194 4.96 5.786c7.152 3.606 18.794 3.606 25.95 0 3.15-1.592 4.957-3.7 4.957-5.786 0-2.086-1.806-4.196-4.958-5.784-3.576-1.806-8.276-2.707-12.975-2.707m0 19.243c-5.073 0-10.143-.974-14.005-2.921-4.01-2.024-6.217-4.804-6.217-7.831 0-3.025 2.208-5.805 6.217-7.83 7.723-3.899 20.288-3.899 28.011 0h.002c4.007 2.023 6.214 4.803 6.214 7.83s-2.207 5.807-6.214 7.83c-3.863 1.948-8.936 2.922-14.008 2.922" fill="#2565C1"/><g transform="translate(36 352)"><mask id="c" fill="#fff"><use xlink:href="#a"/></mask><path d="M5.105 2.785C2.435 4.13.744 5.772 0 7.499c.744 1.728 2.435 3.373 5.105 4.715 7.399 3.715 19.391 3.715 26.788 0C34.567 10.872 36.258 9.227 37 7.5c-.742-1.727-2.433-3.369-5.107-4.714C28.195.929 23.349 0 18.5 0 13.653 0 8.805.93 5.105 2.785" fill="url(#b)" mask="url(#c)"/></g><path d="M37.469 359.501c.75 1.357 2.224 2.612 4.302 3.656 7.018 3.517 18.436 3.517 25.458 0 2.075-1.044 3.552-2.299 4.3-3.656-.75-1.357-2.225-2.612-4.3-3.654-7.02-3.519-18.436-3.519-25.458 0-2.078 1.042-3.552 2.297-4.302 3.654M54.499 368c-4.975 0-9.951-.95-13.74-2.85-2.778-1.394-4.704-3.195-5.57-5.209l-.189-.44.189-.44c.866-2.012 2.792-3.815 5.573-5.207 7.574-3.807 19.9-3.804 27.476 0 2.779 1.392 4.703 3.193 5.573 5.207l.189.44-.189.44c-.87 2.015-2.794 3.815-5.573 5.209-3.786 1.9-8.764 2.85-13.74 2.85" fill="#2565C1"/><g transform="translate(73 369)"><mask id="f" fill="#fff"><use xlink:href="#d"/></mask><path fill="url(#e)" mask="url(#f)" d="M.013 6h1.974V0H.013z"/></g><g transform="translate(76 365)"><mask id="i" fill="#fff"><use xlink:href="#g"/></mask><path fill="url(#h)" mask="url(#i)" d="M.013 6h1.974V0H.013z"/></g><g transform="translate(30 365)"><mask id="l" fill="#fff"><use xlink:href="#j"/></mask><path fill="url(#k)" mask="url(#l)" d="M.013 6h1.974V0H.013z"/></g><g transform="translate(41 350)"><mask id="o" fill="#fff"><use xlink:href="#m"/></mask><path fill="url(#n)" mask="url(#o)" d="M.013 6h1.974V0H.013z"/></g><g transform="translate(46 348)"><mask id="r" fill="#fff"><use xlink:href="#p"/></mask><path fill="url(#q)" mask="url(#r)" d="M.013 6h1.974V0H.013z"/></g><path d="M512.519 249.49c-2.729-3.468-5.725-2.778-13.283-4.495-6.497-1.479-13.29-1.41-19.737.28-6.406 1.676-10.308 2.762-12.957 5.816l-3.414 1.799.007 7.209.021.18c.144 4.856 4.051 9.41 11.818 12.664 7.725 3.235 16.337 3.733 24.46 1.744 11.474-2.809 17.237-8.673 17.416-14.583l.021-.282v-6.932l-4.352-3.4Z" fill="#2565C1"/><path d="m464.253 253.585.023 6.553c.142 4.665 4.091 8.8 11.126 11.749 7.295 3.055 15.738 3.656 23.766 1.687 10.035-2.458 16.38-7.631 16.557-13.504l.028-.346-.004-6.269-4.109-3.25c-1.69-2.146-3.41-2.43-7.179-3.054-1.474-.245-3.307-.548-5.472-1.038-6.356-1.447-12.999-1.354-19.21.27-6.505 1.702-10.01 2.719-12.393 5.464l-.326.26-2.807 1.478ZM489.768 277c-5.272 0-10.474-1.01-15.225-3-7.906-3.312-12.35-8.173-12.511-13.688l-.014-.074-.018-8.042 3.84-2.026c2.95-3.274 7.34-4.423 13.377-6.005 6.55-1.712 13.56-1.81 20.263-.289 2.102.478 3.823.764 5.342 1.015 3.906.646 6.285 1.04 8.488 3.774l4.69 3.661-.03 7.876c-.207 6.993-7.04 12.846-18.274 15.598a41.739 41.739 0 0 1-9.928 1.2Z" fill="#2565C1"/><path d="M509.001 241.739c10.495 6.158 10.495 16.145 0 22.305-10.493 6.158-27.51 6.158-38.004 0-10.495-6.16-10.495-16.147.002-22.305 10.493-6.158 27.51-6.158 38.002 0" fill="#FFF"/><path d="M490 238.256c-6.678 0-13.356 1.49-18.44 4.474-4.71 2.768-7.31 6.376-7.307 10.162 0 3.785 2.596 7.396 7.307 10.16 10.169 5.968 26.715 5.966 36.88 0 4.712-2.766 7.307-6.375 7.307-10.162 0-3.786-2.595-7.392-7.307-10.16-5.085-2.983-11.762-4.474-18.44-4.474m0 31.527c-7.087 0-14.172-1.582-19.565-4.75-5.44-3.19-8.433-7.502-8.435-12.14 0-4.641 2.995-8.952 8.435-12.146 10.788-6.33 28.341-6.33 39.13 0 5.44 3.194 8.433 7.505 8.433 12.143 0 4.64-2.993 8.953-8.434 12.144-5.393 3.165-12.479 4.749-19.563 4.749" fill="#2565C1"/><path d="M503.269 246.09c-7.329-3.758-19.21-3.758-26.54 0-7.328 3.755-7.328 9.846 0 13.603 7.33 3.756 19.211 3.756 26.54 0 7.33-3.757 7.33-9.848 0-13.604" fill="#2565C1"/><path d="M490 244.405c-4.622 0-9.243.903-12.761 2.706-3.102 1.589-4.88 3.697-4.88 5.78 0 2.085 1.778 4.19 4.88 5.782 7.035 3.606 18.486 3.606 25.522 0 3.102-1.591 4.879-3.697 4.879-5.782 0-2.083-1.777-4.193-4.88-5.78-3.517-1.803-8.138-2.706-12.76-2.706m0 19.23c-4.989 0-9.978-.973-13.777-2.919-3.944-2.02-6.116-4.8-6.116-7.825 0-3.023 2.172-5.802 6.116-7.824 7.6-3.893 19.955-3.893 27.555 0 3.942 2.02 6.114 4.8 6.114 7.824s-2.172 5.805-6.114 7.825c-3.8 1.946-8.79 2.92-13.777 2.92" fill="#2565C1"/><g transform="translate(471 247)"><mask id="u" fill="#fff"><use xlink:href="#s"/></mask><path d="M5.105 2.787C2.435 4.129.744 5.772 0 7.499c.744 1.728 2.435 3.372 5.105 4.714 7.399 3.716 19.391 3.716 26.788 0 2.672-1.342 4.365-2.986 5.107-4.714-.742-1.727-2.433-3.37-5.107-4.712C28.195.929 23.347 0 18.5 0 13.651 0 8.805.93 5.105 2.787" fill="url(#t)" mask="url(#u)"/></g><path d="M472.469 254.5c.749 1.355 2.224 2.613 4.303 3.656 7.018 3.52 18.438 3.52 25.456 0 2.079-1.043 3.556-2.301 4.303-3.657-.747-1.356-2.224-2.61-4.303-3.655-7.018-3.518-18.438-3.518-25.456 0-2.079 1.044-3.554 2.3-4.303 3.655M489.5 263c-4.976 0-9.951-.95-13.74-2.851-2.78-1.394-4.707-3.196-5.573-5.211l-.187-.439.187-.438c.866-2.013 2.793-3.816 5.573-5.21 7.575-3.801 19.901-3.801 27.481 0 2.78 1.394 4.704 3.197 5.572 5.21l.187.438-.187.439c-.868 2.015-2.793 3.817-5.572 5.211-3.788 1.9-8.766 2.851-13.741 2.851" fill="#2565C1"/><g transform="translate(509 265)"><mask id="x" fill="#fff"><use xlink:href="#v"/></mask><path fill="url(#w)" mask="url(#x)" d="M.013 6h1.974V0H.013z"/></g><g transform="translate(512 262)"><mask id="A" fill="#fff"><use xlink:href="#y"/></mask><path fill="url(#z)" mask="url(#A)" d="M.013 6h1.974V0H.013z"/></g><g transform="translate(466 262)"><mask id="D" fill="#fff"><use xlink:href="#B"/></mask><path fill="url(#C)" mask="url(#D)" d="M.012 6h1.976V0H.012z"/></g><g transform="translate(477 245)"><mask id="G" fill="#fff"><use xlink:href="#E"/></mask><path fill="url(#F)" mask="url(#G)" d="M.013 6h1.974V0H.013z"/></g><g transform="translate(481 244)"><mask id="J" fill="#fff"><use xlink:href="#H"/></mask><path fill="url(#I)" mask="url(#J)" d="M.013 6h1.974V0H.013z"/></g><path d="m504.2 230.796 8.165-5.264a.147.147 0 0 0 .032-.215l-10.37-12.559a.144.144 0 0 0-.252.061l-1.652 7.642-.004.022-.396 5.244a.154.154 0 0 0 .036.105l4.252 4.935a.146.146 0 0 0 .188.029" fill="#2565C1"/><path d="m500.627 225.488 3.635 4.216 6.925-4.466-8.871-10.742-1.33 6.151-.359 4.84Zm3.491 6.214c-.293 0-.58-.127-.78-.366l-4.494-5.216v-.473l.394-5.232 1.79-8.32.643-.242a1.02 1.02 0 0 1 1.035.341l10.63 12.872-.037.511c-.046.286-.215.54-.458.695l-8.18 5.278c-.17.102-.356.152-.543.152Z" fill="#2565C1"/><path d="m535.124 192.845-38.97-22.452c-.975-.563-1.86-.649-2.542-.36l-7.621 4.557a.212.212 0 0 0-.05.327l9.107 9.609c.037.04.057.091.057.145v15.877c0 2.528 1.796 5.633 3.993 6.898l5.81 3.348c.142.199.266.372.407.572.29 1.678 1.894 8.687 9.034 13.55.28.192.466-.085.281-.433-.938-1.778-2.703-5.646-2.162-8.687.297-.13.342-.149.639-.277l12.024 6.925a.227.227 0 0 1 .09.109l5.017 13.367a.21.21 0 0 0 .301.109l7.541-4.528c.641-.43 1.035-1.263 1.035-2.435v-29.32c0-2.53-1.794-5.636-3.99-6.901" fill="#FFF"/><path d="m513.167 214.532 12.682 7.31.2.405 4.734 12.605 6.841-4.107c.38-.256.609-.86.609-1.678v-29.32c0-2.22-1.626-5.028-3.55-6.138l-38.97-22.454c-.68-.391-1.305-.502-1.755-.309l-6.796 4.072 8.771 9.257.055.495v15.875c0 2.218 1.626 5.026 3.55 6.136l6.088 3.6.562.936c.204 1.192 1.421 6.806 6.574 11.353-.843-2.067-1.568-4.667-1.165-6.93l.084-.469 1.486-.64ZM530.638 237l-.57-.123a1.098 1.098 0 0 1-.656-.649l-4.934-13.14-11.218-6.464c-.152 2.73 1.423 6.064 2.153 7.445.292.552.215 1.167-.193 1.528-.376.338-.925.354-1.371.048-7.099-4.838-8.94-11.65-9.37-13.93l-.18-.253-5.643-3.253c-2.487-1.433-4.435-4.8-4.435-7.664V184.94l-8.919-9.418a1.087 1.087 0 0 1 .254-1.7l7.602-4.543c1.083-.477 2.267-.33 3.44.348l38.97 22.456c2.484 1.431 4.432 4.798 4.432 7.664v29.32c0 1.422-.505 2.548-1.425 3.166L530.638 237Z" fill="#2565C1"/><g transform="translate(485 175)"><mask id="M" fill="#fff"><use xlink:href="#K"/></mask><path d="M0 2.77v29.454c0 2.475 1.709 5.484 3.816 6.723L9.72 42.41a.693.693 0 0 1 .295.461c.258 1.568 1.786 8.69 8.881 13.614.276.191.457-.088.278-.436-.955-1.843-2.78-5.922-2.062-9.008.033-.146.169-.193.314-.107L42.184 61.47C44.29 62.71 46 61.704 46 59.228V29.775c0-2.474-1.709-5.484-3.816-6.721L3.816.53C3.205.17 2.625 0 2.111 0 .86 0 0 1.014 0 2.77" fill="url(#L)" mask="url(#M)"/></g><path d="M502.928 221.018c.2 0 .403.052.586.163l25.11 14.558c.737.426 1.413.527 1.857.27.44-.255.694-.893.694-1.749v-29.503c0-2.156-1.573-4.89-3.433-5.97l-38.915-22.56c-.738-.427-1.414-.527-1.854-.271-.442.256-.696.891-.696 1.75v29.502c0 2.156 1.571 4.89 3.431 5.968l5.987 3.473c.373.215.655.627.73 1.076.2 1.202 1.383 6.849 6.556 11.434-.888-2.191-1.637-4.966-1.084-7.312l.102-.431.511-.312c.132-.06.275-.086.418-.086m26.986 16.904c-.685 0-1.421-.22-2.172-.654l-24.265-14.067c-.152 2.723 1.405 6.05 2.145 7.462.289.55.212 1.164-.191 1.526-.37.34-.92.352-1.364.053-7.385-5.065-9.069-12.454-9.363-14.128l-5.877-3.407c-2.418-1.404-4.31-4.695-4.31-7.499v-29.501c0-1.53.559-2.693 1.575-3.282 1.011-.59 2.298-.496 3.616.272l38.915 22.562c2.418 1.4 4.311 4.694 4.311 7.498v29.503c0 1.528-.558 2.691-1.574 3.282-.437.253-.927.38-1.446.38" fill="#2565C1"/><path fill="#2565C1" d="m530.399 199.216-.914-1.513 6.781-4.136.916 1.511zM494.105 178.308l-.915-1.512 6.781-4.136.916 1.512zM532.525 207.219l-.941-1.495 7.475-4.748.941 1.496zM539.778 205.803l-7.724 4.698v25.58l7.474-4.113.25-1.833zM498.35 163.148l-1.753-.143.699-8.517 1.754.145zM491.014 164.166l-3.935-9.013 1.612-.711 3.935 9.013zM486.426 167.575l-7.108-4.032.867-1.54 7.107 4.033z"/><path d="m501.52 203.582 7.514 13.819 7.514-5.103-3.3-1.916a1.62 1.62 0 0 1-.772-1.34V197.66l-7.502-4.347v10.358c0 .419-.201.784-.536.98-.336.196-.75.185-1.111-.02l-1.806-1.05Zm7.618 15.881-.526-.071c-.368-.09-.694-.358-.903-.736l-8.726-16.05c-.305-.553-.25-1.183.136-1.56.353-.345.872-.393 1.321-.13l2.773 1.608v-10.358c0-.42.201-.786.542-.983.338-.193.756-.183 1.116.029l8.594 4.983c.455.263.77.814.77 1.34v11.379l3.66 2.122c.438.252.748.77.768 1.289.018.412-.155.773-.471.99l-9.054 6.148Z" fill="#FFF"/><path d="M67.506 243.317c1.678 2.52 4.315 4.94 7.933 7.036L300.92 381.03c12.197 7.068 30.65 7.835 41.213 1.708l98.73-57.257c4.466-2.591 6.78-5.998 7.074-9.602l.016-.01c1.11-5.937-.592-12.762-.592-12.762l-6.57.37-.007.022a31.061 31.061 0 0 0-2.884-1.912L212.42 170.91c-12.198-7.07-30.649-7.835-41.211-1.71l-98.733 57.261-7.507-.395s-2.865 8.16 2.072 16.542c.029.05.057.08.084.128.107.176.226.351.344.527.01.018.025.036.037.054" fill="#2565C1"/><path d="m68.436 242.649.022.03c1.656 2.487 4.197 4.734 7.553 6.677L301.49 380.034c11.864 6.876 29.84 7.642 40.068 1.712l98.732-57.26c3.98-2.31 6.23-5.318 6.506-8.699l.121-.653c.667-4.244-.084-8.89-.467-10.825l-4.8.272-.239.779-1.305-.935a29.476 29.476 0 0 0-2.778-1.842l-225.48-130.679c-11.86-6.875-29.839-7.64-40.068-1.708l-99.025 57.429-6.931-.363c-.525 2.187-1.517 8.447 2.204 14.76.144.233.223.35.3.466l-.83.818.938-.657ZM324.231 388c-8.313 0-17.068-2.023-23.888-5.973L74.868 251.347c-3.657-2.118-6.453-4.603-8.308-7.382l-.135-.2c-.096-.144-.19-.289-.278-.432-5.242-8.883-2.38-17.294-2.258-17.649l.286-.81 8.022.423 98.437-57.09c10.864-6.299 29.862-5.53 42.36 1.708l225.479 130.677a30.484 30.484 0 0 1 2.624 1.715l7.143-.401.23.92c.073.29 1.748 7.14.608 13.258l-.02.099c-.411 4.08-3.041 7.634-7.624 10.29l-98.73 57.26c-4.935 2.861-11.551 4.267-18.473 4.267Z" fill="#2565C1"/><path d="m72.06 216.52 98.73-57.26c10.564-6.125 29.016-5.362 41.214 1.71l225.48 130.675c12.197 7.07 13.524 17.767 2.961 23.894l-98.731 57.259c-10.561 6.125-29.014 5.358-41.212-1.71L75.023 240.41c-12.2-7.069-13.526-17.767-2.963-23.892" fill="#FFF"/><path d="M188.693 156.263c-6.505 0-12.708 1.31-17.33 3.99l-98.73 57.26c-4.23 2.452-6.559 5.784-6.559 9.383 0 4.451 3.472 9.013 9.52 12.52l225.48 130.677c11.863 6.876 29.84 7.639 40.068 1.71l98.73-57.26c4.23-2.453 6.56-5.785 6.56-9.382 0-4.45-3.47-9.014-9.52-12.521l-225.48-130.675c-6.505-3.77-14.846-5.702-22.74-5.702m135.122 221.794c-8.312 0-17.067-2.025-23.884-5.974L74.451 241.406c-6.777-3.928-10.664-9.217-10.664-14.51 0-4.455 2.733-8.492 7.7-11.371l98.732-57.26c10.858-6.298 29.864-5.531 42.36 1.707l225.479 130.68c6.773 3.927 10.662 9.214 10.662 14.509 0 4.453-2.735 8.49-7.7 11.37l-98.732 57.26c-4.935 2.863-11.552 4.266-18.474 4.266" fill="#2565C1"/><g transform="translate(72 163)"><mask id="P" fill="#fff"><use xlink:href="#N"/></mask><path d="m98.908 4.265-7.307 4.234c-2.368 1.37-2.363 3.61.007 4.973 2.373 1.36 2.375 3.6.01 4.972L36.62 50.313c-2.368 1.371-6.244 1.378-8.616.014-2.371-1.362-6.248-1.356-8.615.016L3.985 59.27c-5.321 3.083-5.312 8.111.02 11.175l228.516 131.352c9.794 5.63 25.8 5.6 35.571-.062l94.925-55.002c5.318-3.085 5.31-8.114-.02-11.175L134.481 4.204C129.604 1.4 123.184 0 116.762 0c-6.473 0-12.948 1.42-17.854 4.265" fill="url(#O)" mask="url(#P)"/></g><g fill="#2565C1"><path d="M95.838 212.772c-1.365 0-2.73.295-3.747.886L76.7 222.615c-2.2 1.28-3.41 2.92-3.41 4.614 0 1.7 1.22 3.335 3.426 4.609l228.34 131.807c9.49 5.477 24.92 5.452 34.396-.063l94.85-55.194c2.202-1.281 3.41-2.92 3.41-4.617 0-1.698-1.22-3.335-3.426-4.607L205.946 167.358c-9.492-5.478-24.924-5.453-34.395.062l-7.304 4.25c-.763.443-1.2.99-1.2 1.5.001.509.44 1.053 1.206 1.498 1.493.86 2.35 2.131 2.353 3.484.002 1.354-.85 2.627-2.34 3.496l-54.957 31.98c-2.729 1.587-7.015 1.598-9.754.016-1.006-.582-2.362-.872-3.717-.872M322.185 370c-6.618 0-13.229-1.453-18.273-4.364L75.575 233.83c-2.946-1.7-4.575-4.043-4.575-6.596 0-2.552 1.611-4.899 4.552-6.608l15.392-8.958c2.732-1.589 7.014-1.6 9.753-.018 2.024 1.17 5.443 1.163 7.462-.014l54.957-31.978c.764-.444 1.201-.992 1.201-1.5-.002-.511-.44-1.058-1.206-1.498-1.494-.864-2.352-2.134-2.354-3.486-.002-1.354.851-2.626 2.341-3.495l7.302-4.249c10.105-5.88 26.564-5.911 36.688-.064L435.425 297.17c2.948 1.701 4.575 4.044 4.575 6.597.005 2.55-1.611 4.899-4.552 6.61L340.6 365.574c-5.071 2.95-11.746 4.426-18.415 4.426"/><path d="M144.783 182.647c-1.345-.78-1.345-2.044-.002-2.823 1.346-.781 3.528-.781 4.872 0 1.345.777 1.345 2.042 0 2.823-1.344.781-3.525.781-4.87 0M108.786 200.694l28.639-16.605c1.163-.673 3.199-.59 4.544.19 1.346.78 1.492 1.958.327 2.633l-28.64 16.604c-1.164.675-3.198.59-4.542-.187-1.346-.78-1.492-1.96-.328-2.635"/></g><g transform="translate(319 377)"><mask id="S" fill="#fff"><use xlink:href="#Q"/></mask><path fill="url(#R)" mask="url(#S)" d="M.21 8.985 1.692 9 1.79.013.31 0z"/></g><g transform="translate(441 315)"><mask id="V" fill="#fff"><use xlink:href="#T"/></mask><path d="M.042.374C.057.416 1.4 4.434 0 8.636L1.3 9c1.52-4.568.1-8.821.038-9L.042.374Z" fill="url(#U)" mask="url(#V)"/></g><g transform="translate(436 317)"><mask id="Y" fill="#fff"><use xlink:href="#W"/></mask><path d="M.042.373C.057.413 1.4 4.433 0 8.636L1.298 9c1.525-4.568.1-8.821.04-9L.042.373Z" fill="url(#X)" mask="url(#Y)"/></g><g transform="translate(74 241)"><mask id="ab" fill="#fff"><use xlink:href="#Z"/></mask><path d="M.68 9 2 8.717C1.161 5.326 1.386.104 1.388.051L.033 0c-.01.218-.236 5.442.646 9" fill="url(#aa)" mask="url(#ab)"/></g><g transform="translate(70 239)"><mask id="ae" fill="#fff"><use xlink:href="#ac"/></mask><path d="M.678 9 2 8.715C1.16 5.325 1.387.104 1.389.051L.034 0c-.01.218-.238 5.44.644 9" fill="url(#ad)" mask="url(#ae)"/></g><g transform="translate(123 271)"><mask id="ah" fill="#fff"><use xlink:href="#af"/></mask><path d="M.845.232C.3.562 0 1.18 0 1.972v.337c0 1.483 1.089 3.305 2.477 4.143l13.409 8.11c.48.291.959.438 1.398.438.318 0 .613-.078.87-.232.547-.331.846-.949.846-1.742v-.337c0-1.485-1.087-3.303-2.477-4.143L3.116.435C2.634.147 2.153 0 1.716 0c-.318 0-.613.076-.87.232M16.525 13.4 3.115 5.288c-.994-.6-1.835-1.965-1.835-2.98v-.336c0-.168.026-.47.204-.58a.464.464 0 0 1 .236-.052c.183 0 .441.067.756.26l13.407 8.108c.995.602 1.835 1.967 1.835 2.981v.337c0 .17-.026.473-.204.58a.486.486 0 0 1-.235.052c-.183 0-.439-.067-.755-.257" fill="url(#ag)" mask="url(#ah)"/></g><g transform="translate(144 284)"><mask id="ak" fill="#fff"><use xlink:href="#ai"/></mask><path d="M.845.232C.301.562 0 1.18 0 1.974v.337c0 1.483 1.089 3.303 2.478 4.143l13.408 8.106c.48.292.962.44 1.4.44.316 0 .613-.076.869-.234.544-.327.845-.945.845-1.742v-.335c0-1.483-1.085-3.303-2.475-4.143L3.118.436C2.636.146 2.155 0 1.716 0 1.4 0 1.103.076.846.232m15.68 13.165L3.119 5.29C2.122 4.689 1.28 3.325 1.28 2.31v-.336c0-.172.027-.473.205-.581a.47.47 0 0 1 .234-.053c.186 0 .442.067.758.26l13.406 8.108c.994.603 1.837 1.967 1.837 2.981v.335c0 .174-.026.475-.206.583a.476.476 0 0 1-.233.051c-.183 0-.44-.067-.755-.26" fill="url(#aj)" mask="url(#ak)"/></g><g transform="translate(380 342)"><mask id="an" fill="#fff"><use xlink:href="#al"/></mask><path d="M15.885.436 2.474 8.545C1.086 9.385 0 11.205 0 12.69v.335c0 .793.297 1.412.844 1.74.257.157.553.235.869.235.437 0 .92-.148 1.4-.44l13.41-8.107C17.914 5.613 19 3.793 19 2.31v-.337c0-.791-.299-1.41-.844-1.74A1.664 1.664 0 0 0 17.284 0c-.438 0-.918.145-1.399.436m-14.4 13.17c-.178-.109-.208-.41-.208-.581v-.335c0-1.014.844-2.38 1.838-2.983L16.523 1.6c.316-.19.574-.257.76-.257.1 0 .179.021.234.05.176.107.204.411.204.58v.337c0 1.014-.842 2.38-1.836 2.982L2.474 13.398c-.317.191-.574.258-.758.258-.1 0-.178-.02-.231-.05" fill="url(#am)" mask="url(#an)"/></g><g transform="translate(102 260)"><mask id="aq" fill="#fff"><use xlink:href="#ao"/></mask><path d="M.9.223C.32.539 0 1.133 0 1.896v.324C0 3.646 1.159 5.39 2.64 6.2l8.04 4.38c.512.28 1.023.42 1.49.42.341 0 .653-.071.93-.223.58-.316.9-.91.9-1.673v-.322c0-1.425-1.16-3.173-2.64-3.98L3.322.419C2.81.141 2.297 0 1.832 0 1.491 0 1.176.075.9.223m10.46 9.24-8.04-4.38C2.263 4.506 1.366 3.194 1.366 2.22v-.324c0-.163.028-.452.218-.558a.532.532 0 0 1 .252-.052c.193 0 .468.066.803.25l8.04 4.382c1.06.578 1.959 1.888 1.959 2.864v.322c0 .163-.03.454-.22.558a.583.583 0 0 1-.254.05c-.195 0-.466-.064-.801-.248" fill="url(#ap)" mask="url(#aq)"/></g><g transform="translate(109 264)"><mask id="at" fill="#fff"><use xlink:href="#ar"/></mask><path d="M0 1.392v.359C0 3.08.969 4.78 2.16 5.55l1.68 1.077C5.03 7.395 6 6.939 6 5.607V5.25c0-1.33-.969-3.03-2.162-3.796L2.16.374C1.769.122 1.4 0 1.083 0 .437 0 0 .5 0 1.392" fill="url(#as)" mask="url(#at)"/></g><g transform="translate(108 263)"><mask id="aw" fill="#fff"><use xlink:href="#au"/></mask><path d="M.929.235C.329.567 0 1.195 0 1.997v.34c0 1.506 1.2 3.347 2.728 4.198L4.57 7.558C5.1 7.851 5.626 8 6.11 8c.352 0 .674-.075.96-.235.599-.333.93-.959.93-1.764v-.339C8 4.16 6.8 2.318 5.272 1.467L3.432.44C2.9.15 2.372 0 1.888 0c-.35 0-.676.077-.96.235M5.275 6.38 3.432 5.356c-1.095-.609-2.023-1.991-2.023-3.018v-.341c0-.173.03-.479.228-.589.162-.086.548-.09 1.089.211l1.842 1.025c1.095.609 2.023 1.99 2.023 3.018v.34c0 .172-.03.478-.226.588a.592.592 0 0 1-.263.053c-.201 0-.481-.068-.828-.262" fill="url(#av)" mask="url(#aw)"/></g><g transform="translate(324 377)"><mask id="az" fill="#fff"><use xlink:href="#ax"/></mask><path fill="url(#ay)" mask="url(#az)" d="M.197.018.323 9l1.48-.018L1.675 0z"/></g><g transform="translate(339 373)"><mask id="aC" fill="#fff"><use xlink:href="#aA"/></mask><path fill="url(#aB)" mask="url(#aC)" d="M.197.018.325 9l1.478-.018L1.677 0z"/></g><g transform="translate(307 375)"><mask id="aF" fill="#fff"><use xlink:href="#aD"/></mask><path fill="url(#aE)" mask="url(#aF)" d="M.209 8.985 1.691 9l.1-8.985L.309 0z"/></g><g transform="translate(286 363)"><mask id="aI" fill="#fff"><use xlink:href="#aG"/></mask><path fill="url(#aH)" mask="url(#aI)" d="M.21 8.987 1.69 9l.1-8.987L.308 0z"/></g><path fill="#FFF" d="m350.201 321.86-2.304-1.34.888-1.545 2.303 1.341zM358.375 326.614l-4.085-2.377.885-1.545 4.086 2.377-.886 1.545Zm8.173 4.755-4.087-2.379.887-1.544 4.088 2.376-.888 1.547Zm8.173 4.753-4.087-2.378.887-1.543 4.088 2.375-.888 1.546ZM381.114 339.839l-2.303-1.341.886-1.546 2.303 1.342z"/><path d="m313.693 339.307 64.954-37.446-21.783-12.764-64.953 37.445 21.782 12.765Zm67.864-37.435L313.688 341 289 326.533l67.87-39.128 24.687 14.467Z" fill="#FFF"/><path fill="#2565C1" d="m380.102 296.615-66.411 38.286-23.236-13.614L356.865 283z"/><g transform="translate(320 309)"><mask id="aL" fill="#fff"><use xlink:href="#aJ"/></mask><path d="M3.242.745c-.486.286-.828.593-1.028.916-.197.324-.237.689-.124 1.088l-.053.031-1.145-.494L0 2.811 10.502 9l1.1-.646-2.984-1.757c-.379-.226-.806-.444-1.281-.663l.079-.046c.624.056 1.22.02 1.784-.107a5.342 5.342 0 0 0 1.555-.606c.943-.556 1.351-1.186 1.221-1.889-.124-.7-.784-1.403-1.976-2.103C8.814.482 7.632.096 6.45.015A6.007 6.007 0 0 0 6.023 0c-1.01 0-1.938.248-2.781.745m4.17 4.54c-.78-.06-1.678-.387-2.696-.99l-.243-.143c-.887-.532-1.37-1.019-1.45-1.454-.08-.436.25-.873.993-1.309C4.658 1.01 5.4.857 6.237.931c.838.078 1.709.38 2.613.914.89.526 1.411 1.04 1.565 1.55.15.508-.086.945-.712 1.315-.661.39-1.334.585-2.016.585-.092 0-.183-.003-.274-.01" fill="url(#aK)" mask="url(#aL)"/></g><g transform="translate(329 305)"><mask id="aO" fill="#fff"><use xlink:href="#aM"/></mask><path d="M4.423 0c-.817.02-1.666.306-2.55.86a5.756 5.756 0 0 0-1.14.924A4.22 4.22 0 0 0 0 2.824l1.203.326c.403-.727.91-1.282 1.526-1.669.551-.343 1.087-.508 1.616-.49.527.016 1.08.208 1.661.57l.46.288-1.215.813C2.931 4.203 2.52 5.444 4.014 6.379a3.892 3.892 0 0 0 2.24.619c.794-.024 1.56-.264 2.293-.725.55-.344.926-.682 1.129-1.014.201-.335.257-.759.162-1.282l.055-.032 1.275.52.832-.52L6.947.78C6.117.259 5.305 0 4.517 0h-.094m.782 5.65c-.52-.324-.705-.685-.557-1.084.15-.4.655-.89 1.515-1.469l1.073-.73.67.418c.688.432 1.026.891 1.01 1.38-.017.488-.374.952-1.072 1.39-.44.275-.89.427-1.347.445a2.195 2.195 0 0 1-1.292-.35" fill="url(#aN)" mask="url(#aO)"/></g><g transform="translate(334 299)"><mask id="aR" fill="#fff"><use xlink:href="#aP"/></mask><path d="M6.244.689c1.99 2.233 3.183 3.563 3.586 3.988.4.426.697.721.88.887l-.06.03c-.558-.196-1.555-.468-2.99-.816L1.308 3.286 0 3.976 11.343 6.53l.697.84c.583.685.456 1.247-.384 1.686a6.28 6.28 0 0 1-.99.429l.977.516a7.76 7.76 0 0 0 1.23-.516c.664-.35 1.037-.745 1.112-1.184.08-.445-.161-.993-.725-1.65L7.552 0 6.244.689Z" fill="url(#aQ)" mask="url(#aR)"/></g><path d="M209.468 184.77c-.839 0-1.633.163-2.209.5l-92.512 53.788c-.232.135-.618.414-.618.777 0 .305.279.794 1.056 1.247l30.014 17.45c1.538.894 3.94 1.01 5.235.255l92.512-53.791c.232-.133.62-.413.62-.778 0-.302-.28-.789-1.057-1.242l-30.014-17.451c-.854-.498-1.975-.755-3.027-.755m-61.255 76.288c-1.353 0-2.77-.336-3.897-.992l-30.01-17.45c-1.231-.715-1.94-1.728-1.94-2.78 0-.928.532-1.75 1.5-2.314l92.512-53.787c1.84-1.069 4.913-.961 6.999.253l30.012 17.452c1.23.715 1.939 1.729 1.939 2.778-.002.932-.534 1.753-1.5 2.314l-92.513 53.79c-.844.491-1.952.736-3.102.736M252.17 209.6c-.838 0-1.63.163-2.208.497l-92.512 53.791c-.232.135-.62.413-.62.776 0 .306.279.794 1.059 1.247l6.503 3.78c1.538.894 3.935 1.012 5.236.256l92.51-53.791c.232-.135.621-.415.621-.778 0-.304-.28-.79-1.058-1.245l-6.504-3.779c-.853-.497-1.975-.754-3.026-.754m-84.766 62.616c-1.354 0-2.767-.332-3.895-.99l-6.503-3.78c-1.23-.715-1.939-1.729-1.939-2.782 0-.927.533-1.75 1.5-2.312l92.513-53.787c1.837-1.073 4.911-.96 6.997.253l6.503 3.78c1.231.716 1.94 1.73 1.94 2.78 0 .929-.534 1.75-1.501 2.314L170.51 271.48c-.847.494-1.953.737-3.106.737M313.7 245.377c-.84 0-1.635.163-2.21.497l-92.512 53.791c-.232.135-.617.413-.617.774 0 .306.278.793 1.056 1.247l6.503 3.779c1.536.896 3.936 1.013 5.237.257l92.512-53.791c.23-.135.619-.413.619-.776 0-.306-.28-.793-1.06-1.247l-6.501-3.779c-.855-.496-1.975-.752-3.028-.752m-84.767 62.614c-1.353 0-2.766-.332-3.893-.99l-6.501-3.78c-1.231-.715-1.94-1.73-1.94-2.782 0-.927.532-1.748 1.499-2.31l92.512-53.79c1.84-1.068 4.914-.953 7 .252l6.5 3.782c1.232.716 1.94 1.73 1.94 2.78 0 .929-.532 1.75-1.499 2.314l-92.51 53.787c-.848.495-1.954.737-3.108.737" fill="#2565C1"/><path d="M318.667 248.475c-.839 0-1.631.164-2.207.5l-92.513 53.789c-.23.134-.617.413-.617.778 0 .301.28.79 1.058 1.241l20.494 11.706c1.543.898 3.943 1.019 5.242.259l92.512-53.788c.228-.136.615-.415.615-.778 0-.303-.276-.792-1.056-1.245l-20.492-11.704c-.858-.497-1.984-.758-3.036-.758M247.9 319.021c-1.355 0-2.77-.336-3.895-.992l-20.494-11.706c-1.236-.717-1.943-1.73-1.943-2.781 0-.931.532-1.752 1.499-2.315l92.512-53.789c1.841-1.07 4.912-.957 6.997.256l20.494 11.705c1.237.717 1.943 1.732 1.943 2.783 0 .93-.532 1.752-1.499 2.311l-92.512 53.793c-.846.49-1.952.735-3.102.735M219.655 251.739c-.839 0-1.631.161-2.207.496l-40.021 23.27c-.23.134-.617.412-.617.777 0 .304.278.793 1.058 1.245l28.674 16.672c1.541.895 3.939 1.01 5.238.254l40.017-23.266c.232-.135.619-.414.619-.778 0-.304-.278-.793-1.056-1.247l-28.678-16.67c-.854-.496-1.977-.753-3.027-.753m-10.098 44.985c-1.354 0-2.77-.333-3.897-.99l-28.674-16.672c-1.23-.715-1.937-1.729-1.937-2.78 0-.929.531-1.75 1.497-2.314l40.02-23.268c1.84-1.07 4.912-.957 6.998.255l28.675 16.674c1.231.713 1.94 1.729 1.94 2.78 0 .929-.534 1.752-1.5 2.312l-40.02 23.27c-.847.49-1.953.733-3.102.733M272.15 221.215c-.84 0-1.633.164-2.21.5l-40.02 23.27c-.23.134-.617.413-.617.774 0 .305.278.792 1.056 1.247l28.674 16.672c1.541.893 3.941 1.011 5.24.253l40.019-23.268c.23-.135.615-.413.615-.774 0-.306-.276-.793-1.054-1.247l-28.676-16.672c-.854-.498-1.977-.755-3.027-.755m-10.102 44.987c-1.352 0-2.769-.332-3.895-.988l-28.675-16.674c-1.231-.715-1.936-1.728-1.936-2.781 0-.927.532-1.749 1.499-2.31l40.019-23.269c1.839-1.069 4.911-.961 6.997.254l28.675 16.673c1.232.715 1.938 1.73 1.938 2.782 0 .927-.532 1.748-1.499 2.31l-40.019 23.268c-.845.492-1.951.733-3.104.735M164.696 236.986l-2.762 1.606-7.562-4.398-1.215-.737-1.315-.817c0 .535-.018.894-.052 1.083l-.296 1.574-2.994-.194.857-4.395 2.27-1.32 13.07 7.598ZM162.928 230.415c1.602.932 2.89 1.52 3.862 1.76.97.243 1.784.175 2.44-.206.645-.375.757-.848.34-1.425-.417-.575-1.418-1.322-3.003-2.246-1.604-.93-2.899-1.514-3.889-1.755-.988-.24-1.802-.173-2.44.198-.65.377-.764.851-.343 1.42.42.57 1.43 1.321 3.033 2.254m6.392-3.716c2.282 1.328 3.599 2.526 3.947 3.6.348 1.072-.255 2.06-1.811 2.964-1.506.877-3.212 1.209-5.108.995-1.898-.212-3.954-.961-6.164-2.248-2.305-1.34-3.633-2.546-3.982-3.615-.348-1.069.251-2.053 1.802-2.955 1.507-.875 3.218-1.204 5.134-.988 1.916.215 3.977.966 6.182 2.247M173.378 224.338c1.602.935 2.89 1.52 3.86 1.763.973.243 1.787.173 2.442-.208.644-.374.756-.848.34-1.425-.419-.573-1.418-1.323-3.004-2.244-1.602-.931-2.9-1.517-3.89-1.756-.988-.24-1.8-.174-2.438.196-.65.377-.766.852-.345 1.421.42.57 1.433 1.321 3.035 2.253m6.39-3.713c2.283 1.326 3.6 2.526 3.947 3.598.348 1.071-.255 2.06-1.81 2.965-1.506.875-3.21 1.208-5.109.996-1.896-.214-3.951-.964-6.162-2.248-2.307-1.34-3.634-2.546-3.984-3.615-.348-1.071.254-2.056 1.802-2.956 1.508-.877 3.22-1.205 5.135-.99 1.916.218 3.978.967 6.182 2.25M183.826 218.264c1.603.933 2.89 1.52 3.863 1.76.97.243 1.784.175 2.439-.208.646-.373.758-.846.34-1.423-.417-.575-1.418-1.324-3.004-2.245-1.602-.931-2.897-1.517-3.887-1.756-.989-.239-1.802-.174-2.44.198-.65.377-.766.851-.343 1.421.419.57 1.43 1.32 3.032 2.253m6.393-3.716c2.282 1.326 3.598 2.527 3.946 3.6.348 1.07-.255 2.058-1.81 2.964-1.508.877-3.212 1.21-5.108.995-1.899-.212-3.954-.961-6.164-2.247-2.305-1.34-3.633-2.546-3.983-3.615-.347-1.07.252-2.056 1.802-2.956 1.508-.877 3.219-1.206 5.135-.988 1.916.215 3.977.965 6.182 2.247M203.753 209.682c-.25-.145-.562-.21-.937-.192-.376.016-.86.088-1.45.22l2.226 1.29c.673-.549.726-.99.16-1.318m-9.018-1.067c.263.153.57.226.92.22.352-.008.82-.078 1.405-.21l-2.102-1.221c-.654.516-.73.918-.223 1.21m11.577-.574c.948.552 1.365 1.191 1.254 1.924-.11.733-.726 1.492-1.844 2.275l1.832 1.065-1.226.712-1.794-1.044a17.213 17.213 0 0 1-4.596 1.777l-2.36-1.371a20.67 20.67 0 0 0 2.552-.695c.926-.31 1.693-.622 2.302-.933l-2.77-1.612-.834.214c-1.645.415-2.985.608-4.021.577-1.037-.03-1.958-.28-2.762-.75-.864-.5-1.237-1.111-1.117-1.828.12-.717.724-1.463 1.814-2.234l-1.366-.796 1.222-.711 1.333.773a18.037 18.037 0 0 1 4.522-1.673l1.251 1.705c-1.31.32-2.496.737-3.558 1.258l2.64 1.532c1.607-.415 2.822-.67 3.64-.765.821-.097 1.542-.097 2.165 0 .62.095 1.197.294 1.721.6" fill="#2565C1"/><path fill="#2565C1" d="m182.771 282.334-.882-1.534 45.696-26.57.882 1.536zM235.389 251.441l-.881-1.535 45.699-26.572.88 1.536zM387.277 322.831c1.676 1.375.288 3.313.025 3.65-.012.017.017.035.047.026.578-.153 3.905-.963 6.27.011.033.014.07-.007.047-.027-1.673-1.376-.26-3.322.007-3.66.015-.018-.017-.036-.046-.029-.583.157-3.936.976-6.303.002-.032-.012-.07.007-.047.027M396.36 317.551c1.673 1.375.285 3.314.023 3.65-.012.018.016.035.047.026.578-.152 3.907-.963 6.27.011.033.015.07-.007.047-.027-1.673-1.376-.26-3.324.007-3.66.014-.018-.018-.036-.046-.028-.584.154-3.936.973-6.303.001-.033-.012-.07.008-.045.027M405.44 312.272c1.674 1.374.286 3.313.024 3.649-.013.018.016.036.046.027.578-.153 3.908-.963 6.271.01.033.015.07-.008.047-.028-1.674-1.375-.26-3.322.007-3.658.014-.018-.018-.036-.046-.029-.584.155-3.936.974-6.302 0-.034-.013-.071.01-.046.029M414.521 306.992c1.674 1.375.286 3.313.024 3.65-.013.015.016.033.046.026.578-.152 3.907-.963 6.271.011.032.014.07-.009.047-.029-1.674-1.374-.261-3.322.007-3.66.014-.018-.018-.036-.047-.027-.583.155-3.935.974-6.301 0-.034-.012-.072.01-.047.03M423.602 301.712c1.674 1.375.286 3.314.024 3.648-.013.018.016.036.046.029.578-.155 3.907-.964 6.271.01.032.013.07-.009.046-.028-1.673-1.375-.26-3.323.007-3.66.015-.018-.017-.036-.046-.027-.583.154-3.936.973-6.301 0-.034-.013-.072.009-.047.028M387.24 312.249c1.676 1.376.286 3.315.026 3.65-.014.017.014.035.044.028.579-.155 3.908-.965 6.272.009.032.014.07-.007.046-.027-1.674-1.376-.259-3.322.007-3.66.014-.018-.018-.036-.046-.027-.584.155-3.936.974-6.302 0-.032-.013-.071.007-.046.027M396.322 306.97c1.673 1.374.285 3.312.025 3.648-.015.018.014.036.044.027.578-.152 3.907-.963 6.271.011.033.015.07-.007.047-.027-1.674-1.376-.259-3.322.007-3.66.014-.018-.016-.036-.046-.028-.584.156-3.936.975-6.302.001-.032-.012-.071.008-.046.027M405.402 301.69c1.676 1.374.286 3.313.025 3.649-.014.018.015.036.045.027.578-.153 3.907-.963 6.271.01.032.015.071-.007.046-.026-1.673-1.377-.258-3.324.008-3.66.014-.018-.016-.036-.047-.03-.583.155-3.935.975-6.301.003-.032-.013-.072.007-.047.027M414.483 296.41c1.676 1.374.286 3.313.025 3.649-.014.018.015.036.045.027.578-.153 3.907-.963 6.27.01.033.015.07-.008.047-.028-1.673-1.375-.258-3.322.007-3.66.015-.016-.016-.034-.044-.027-.585.155-3.938.974-6.303 0-.032-.01-.072.01-.047.029M24.131 322.76l8.137-5.294a.144.144 0 0 0 .032-.214l-10.333-12.63a.144.144 0 0 0-.252.06l-1.646 7.687-.002.02-.394 5.273a.144.144 0 0 0 .034.106l4.239 4.962a.14.14 0 0 0 .185.03"/><path d="m20.571 317.42 3.622 4.242 6.903-4.49-8.84-10.804-1.326 6.188-.359 4.864Zm3.485 6.249a1.02 1.02 0 0 1-.78-.36l-4.473-5.24-.01-.464.44-5.518 1.738-8.137.646-.241c.38-.092.778.043 1.03.348l10.586 12.937-.032.51c-.045.29-.21.55-.457.706l-8.144 5.3a1.009 1.009 0 0 1-.544.159Z" fill="#2565C1"/><path d="m54.948 284.598-38.832-22.58c-.972-.566-1.856-.652-2.535-.361l-7.593 4.582a.212.212 0 0 0-.05.328l9.074 9.665c.037.038.057.09.057.144v15.966c0 2.544 1.79 5.665 3.978 6.937l5.79 3.367.408.575c.287 1.687 1.886 8.736 9 13.628.281.192.465-.088.283-.438-.937-1.788-2.696-5.678-2.157-8.736l.638-.278 11.98 6.966a.22.22 0 0 1 .092.11l5 13.44a.208.208 0 0 0 .298.11l7.517-4.555c.637-.433 1.03-1.268 1.03-2.449v-29.484c0-2.544-1.788-5.665-3.978-6.937" fill="#FFF"/><path d="m33.065 306.406 12.64 7.349.2.408 4.72 12.677 6.817-4.132c.376-.255.604-.864.604-1.687v-29.485c0-2.231-1.62-5.056-3.537-6.172l-38.833-22.577c-.68-.394-1.3-.507-1.75-.313l-6.773 4.095 8.74 9.309.058.497v15.966c0 2.228 1.618 5.053 3.538 6.17l6.065 3.62.559.94c.205 1.199 1.415 6.842 6.551 11.419-.838-2.081-1.561-4.697-1.16-6.97l.082-.469 1.48-.645ZM50.478 329l-.569-.126a1.101 1.101 0 0 1-.651-.647l-4.919-13.218-11.177-6.5c-.154 2.74 1.418 6.096 2.144 7.49.291.553.214 1.17-.19 1.532-.375.335-.92.358-1.367.049-7.078-4.866-8.91-11.713-9.336-14.006l-.182-.257-5.624-3.27c-2.476-1.44-4.417-4.827-4.417-7.706v-15.694l-8.89-9.47a1.103 1.103 0 0 1 .25-1.708l7.578-4.57c1.081-.477 2.26-.33 3.43.351l38.832 22.58c2.476 1.44 4.417 4.824 4.417 7.706v29.485c0 1.432-.503 2.56-1.42 3.182L50.478 329Z" fill="#2565C1"/><g transform="translate(5 265)"><mask id="aU" fill="#fff"><use xlink:href="#aS"/></mask><path d="M0 2.77v29.454c0 2.475 1.709 5.484 3.818 6.723L9.72 42.41a.71.71 0 0 1 .297.461c.259 1.57 1.786 8.69 8.88 13.614.274.191.456-.084.274-.436-.951-1.84-2.776-5.922-2.059-9.008.035-.146.17-.193.317-.105l24.756 14.532C44.29 62.71 46 61.704 46 59.231V29.777c0-2.476-1.71-5.486-3.816-6.723L3.818.529C3.205.17 2.626 0 2.113 0 .86 0 0 1.015 0 2.77" fill="url(#aT)" mask="url(#aU)"/></g><path d="M23.573 312.136c.196 0 .397.052.579.159l25.076 14.528c.739.425 1.416.525 1.855.27.44-.256.693-.89.693-1.746v-29.434c0-2.15-1.569-4.878-3.426-5.953L9.494 267.45c-.737-.425-1.413-.527-1.853-.27-.44.256-.694.89-.694 1.748v29.432c0 2.15 1.568 4.878 3.427 5.95l5.977 3.467c.373.212.655.627.728 1.078.2 1.194 1.383 6.828 6.548 11.402-.89-2.188-1.636-4.953-1.084-7.293l.101-.429.506-.31c.135-.06.277-.09.423-.09M50.517 329c-.682 0-1.419-.218-2.167-.652l-24.228-14.035c-.153 2.717 1.403 6.038 2.141 7.444.289.552.212 1.166-.192 1.527-.374.334-.92.35-1.364.048-7.374-5.053-9.053-12.423-9.346-14.093l-5.867-3.4c-2.414-1.396-4.304-4.681-4.304-7.478v-29.432c0-1.526.557-2.687 1.572-3.275 1.014-.587 2.296-.49 3.612.272l38.854 22.507c2.416 1.398 4.305 4.683 4.305 7.48v29.434c0 1.524-.557 2.685-1.572 3.274a2.854 2.854 0 0 1-1.444.379" fill="#2565C1"/><path fill="#2565C1" d="m51.004 290.385-.914-1.509 6.769-4.126.915 1.507zM14.764 269.53l-.914-1.51 6.771-4.128.913 1.508zM53.125 298.369l-.939-1.491 7.462-4.734.938 1.492zM60.366 296.957l-7.711 4.687v25.52l7.462-4.103.249-1.828zM19.003 254.404l-1.752-.145.698-8.495 1.753.145zM11.676 255.419l-3.929-8.992 1.609-.711 3.929 8.994zM7.095 258.821 0 254.796l.863-1.536 7.097 4.024z"/><path d="m22.167 294.741 7.504 13.786 7.502-5.092-3.297-1.91a1.607 1.607 0 0 1-.769-1.338v-11.351l-7.492-4.337v10.333c0 .416-.2.78-.532.977-.337.195-.751.186-1.113-.021l-1.803-1.047Zm7.605 15.846-.53-.073c-.363-.093-.691-.361-.896-.74l-8.713-16.006c-.302-.554-.247-1.181.136-1.556.35-.341.87-.395 1.319-.13l2.77 1.603v-10.333c0-.416.2-.78.534-.977.337-.195.751-.186 1.113.021l8.588 4.977c.454.26.771.81.771 1.336v11.351l3.652 2.117c.443.257.75.775.769 1.292.014.409-.159.768-.472.984l-9.04 6.134Z" fill="#FFF"/><path d="M153.44 108.513c-2.769-3.476-5.81-2.785-13.48-4.504-6.592-1.48-13.486-1.41-20.028.28-6.5 1.68-10.46 2.766-13.148 5.824l-3.465 1.804.007 7.218.022.183c.146 4.864 4.11 9.426 11.992 12.684 7.839 3.24 16.579 3.738 24.82 1.747 11.643-2.814 17.494-8.687 17.675-14.608l.021-.28v-6.944l-4.417-3.404Z" fill="#2565C1"/><path d="m104.46 112.615.024 6.561c.144 4.673 4.152 8.814 11.291 11.766 7.403 3.06 15.97 3.66 24.117 1.692 10.181-2.462 16.62-7.643 16.8-13.527l.026-.338-.002-6.286-4.168-3.254c-1.71-2.15-3.461-2.435-7.283-3.06-1.496-.245-3.358-.549-5.553-1.042-6.458-1.45-13.198-1.353-19.495.272-6.602 1.706-10.16 2.724-12.576 5.473l-.332.26-2.848 1.483Zm25.896 23.449c-5.353 0-10.632-1.01-15.453-3.003-8.023-3.315-12.53-8.187-12.696-13.71l-.014-.075-.018-8.054 3.897-2.029c2.993-3.28 7.447-4.43 13.573-6.013 6.646-1.718 13.757-1.82 20.563-.29 2.133.478 3.882.762 5.423 1.016 3.965.646 6.376 1.041 8.614 3.78l4.755 3.667-.025 7.88c-.215 7.012-7.15 12.874-18.548 15.63-3.322.802-6.71 1.2-10.071 1.2Z" fill="#2565C1"/><path d="M149.87 100.748c10.65 6.168 10.65 16.171 0 22.34-10.648 6.169-27.916 6.169-38.566 0-10.65-6.169-10.65-16.172 0-22.34 10.65-6.17 27.918-6.17 38.566 0" fill="#FFF"/><path d="M130.589 97.258c-6.778 0-13.552 1.495-18.712 4.483-4.782 2.77-7.417 6.384-7.417 10.177 0 3.792 2.635 7.407 7.417 10.176 10.316 5.977 27.102 5.98 37.421 0 4.782-2.769 7.416-6.384 7.417-10.176 0-3.793-2.633-7.406-7.415-10.177-5.16-2.988-11.934-4.483-18.711-4.483m0 31.579c-7.191 0-14.38-1.586-19.855-4.755-5.519-3.197-8.56-7.518-8.56-12.164s3.041-8.966 8.56-12.165c10.948-6.337 28.76-6.337 39.71 0 5.516 3.2 8.555 7.519 8.555 12.165 0 4.646-3.039 8.967-8.56 12.164-5.47 3.169-12.663 4.755-19.85 4.755" fill="#2565C1"/><path d="M144.053 105.104c-7.437-3.762-19.493-3.762-26.932 0-7.436 3.762-7.436 9.864 0 13.627 7.439 3.762 19.495 3.762 26.932 0 7.438-3.763 7.438-9.865 0-13.627" fill="#2565C1"/><path d="M130.589 103.417c-4.693 0-9.383.904-12.952 2.712-3.148 1.59-4.95 3.7-4.95 5.789 0 2.088 1.802 4.198 4.95 5.79 7.142 3.613 18.763 3.613 25.9 0 3.148-1.592 4.951-3.702 4.951-5.79s-1.803-4.2-4.95-5.79c-3.567-1.807-8.26-2.71-12.95-2.71m-.001 19.262c-5.063 0-10.125-.975-13.981-2.926-4.002-2.024-6.206-4.808-6.206-7.836 0-3.03 2.204-5.813 6.206-7.838 7.712-3.898 20.255-3.9 27.964 0 4 2.025 6.204 4.808 6.204 7.838 0 3.028-2.204 5.812-6.204 7.836-3.856 1.949-8.92 2.926-13.983 2.926" fill="#2565C1"/><g transform="translate(111 106)"><mask id="aX" fill="#fff"><use xlink:href="#aV"/></mask><path d="M5.104 2.786C2.434 4.13.742 5.772 0 7.5c.742 1.727 2.433 3.372 5.104 4.714 7.399 3.715 19.393 3.715 26.79 0C34.565 10.872 36.26 9.227 37 7.5c-.74-1.728-2.435-3.371-5.106-4.714C28.194.928 23.348 0 18.5 0 13.652 0 8.803.928 5.104 2.786" fill="url(#aW)" mask="url(#aX)"/></g><path d="M112.469 113.5c.752 1.355 2.225 2.612 4.302 3.655 7.022 3.52 18.44 3.52 25.456 0 2.079-1.045 3.555-2.3 4.302-3.655-.747-1.356-2.223-2.613-4.302-3.655-7.016-3.52-18.438-3.52-25.456 0-2.077 1.042-3.552 2.299-4.302 3.655m17.03 8.5c-4.975 0-9.951-.95-13.74-2.85-2.776-1.395-4.704-3.196-5.572-5.21l-.187-.44.187-.44c.868-2.013 2.796-3.814 5.573-5.208 7.578-3.803 19.906-3.801 27.48-.002 2.779 1.396 4.705 3.197 5.571 5.211l.189.439-.189.438c-.866 2.016-2.792 3.815-5.57 5.211-3.789 1.899-8.767 2.851-13.743 2.851" fill="#2565C1"/><g transform="translate(149 124)"><mask id="ba" fill="#fff"><use xlink:href="#aY"/></mask><path fill="url(#aZ)" mask="url(#ba)" d="M.013 6h1.974V0H.013z"/></g><g transform="translate(152 119)"><mask id="bd" fill="#fff"><use xlink:href="#bb"/></mask><path fill="url(#bc)" mask="url(#bd)" d="M.013 6h1.974V0H.013z"/></g><g transform="translate(106 121)"><mask id="bg" fill="#fff"><use xlink:href="#be"/></mask><path fill="url(#bf)" mask="url(#bg)" d="M.013 6h1.974V0H.013z"/></g><g transform="translate(117 104)"><mask id="bj" fill="#fff"><use xlink:href="#bh"/></mask><path fill="url(#bi)" mask="url(#bj)" d="M.013 6h1.974V0H.013z"/></g><g transform="translate(122 102)"><mask id="bm" fill="#fff"><use xlink:href="#bk"/></mask><path fill="url(#bl)" mask="url(#bm)" d="M.013 6h1.974V0H.013z"/></g><path d="m102.199 76.797 8.166-5.264a.144.144 0 0 0 .032-.213l-10.37-12.562c-.077-.09-.227-.055-.252.061l-1.653 7.644-.001.02-.398 5.244c-.002.04.01.075.036.106l4.252 4.935a.144.144 0 0 0 .188.029" fill="#2565C1"/><path d="m98.627 71.489 3.633 4.217 6.927-4.466-8.87-10.743-1.332 6.15-.358 4.842Zm3.493 6.214a1.03 1.03 0 0 1-.78-.36l-4.487-5.211-.01-.465.397-5.251 1.79-8.324.648-.241c.381-.091.782.043 1.035.35l10.618 12.862-.03.504a1.013 1.013 0 0 1-.458.706l-8.16 5.262c-.173.111-.368.168-.563.168Z" fill="#2565C1"/><path d="m133.124 38.845-38.97-22.456c-.974-.563-1.86-.649-2.542-.36l-7.622 4.557a.21.21 0 0 0-.048.327l9.106 9.612c.037.038.057.09.057.143v15.878c0 2.53 1.796 5.634 3.992 6.9l5.81 3.348.41.572c.288 1.678 1.892 8.688 9.032 13.553.28.192.466-.087.283-.436-.94-1.778-2.705-5.646-2.164-8.687.297-.13.342-.149.639-.277l12.024 6.927a.223.223 0 0 1 .091.108l5.017 13.367a.21.21 0 0 0 .3.11l7.541-4.529c.641-.43 1.035-1.263 1.035-2.435V45.744c0-2.53-1.794-5.634-3.99-6.9" fill="#FFF"/><path d="m111.166 60.533 12.676 7.305.204.4 4.737 12.618 6.843-4.11c.376-.256.607-.86.607-1.678V45.745c0-2.22-1.624-5.028-3.549-6.136l-38.97-22.456c-.682-.393-1.305-.504-1.756-.31l-6.796 4.072 8.77 9.258.058.494v15.879c0 2.217 1.624 5.026 3.548 6.134l6.091 3.604.559.933c.206 1.192 1.421 6.806 6.574 11.354-.843-2.068-1.567-4.67-1.166-6.93l.083-.471 1.487-.637ZM128.638 83l-.567-.122c-.301-.107-.54-.339-.657-.637l-4.936-13.152-11.217-6.463c-.152 2.729 1.422 6.061 2.152 7.446.292.55.213 1.165-.193 1.524-.372.334-.922.354-1.37.052-7.1-4.839-8.939-11.65-9.37-13.93l-.181-.256-5.643-3.252c-2.487-1.433-4.435-4.8-4.435-7.664v-15.61L83.3 21.519a1.084 1.084 0 0 1-.288-.91c.052-.334.247-.62.54-.788l7.606-4.546c1.085-.471 2.266-.325 3.439.349l38.97 22.457c2.485 1.43 4.433 4.798 4.433 7.664v29.323c0 1.424-.507 2.548-1.425 3.165L128.638 83Z" fill="#2565C1"/><g transform="translate(82 20)"><mask id="bp" fill="#fff"><use xlink:href="#bn"/></mask><path d="M0 2.77v29.454c0 2.475 1.71 5.484 3.816 6.723l5.904 3.466a.691.691 0 0 1 .297.459c.256 1.57 1.786 8.69 8.88 13.616.273.189.456-.088.275-.438-.953-1.84-2.777-5.92-2.06-9.008.033-.146.169-.191.316-.107l24.756 14.534C44.29 62.71 46 61.704 46 59.23V29.778c0-2.476-1.709-5.485-3.816-6.723L3.816.53C3.205.17 2.626 0 2.113 0 .86 0 0 1.015 0 2.77" fill="url(#bo)" mask="url(#bp)"/></g><path d="M99.624 66.536c.2 0 .401.054.587.165l25.124 14.546c.742.43 1.424.528 1.857.272.443-.257.696-.893.696-1.748V50.283c0-2.153-1.572-4.885-3.433-5.962L85.516 21.772c-.738-.43-1.416-.53-1.859-.272-.44.256-.694.893-.694 1.75v29.485c0 2.156 1.574 4.888 3.433 5.964l5.99 3.47c.376.216.656.631.73 1.082.199 1.195 1.387 6.84 6.563 11.424-.89-2.192-1.64-4.966-1.088-7.308l.103-.433.51-.312c.132-.057.275-.086.42-.086m27.003 16.893c-.684 0-1.424-.219-2.172-.652l-24.282-14.06c-.152 2.72 1.408 6.047 2.146 7.459.291.551.215 1.165-.19 1.526-.375.337-.921.353-1.365.052-7.392-5.064-9.076-12.449-9.369-14.12l-5.879-3.404c-2.419-1.402-4.314-4.693-4.314-7.495V23.25c0-1.526.559-2.691 1.576-3.278 1.013-.59 2.3-.492 3.618.27l38.939 22.547c2.42 1.405 4.314 4.695 4.314 7.494v29.488c0 1.526-.557 2.69-1.576 3.278-.438.254-.926.38-1.446.38" fill="#2565C1"/><path fill="#2565C1" d="m127.114 44.747-.915-1.51 6.783-4.134.915 1.508zM90.797 23.852l-.915-1.51 6.785-4.136.915 1.509zM129.24 52.745l-.942-1.492 7.477-4.744.944 1.492zM136.496 51.33l-7.729 4.695v25.566l7.48-4.111.249-1.83zM95.045 8.701l-1.756-.144.7-8.511 1.757.145z"/><g transform="translate(83.765)"><mask id="br" fill="#fff"><use xlink:href="#bq"/></mask><path fill="#2565C1" mask="url(#br)" d="M3.938 9.717 0 .709l1.613-.711 3.937 9.01z"/></g><path fill="#2565C1" d="M83.112 13.124 76 9.093l.867-1.537 7.112 4.031z"/><path d="m98.214 49.11 7.52 13.811 7.52-5.101-3.306-1.913a1.62 1.62 0 0 1-.769-1.34V43.192l-7.507-4.343V49.2c0 .419-.2.785-.537.982-.338.195-.753.183-1.116-.027l-1.805-1.045Zm7.624 15.873-.527-.072c-.367-.09-.697-.358-.903-.737l-8.733-16.039c-.303-.555-.248-1.183.137-1.558.354-.342.873-.394 1.323-.131l2.776 1.607V37.7c0-.419.2-.786.538-.98.336-.194.753-.185 1.116.024l8.604 4.982c.454.265.771.816.771 1.34v11.374l3.66 2.117c.442.258.75.777.768 1.296.016.413-.158.773-.476.986l-9.054 6.143Z" fill="#FFF"/><path d="m330.681 90.078-4.667-2.49.83-1.559 4.664 2.49-.827 1.56Zm9.33 4.98-4.666-2.489.83-1.56 4.664 2.49-.828 1.56Zm9.333 4.979-4.666-2.488.826-1.56 4.666 2.487-.826 1.56Zm9.272 5.04c-1.406-.81-2.826-1.6-4.26-2.363l-.35-.186.83-1.56.347.183a150.4 150.4 0 0 1 4.309 2.393l-.876 1.533Zm8.91 5.587a151.298 151.298 0 0 0-4.404-2.876l.932-1.495c1.507.943 2.994 1.912 4.46 2.91l-.988 1.461Zm8.483 6.222a145.675 145.675 0 0 0-4.184-3.187l1.039-1.426c1.43 1.05 2.844 2.127 4.237 3.226l-1.092 1.387Zm8.013 6.821a149.087 149.087 0 0 0-3.943-3.482l1.136-1.347a141.948 141.948 0 0 1 3.993 3.523l-1.186 1.306Zm7.495 7.383a146.103 146.103 0 0 0-3.682-3.76l1.236-1.26a149.507 149.507 0 0 1 3.723 3.805l-1.277 1.215Zm6.942 7.908a148.955 148.955 0 0 0-3.4-4.017l1.32-1.169c1.17 1.337 2.32 2.691 3.443 4.066l-1.363 1.12Zm6.352 8.389a160.658 160.658 0 0 0-3.103-4.254l1.404-1.066a154.755 154.755 0 0 1 3.135 4.303l-1.436 1.017Zm5.727 8.829a150.602 150.602 0 0 0-2.785-4.467l1.475-.964a151.37 151.37 0 0 1 2.82 4.518l-1.51.913Zm5.074 9.217a147.74 147.74 0 0 0-2.453-4.654l1.54-.855a149.835 149.835 0 0 1 2.483 4.711l-1.57.798Zm4.394 9.561a141.56 141.56 0 0 0-2.11-4.82l1.598-.74c.742 1.61 1.456 3.237 2.137 4.88l-1.625.68Zm3.695 9.85a139.393 139.393 0 0 0-1.757-4.958l1.648-.622c.623 1.66 1.219 3.333 1.78 5.02l-1.67.56Zm2.972 10.097a139.649 139.649 0 0 0-1.395-5.073l1.69-.503c.501 1.702.97 3.412 1.413 5.137l-1.708.439Zm2.295 10.3-1.083-5.179 1.72-.372 1.086 5.193-1.723.358Zm2.153 10.379-1.077-5.188 1.723-.36 1.078 5.188-1.724.36Zm2.156 10.38-1.08-5.188 1.724-.365 1.079 5.19-1.723.363ZM205.276 54.998l-.105-1.763a55.871 55.871 0 0 1 5.367-.059l-.063 1.766a54.737 54.737 0 0 0-5.199.056Zm15.5 1.292a55.214 55.214 0 0 0-5.121-.917l.228-1.753c1.77.23 3.547.55 5.285.946l-.391 1.724ZM195 56.563l-.427-1.716a59.401 59.401 0 0 1 5.263-1.054l.266 1.747A55.6 55.6 0 0 0 195 56.563Zm35.65 2.974a56.31 56.31 0 0 0-4.862-1.855l.552-1.679a58.842 58.842 0 0 1 5.011 1.913l-.7 1.621Zm-45.456.471-.731-1.607a57.594 57.594 0 0 1 4.974-2.013l.581 1.67a55.378 55.378 0 0 0-4.824 1.95Zm-8.997 5.204-1.017-1.443a57.1 57.1 0 0 1 4.515-2.902l.88 1.532a55.617 55.617 0 0 0-4.378 2.813Zm-7.87 6.787-1.269-1.226a57.833 57.833 0 0 1 3.897-3.691l1.147 1.338A56.475 56.475 0 0 0 168.327 72Zm-6.478 8.142-1.472-.97a57.562 57.562 0 0 1 3.145-4.354l1.374 1.103a56.389 56.389 0 0 0-3.047 4.22Zm-5.594 8.97-1.495-.934 2.796-4.498 1.495.935-2.796 4.497Zm-5.591 8.998-1.493-.936 2.792-4.497 1.497.934-2.796 4.499Zm-4.653 7.483-1.495-.934 1.857-2.987 1.497.934-1.86 2.987ZM276.638 103.573l-.96-1.482 4.432-2.886.96 1.481-4.432 2.887Zm-8.863 5.778-.96-1.486 4.433-2.886.96 1.482-4.433 2.89Zm-8.864 5.772-.96-1.481 4.434-2.887.96 1.482-4.434 2.886Zm-8.814 5.803-1.006-1.447c.815-.573 1.64-1.131 2.476-1.679l1.952-1.272.96 1.483-1.952 1.271a90.402 90.402 0 0 0-2.43 1.644Zm-8.162 6.543-1.183-1.308a84.843 84.843 0 0 1 4.063-3.472l1.1 1.38a85.088 85.088 0 0 0-3.98 3.4Zm-7.286 7.517-1.339-1.15a85.127 85.127 0 0 1 3.599-3.955l1.263 1.233a81.704 81.704 0 0 0-3.523 3.872Zm-6.291 8.371-1.472-.972a86.23 86.23 0 0 1 3.077-4.375l1.408 1.063a84.909 84.909 0 0 0-3.013 4.284Zm-5.2 9.094-1.577-.78a84.248 84.248 0 0 1 2.505-4.726l1.528.878a86.853 86.853 0 0 0-2.455 4.628Zm-4.02 9.675-1.665-.578a87.934 87.934 0 0 1 1.896-5.001l1.627.678a86.28 86.28 0 0 0-1.859 4.901Zm-2.782 10.102-1.724-.364a82.192 82.192 0 0 1 1.26-5.2l1.695.47a85.222 85.222 0 0 0-1.231 5.094Zm-1.784 10.409-1.738-.288.856-5.23 1.736.285-.854 5.233Zm-1.71 10.459-1.737-.286.854-5.233 1.738.287-.855 5.232Zm-1.71 10.461-1.738-.286.856-5.23 1.736.285-.855 5.231Zm-1.435 8.774-1.736-.287.58-3.543 1.736.286-.58 3.544Z" fill="#2565C1"/><path d="m382.223 72.932-121.83 70.547c-3.488 2.02-9.583 1.766-13.611-.568l-74.2-43.322c-4.03-2.331-5.009-11.382-1.519-13.403l122.37-65.026c3.489-2.02 9.583-1.766 13.613.568l75.951 38.61c4.027 2.334 2.716 10.574-.774 12.594" fill="#2565C1"/><path d="M299.313 20.958c-2.014 0-3.918.394-5.306 1.197L171.599 87.203c-.93.537-1.527 2.156-1.527 4.202 0 3.131 1.295 6.157 3.083 7.191l74.202 43.326c3.643 2.106 9.35 2.362 12.464.564l121.828-70.549c1.533-.887 2.689-3.568 2.689-6.238 0-2.07-.698-3.663-1.915-4.368L306.53 22.753c-2.05-1.184-4.72-1.795-7.217-1.795M254.467 146c-2.862 0-5.865-.707-8.26-2.094l-74.201-43.323c-2.9-1.679-4.227-5.936-4.227-9.178 0-2.95.988-5.215 2.71-6.213l122.408-65.044c3.827-2.216 10.309-1.969 14.723.587l75.893 38.58c1.999 1.156 3.114 3.471 3.114 6.384 0 3.536-1.576 6.92-3.83 8.226l-121.83 70.547c-1.769 1.027-4.085 1.528-6.5 1.528" fill="#2565C1"/><g transform="translate(170 14)"><mask id="bu" fill="#fff"><use xlink:href="#bs"/></mask><path d="M123.995 1.363 2.351 71.886c-3.482 2.02-3.046 5.547.976 7.878l74.088 43.306c4.02 2.333 10.106 2.587 13.588.567l121.646-70.52c3.482-2.022 3.046-5.55-.976-7.88L137.587 1.93C135.385.653 132.57 0 129.897 0c-2.213 0-4.324.449-5.902 1.363" fill="url(#bt)" mask="url(#bu)"/></g><g fill="#2565C1"><path d="M300.453 15.308c-2.02 0-3.935.393-5.33 1.197L173.08 86.853c-.815.469-1.787 1.272-1.787 2.423 0 1.163 1.035 2.457 2.767 3.454l74.33 43.203c3.65 2.1 9.368 2.356 12.486.562l122.042-70.348c.815-.47 1.787-1.273 1.787-2.423 0-1.166-1.033-2.458-2.765-3.455l-74.333-43.203c-2.014-1.158-4.66-1.758-7.154-1.758M255.513 140c-2.867 0-5.875-.705-8.271-2.088l-74.333-43.201C170.426 93.28 169 91.299 169 89.276c0-1.75 1.042-3.316 2.933-4.406l122.041-70.347c3.873-2.23 10.363-1.984 14.784.562l74.332 43.203c2.482 1.431 3.91 3.412 3.91 5.436 0 1.75-1.044 3.315-2.935 4.405l-122.041 70.347c-1.771 1.024-4.091 1.524-6.511 1.524"/><path d="m382.664 59.278-74.33-43.2c-.046-.028-.103-.046-.151-.073l68.44 39.806c4.036 2.325 4.474 5.844.98 7.86L255.56 134.018c-3.453 1.991-9.445 1.76-13.483-.49l5.887 3.393c4.036 2.325 10.141 2.579 13.637.564l122.042-70.347c3.494-2.016 3.056-5.533-.98-7.86"/></g><g transform="translate(247 62)"><mask id="bx" fill="#fff"><use xlink:href="#bv"/></mask><path d="M136.941.768c.708 1.46.132 2.822-1.622 3.836L13.597 74.98c-3.237 1.873-8.943 1.62-12.718-.564L0 75.944C2.353 77.304 5.305 78 8.116 78c2.365 0 4.633-.494 6.36-1.494L136.2 6.132c2.55-1.475 3.444-3.826 2.326-6.132l-1.585.768Z" fill="url(#bw)" mask="url(#bx)"/></g><g transform="translate(173 95)"><mask id="bA" fill="#fff"><use xlink:href="#by"/></mask><path fill="url(#bz)" mask="url(#bA)" d="M.013 6h1.974V0H.013z"/></g><g transform="translate(377 70)"><mask id="bD" fill="#fff"><use xlink:href="#bB"/></mask><path fill="url(#bC)" mask="url(#bD)" d="M.013 6h1.974V0H.013z"/></g><g transform="translate(178 97)"><mask id="bG" fill="#fff"><use xlink:href="#bE"/></mask><path fill="url(#bF)" mask="url(#bG)" d="M.013 6h1.974V0H.013z"/></g><g transform="translate(246 135)"><mask id="bJ" fill="#fff"><use xlink:href="#bH"/></mask><path fill="url(#bI)" mask="url(#bJ)" d="M.013 7h1.974V0H.013z"/></g><g fill="#2565C1"><path d="M227.425 89.73c1.64-.017 3.232.52 4.781 1.606l-2.233 1.34c-.987-.543-1.914-.81-2.78-.792-.84.004-1.777.315-2.809.932-.879.525-1.43 1.02-1.654 1.483-.303.56-.137 1.103.492 1.624.57.472 1.335.645 2.294.516.469-.055 1.52-.307 3.156-.757 2.331-.659 3.951-1.03 4.865-1.116 1.852-.167 3.369.243 4.554 1.229 1.148.957 1.579 2.003 1.29 3.137-.308 1.136-1.333 2.229-3.069 3.282-1.687 1.025-3.315 1.573-4.878 1.641-1.93.08-3.762-.53-5.496-1.834l2.244-1.355c1.144.727 2.217 1.079 3.217 1.063.927-.025 1.944-.375 3.06-1.05 1-.606 1.634-1.216 1.912-1.83.251-.635.12-1.167-.395-1.593-.685-.57-1.653-.761-2.907-.572-.453.066-1.626.37-3.527.907-2.22.613-3.64.95-4.256 1.01-1.652.147-3.057-.256-4.211-1.21-1.166-.962-1.551-2.023-1.155-3.175.328-1.098 1.242-2.094 2.746-2.99 1.641-.98 3.23-1.479 4.759-1.497M239.063 90.237c.13.694.666 1.435 1.61 2.22l.142.122c.98.816 2.015 1.315 3.104 1.495.991.171 1.836.046 2.533-.377.946-.573 1.363-1.244 1.25-2.012-.142-.704-.707-1.466-1.692-2.293-.984-.825-1.936-1.357-2.852-1.595-1.098-.264-2.126-.11-3.08.465-.864.52-1.202 1.176-1.015 1.975m4.571-4.395c1.65.291 3.183 1.029 4.595 2.213 1.338 1.123 2.083 2.287 2.24 3.49.167 1.286-.456 2.356-1.87 3.213-1.137.689-2.614.859-4.436.505l4.795 4.003-2.162 1.316-12.807-10.678 2.033-1.217.99.825c-.14-1.104.443-2.047 1.742-2.825 1.453-.872 3.078-1.152 4.88-.845M249.987 83.152c-.024.542.26 1.164.856 1.866L255.849 82c-1.66-1.129-3.242-1.243-4.75-.336-.716.43-1.087.927-1.112 1.488m4.602-3.763c1.706.316 3.376 1.168 5.008 2.547l-7.268 4.385c.94.68 1.834 1.079 2.68 1.195.865.126 1.681-.047 2.455-.516.652-.393 1.04-.834 1.172-1.32.088-.377.004-.862-.249-1.459l2.13-1.287c.634.857.894 1.728.786 2.61-.182 1.113-.907 2.054-2.18 2.827-1.436.871-3 1.216-4.687 1.028-1.775-.185-3.424-.917-4.935-2.189-1.376-1.153-2.09-2.373-2.148-3.653-.101-1.29.578-2.373 2.04-3.25 1.609-.964 3.343-1.271 5.196-.918M264.038 72.67c1.34.027 2.66.459 3.965 1.298l-2.096 1.262c-.684-.401-1.365-.61-2.042-.628-.665-.007-1.32.186-1.966.571-.795.479-1.137 1.084-1.02 1.813.09.725.632 1.51 1.628 2.351 1.016.865 2.016 1.397 3 1.598.957.217 1.842.079 2.659-.416 1.395-.844 1.523-1.876.38-3.1l2.091-1.262c.998 1.171 1.412 2.24 1.24 3.205-.17.95-.872 1.797-2.106 2.545-1.483.902-3.086 1.214-4.813.94-1.66-.25-3.198-.978-4.616-2.178-1.385-1.17-2.112-2.355-2.184-3.553-.101-1.314.601-2.423 2.109-3.328 1.242-.745 2.502-1.118 3.771-1.118M267.004 70.103l2.113-1.268 8.98 7.666-2.095 1.271-8.998-7.669Zm-1.223-4.086c.53.056.978.243 1.35.561.398.34.577.697.536 1.075-.029.372-.246.679-.655.925-.395.234-.857.334-1.384.296a2.445 2.445 0 0 1-1.373-.576c-.385-.327-.563-.677-.536-1.05.04-.379.258-.684.654-.922a2.281 2.281 0 0 1 1.408-.309ZM282.734 67.663l-1.9 1.175c-1.66 1.002-1.938 1.977-.833 2.922.314.268.71.421 1.198.464.485.023.979-.116 1.478-.418.862-.525 1.345-1.132 1.443-1.832.062-.693-.278-1.359-1.025-2l-.361-.31Zm-2.847-4.203c1.15.132 2.27.668 3.358 1.605l5.667 4.872-1.923 1.17-1.167-1.004a2.65 2.65 0 0 1-.335 1.712c-.38.6-.957 1.136-1.736 1.607-.973.591-1.982.859-3.026.802a4.59 4.59 0 0 1-2.814-1.123c-1.12-.956-1.492-1.954-1.118-2.99.314-.874 1.109-1.701 2.392-2.474l2.05-1.261-.207-.175c-1.16-.998-2.42-1.091-3.776-.277-.626.375-1.006.764-1.141 1.166-.164.452-.029.91.392 1.38l-2.076 1.25c-.941-1.017-1.248-1.987-.925-2.908.26-.797 1.026-1.575 2.3-2.341 1.409-.845 2.77-1.179 4.085-1.01ZM278.76 57.738l2.084-1.245 12.486 10.766-2.061 1.25zM289.681 51.568l2.116-1.264 12.121 10.528-2.091 1.268zM298.12 49.019l8.69 7.57 2.168-1.311c1.572-.95 2.377-1.95 2.415-3 .001-1.045-.735-2.21-2.212-3.505-1.524-1.334-2.978-2.082-4.365-2.245-1.411-.166-2.913.227-4.51 1.184l-2.185 1.307Zm-3.8-.221L299.005 46c2.062-1.233 4.169-1.697 6.317-1.391 2.042.283 4.011 1.26 5.913 2.928 1.889 1.655 2.839 3.234 2.853 4.746.013 1.579-1.003 2.988-3.042 4.223l-4.634 2.814-12.094-10.522ZM320.19 41.901l-1.949 1.171c-.584-.307-1.101-.448-1.548-.425-.473.02-1.018.215-1.642.59-.54.325-.868.628-.98.912-.16.31-.075.613.26.905.28.245.761.31 1.442.197.428-.075 1.198-.291 2.31-.65 1.299-.422 2.329-.64 3.095-.657 1.155-.057 2.12.257 2.895.939 1.82 1.605 1.376 3.23-1.335 4.877-2.511 1.524-4.878 1.46-7.104-.195l1.955-1.18c.636.403 1.232.621 1.78.651.528-.005 1.11-.203 1.752-.592 1.401-.849 1.747-1.584 1.038-2.208-.398-.351-.975-.47-1.733-.355-.347.043-1.103.26-2.274.654-1.299.439-2.306.676-3.02.71-1.129.052-2.068-.248-2.816-.905-.815-.714-1.086-1.466-.817-2.257.214-.805.893-1.55 2.034-2.234 2.408-1.444 4.625-1.425 6.656.052M449.327 54.793l-.916-1.507 4.513-2.748.914 1.507-4.51 2.748Zm-9.021 5.496-.915-1.507 4.511-2.748.914 1.507-4.51 2.748Zm-9.022 5.494-.914-1.505 4.512-2.748.913 1.507-4.51 2.746Zm-8.289 5.225-.198-.054-.05.03-.032-.051-1.42-.38.235-.891 4.33-2.636.915 1.505-3.725 2.27-.055.207Zm-2.725 10.219-1.702-.454 1.364-5.11 1.7.454-1.362 5.11Zm-2.725 10.22-1.702-.454 1.364-5.11 1.702.455-1.364 5.108Zm-2.726 10.22-1.702-.455 1.363-5.11 1.702.456-1.363 5.11Zm-2.727 10.221-1.702-.455 1.363-5.11 1.702.453-1.363 5.112Zm-2.725 10.217-1.702-.453 1.363-5.11 1.702.455-1.363 5.108Zm-2.725 10.221-1.702-.453 1.361-5.11 1.702.455-1.361 5.108Zm-2.725 10.221-1.704-.455 1.363-5.11 1.702.453-1.361 5.112ZM488.609 2.765c-2.941 0-6.227 1.002-9.653 2.984-12.222 7.07-22.167 24.326-22.167 38.464 0 6.655 2.196 11.593 6.18 13.898 3.988 2.305 9.352 1.744 15.107-1.588 12.22-7.069 22.163-24.323 22.163-38.464 0-6.655-2.194-11.592-6.179-13.897-1.614-.932-3.454-1.397-5.451-1.397m-20.19 58.508c-2.305 0-4.439-.543-6.328-1.634-4.555-2.635-7.06-8.112-7.06-15.426 0-14.7 10.338-32.64 23.045-39.992C484.397.566 490.386 0 494.939 2.635 499.492 5.27 502 10.747 502 18.06c0 14.703-10.339 32.643-23.044 39.993-3.7 2.14-7.287 3.221-10.538 3.221"/><path d="m479.135 37.26-1.689.978-.822-19.255 3.333-1.926-.822 20.202Zm-2.8 7.152c0-1.689.644-2.907 1.933-3.651.62-.36 1.101-.42 1.44-.182.34.239.506.77.506 1.589 0 .794-.17 1.512-.515 2.151a3.717 3.717 0 0 1-1.431 1.491c-.56.324-1.022.393-1.385.213-.367-.179-.547-.716-.547-1.61ZM41.578 125.117c-2.94 0-6.227 1.002-9.652 2.982-12.222 7.07-22.167 24.326-22.167 38.464 0 6.657 2.197 11.594 6.182 13.9 3.985 2.3 9.35 1.74 15.105-1.588 12.222-7.069 22.165-24.323 22.165-38.464 0-6.657-2.196-11.592-6.18-13.9-1.614-.931-3.453-1.394-5.453-1.394m-20.19 58.508c-2.305 0-4.438-.543-6.327-1.636C10.508 179.356 8 173.88 8 166.563c0-14.699 10.339-32.639 23.046-39.992 6.323-3.655 12.311-4.22 16.865-1.584 4.551 2.632 7.06 8.112 7.06 15.424 0 14.701-10.338 32.643-23.045 39.991-3.7 2.141-7.287 3.223-10.538 3.223"/><path d="M28.945 166.971c0-1.687.643-2.905 1.93-3.65.625-.36 1.105-.421 1.443-.182.337.24.508.768.508 1.588 0 .794-.174 1.512-.516 2.151a3.703 3.703 0 0 1-1.435 1.491c-.556.324-1.018.395-1.383.215-.365-.18-.547-.718-.547-1.613Zm.787-5.989v-1.005c0-1.452.195-2.76.581-3.921.385-1.163 1.107-2.57 2.159-4.221 1.46-2.272 2.377-3.877 2.759-4.82.38-.94.573-1.92.573-2.937 0-1.268-.352-2.043-1.055-2.327-.704-.28-1.716-.04-3.035.722a16.395 16.395 0 0 0-2.48 1.78c-.804.696-1.73 1.65-2.77 2.86l-.95-1.966c2.03-2.403 4.149-4.244 6.36-5.523 2.05-1.185 3.643-1.524 4.782-1.016 1.14.51 1.708 1.827 1.708 3.95 0 .907-.104 1.764-.314 2.577a13.89 13.89 0 0 1-.925 2.489c-.41.854-1.29 2.352-2.643 4.502-1.084 1.694-1.8 2.996-2.15 3.905-.349.912-.523 1.955-.523 3.135v.616l-2.077 1.2ZM100.887 167.346l-.879-1.525 4.57-2.646.88 1.527-4.571 2.644Zm-9.14 5.293-.881-1.527 4.571-2.646.88 1.525-4.57 2.648Zm-9.144 5.29-.88-1.526 4.571-2.646.88 1.525-4.57 2.648Zm-45.075 3.91-2.727-4.53 1.508-.91 2.727 4.53-1.508.91Zm35.933 1.381-.88-1.526 4.572-2.643.88 1.523-4.572 2.646Zm-9.143 5.293-.88-1.527 4.573-2.644.878 1.525-4.57 2.646Zm-21.338 2.384-2.725-4.53 1.504-.907 2.729 4.528-1.508.909Zm12.197 2.905-.88-1.525 4.571-2.644.88 1.526-4.57 2.643Zm-7.749 4.487-1.723-2.862 1.508-.909.832 1.379 1.68-.974.88 1.527-3.177 1.84ZM220.637 368.047l-.879-1.524 2.813-1.629 2.639 1.529-.88 1.523-1.76-1.016-1.933 1.117Zm12.837 5.19-4.571-2.643.878-1.53 4.572 2.646-.879 1.527Zm-21.98.1-.88-1.527 4.571-2.645.882 1.525-4.573 2.647Zm-6.86 5.289-2.9-1.68 4.31-2.49.879 1.523-1.672.966.266.154-.882 1.527Zm32.884 1.728-.879-1.525 3.25-1.884-1.844-1.066.88-1.526 4.483 2.592-5.89 3.409Zm-23.739 3.56-4.573-2.644.88-1.525 4.573 2.643-.88 1.527Zm14.594 1.729-.878-1.525 4.57-2.644.88 1.525-4.572 2.644ZM222.571 389l-4.22-2.44.88-1.526 3.34 1.932.35-.205.88 1.527-1.23.712Z"/></g></g></svg>