<svg viewBox="0 0 60 60" xmlns="http://www.w3.org/2000/svg" xmlns:xlink="http://www.w3.org/1999/xlink"><defs><path id="a" d="M0 0h38v38H0z"/></defs><g fill="none" fill-rule="evenodd" opacity=".7"><rect fill="#D3F0FE" width="60" height="60" rx="6"/><path d="M18 22c-.552 0-1 .357-1 .797v10.406c0 .44.448.797 1 .797s1-.357 1-.797V22.797c0-.44-.448-.797-1-.797M23 25c-.552 0-1 .357-1 .797v10.406c0 .44.448.797 1 .797s1-.357 1-.797V25.797c0-.44-.448-.797-1-.797M33.707 27c.092 0 .187-.02.277-.06l5.587-2.513c.359-.161.525-.598.372-.975a.693.693 0 0 0-.927-.392l-5.587 2.513c-.359.161-.525.598-.372.976a.706.706 0 0 0 .65.451" fill="currentColor"/><g transform="translate(11 11)"><mask id="b" fill="#fff"><use xlink:href="#a"/></mask><path d="M28.877 36.475c-3.792 0-6.944-2.784-7.504-6.408l-.002-.017a7.663 7.663 0 0 1-.042-.327l-.009-.08a7.387 7.387 0 0 1-.02-.279l-.006-.093a7.54 7.54 0 0 1 2.756-6.193 7.576 7.576 0 0 1 5.182-1.72 7.058 7.058 0 0 1 .909.098l.068.011c.507.09 1.004.232 1.481.422l.035.013a7.71 7.71 0 0 1 .669.31l.14.075c.08.043.158.088.236.134l.05.03a7.56 7.56 0 0 1 3.649 6.46c0 4.17-3.406 7.564-7.592 7.564m-7.82-2.88-3.605 1.441-15.92-6.364V1.884L17.17 8.04c.18.071.382.071.563 0l15.639-6.156v19.12c-.021-.011-.043-.021-.064-.033a9.12 9.12 0 0 0-.988-.474l-.011-.004a9.213 9.213 0 0 0-.536-.198l-.011-.003a9.077 9.077 0 0 0-1.664-.385l-.1-.013a8.996 8.996 0 0 0-.446-.043 9.314 9.314 0 0 0-.676-.028 9.098 9.098 0 0 0-5.097 1.554c-2.427 1.635-4.026 4.402-4.026 7.534 0 .187.008.372.019.555.003.063.01.126.014.188.01.12.022.24.037.36.009.074.017.148.028.221a9.006 9.006 0 0 0 .15.77c.016.072.033.144.051.215a8.892 8.892 0 0 0 .565 1.547l.058.122c.052.106.106.21.162.313.026.049.053.096.08.144.047.083.09.167.14.249m13.846-11.499V.763a.768.768 0 0 0-1.047-.71L17.452 6.511 1.047.053a.768.768 0 0 0-.712.079.761.761 0 0 0-.335.63v28.425c0 .312.19.592.48.708l16.686 6.671a.77.77 0 0 0 .57 0l4.256-1.701A9.117 9.117 0 0 0 28.877 38C33.907 38 38 33.923 38 28.911c0-2.711-1.2-5.148-3.097-6.815" fill="currentColor" mask="url(#b)"/></g><path d="m43.646 36.213-5.424 4.973-2.876-2.563a.828.828 0 0 0-1.13.036.739.739 0 0 0 .038 1.078l3.43 3.057a.82.82 0 0 0 .546.206c.2 0 .4-.071.554-.213l5.97-5.474a.738.738 0 0 0 .023-1.079.828.828 0 0 0-1.131-.021" fill="currentColor"/></g></svg>