<?xml version="1.0" standalone="no"?><!DOCTYPE svg PUBLIC "-//W3C//DTD SVG 1.1//EN" "http://www.w3.org/Graphics/SVG/1.1/DTD/svg11.dtd"><svg t="1685596423889" class="icon" viewBox="0 0 1024 1024" version="1.1" xmlns="http://www.w3.org/2000/svg" p-id="21915" data-darkreader-inline-fill="" xmlns:xlink="http://www.w3.org/1999/xlink" width="200" height="200"><path d="M544 640C420.48 640 320 539.52 320 416S420.48 192 544 192 768 292.48 768 416 667.52 640 544 640z m0-358.4c-74.112 0-134.4 60.288-134.4 134.4 0 74.112 60.288 134.4 134.4 134.4 74.112 0 134.4-60.288 134.4-134.4 0-74.112-60.288-134.4-134.4-134.4z" fill="#747A7D" p-id="21916" data-darkreader-inline-fill="" style="--darkreader-inline-fill: #5b6266;"></path><path d="M851.456 896a44.224 44.224 0 0 1-39.936-26.432c-56.96-122.368-171.712-198.4-299.52-198.4-127.808 0-242.56 75.904-299.52 198.4-11.008 23.552-37.76 33.152-59.776 21.44-22.016-11.712-30.976-40.32-20.032-63.808C204.8 672.256 350.144 576 512 576c161.92 0 307.264 96.256 379.328 251.2 10.944 23.488 1.92 52.096-20.032 63.808a42.688 42.688 0 0 1-19.84 4.992z" fill="#747A7D" p-id="21917" data-darkreader-inline-fill="" style="--darkreader-inline-fill: #5b6266;"></path><path d="M512 1024c-282.368 0-512-229.632-512-512s229.632-512 512-512 512 229.632 512 512-229.632 512-512 512zM512 89.088A423.36 423.36 0 0 0 89.088 512 423.36 423.36 0 0 0 512 934.912 423.36 423.36 0 0 0 934.912 512 423.36 423.36 0 0 0 512 89.088z" fill="#747A7D" p-id="21918" data-darkreader-inline-fill="" style="--darkreader-inline-fill: #5b6266;"></path></svg>