<svg viewBox="0 0 15 14" xmlns="http://www.w3.org/2000/svg"><path d="M7.262 4.923a2.469 2.469 0 0 0 2.461-2.461A2.469 2.469 0 0 0 7.262 0 2.469 2.469 0 0 0 4.8 2.462a2.469 2.469 0 0 0 2.462 2.461Zm0-4C8.123.923 8.8 1.6 8.8 2.462 8.8 3.323 8.123 4 7.262 4a1.524 1.524 0 0 1-1.539-1.538C5.723 1.6 6.4.923 7.262.923ZM12.308 7.6a2.9 2.9 0 0 1 .923.215A5.936 5.936 0 0 0 10.4 2.923c-.03.339-.154.646-.277.923A4.98 4.98 0 0 1 12.308 7.6ZM4.369 3.846a4.05 4.05 0 0 1-.277-.923 5.936 5.936 0 0 0-2.83 4.892c.307-.123.615-.184.923-.215a5.167 5.167 0 0 1 2.184-3.754Zm5.046 8.739a5.03 5.03 0 0 1-2.153.492 5.03 5.03 0 0 1-2.154-.492c-.185.277-.4.492-.677.707.83.462 1.815.708 2.83.708 1.016 0 2-.246 2.831-.708a2.972 2.972 0 0 1-.677-.707ZM2.462 8.308A2.469 2.469 0 0 0 0 10.769a2.469 2.469 0 0 0 2.462 2.462 2.469 2.469 0 0 0 2.461-2.462 2.469 2.469 0 0 0-2.461-2.461Zm0 4a1.524 1.524 0 0 1-1.539-1.539c0-.861.677-1.538 1.539-1.538.861 0 1.538.677 1.538 1.538 0 .862-.677 1.539-1.538 1.539Zm9.6-4A2.469 2.469 0 0 0 9.6 10.769a2.469 2.469 0 0 0 2.462 2.462 2.469 2.469 0 0 0 2.461-2.462 2.469 2.469 0 0 0-2.461-2.461Zm0 4a1.524 1.524 0 0 1-1.539-1.539c0-.861.677-1.538 1.539-1.538.861 0 1.538.677 1.538 1.538 0 .862-.708 1.539-1.538 1.539Z" fill="currentColor" fill-rule="nonzero"/></svg>