<svg viewBox="0 0 104 38" xmlns="http://www.w3.org/2000/svg"><g fill-rule="nonzero" fill="none"><path fill="#218465" d="m0 16.892 7.421 4.264v-7.379L0 9.512z"/><path fill="#3BF4BB" d="M16.552 0 0 9.512l7.421 4.265 9.131-5.247 9.155 5.247 7.421 4.265v-8.53z"/><path fill="#0077FE" d="m25.707 24.224-9.155 5.247L0 19.959v8.529L16.552 38l16.576-9.512z"/><path fill="#014089" d="m33.128 21.109-7.421-4.265v7.38l7.421 4.264z"/><path d="M81.494 14.867c3.942 0 6.618 2.882 6.618 6.98 0 .524-.072 1.095-.144 1.667H77.672c.55 1.715 2.102 2.763 4.157 2.763 1.337 0 2.604-.476 3.44-1.382l2.078 2.073c-1.338 1.453-3.273 2.263-5.542 2.263-4.181 0-7.359-3.12-7.359-7.17s3.034-7.194 7.048-7.194ZM48.095 8.77c2.724 0 5.519 1.215 7.215 3.168l-2.317 2.287c-1.29-1.43-3.154-2.215-5.113-2.215-2.293 0-3.631.857-3.631 2.263 0 1.238 1.457 1.858 4.682 2.763 3.68 1.048 6.905 2.549 6.905 6.193 0 3.645-3.512 5.979-7.669 5.979-3.297 0-5.996-1.191-8.218-3.24l2.198-2.334c1.744 1.548 3.679 2.31 6.116 2.31 2.508 0 4.3-1.143 4.3-2.62 0-1.524-1.625-2.286-5.041-3.263-3.25-.905-6.57-2.191-6.57-5.74 0-3.502 3.034-5.55 7.143-5.55Zm44.7 6.384 3.033 3.93 3.01-3.93h4.062l-5.065 6.646 5.447 7.146h-4.11l-3.368-4.407-3.416 4.407h-4.037l5.447-7.146-5.065-6.646h4.061Zm-25.85-6.098c3.679 0 6.402 2.906 6.402 6.813 0 3.93-2.723 6.812-6.402 6.812h-5.041v6.241h-3.273V9.055h8.314Zm14.501 8.742c-1.911-.024-3.56 1.263-3.822 3.168h7.43c-.287-1.953-1.744-3.168-3.608-3.168Zm-14.955-5.479h-4.61v7.123h4.586c2.198 0 3.607-1.406 3.607-3.573 0-2.192-1.385-3.55-3.583-3.55Z" fill="#111029"/></g></svg>